{
.appVersion = "1352";
classes = (
{
automatic = 1;
code = "A Aacute Abreve Acircumflex Adieresis Agrave Amacron Aogonek Aring Atilde AE B C Cacute Ccaron Ccedilla Cdotaccent D Eth Dcaron Dcroat E Eacute Ecaron Ecircumflex Edieresis Edotaccent Egrave Emacron Eogonek F G Gbreve Gcommaaccent Gdotaccent H Hbar I IJ Iacute Icircumflex Idieresis Idotaccent Igrave Imacron Iogonek J K Kcommaaccent L Lacute Lcaron Lcommaaccent Lslash M N Nacute Ncaron Ncommaaccent Eng Ntilde O Oacute Ocircumflex Odieresis Ograve Ohungarumlaut Omacron Oslash Otilde OE P Thorn Q R Racute Rcaron Rcommaaccent S Sacute Scaron Scedilla Scommaaccent Germandbls T Tbar Tcaron Tcedilla Tcommaaccent U Uacute Ucircumflex Udieresis Ugrave Uhungarumlaut Umacron Uogonek Uring V W Wacute Wcircumflex Wdieresis Wgrave X Y Yacute Ycircumflex Ydieresis Ygrave Z Zacute Zcaron Zdotaccent A-cy Be-cy Ve-cy Ge-cy Gje-cy Gheupturn-cy De-cy Ie-cy Iegrave-cy Io-cy Zhe-cy Ze-cy Ii-cy Iishort-cy Iigrave-cy Ka-cy Kje-cy El-cy Em-cy En-cy O-cy Pe-cy Er-cy Es-cy Te-cy U-cy Ushort-cy Ef-cy Ha-cy Che-cy Tse-cy Sha-cy Shcha-cy Dzhe-cy Softsign-cy Hardsign-cy Yeru-cy Lje-cy Nje-cy Dze-cy E-cy Ereversed-cy I-cy Yi-cy Je-cy Tshe-cy Iu-cy Ia-cy Dje-cy Palochka-cy Imacron-cy Umacron-cy De-cy.loclRUS El-cy.loclRUS Ef-cy.loclRUS Lje-cy.loclRUS Alpha Beta Gamma Delta Epsilon Zeta Eta Theta Iota Kappa Lambda Mu Nu Xi Omicron Pi Rho Sigma Tau Upsilon Phi Chi Psi Omega Alphatonos Epsilontonos Etatonos Iotatonos Omicrontonos Upsilontonos Omegatonos Iotadieresis Upsilondieresis";
name = Uppercase;
}
);
copyright = "Copyright 2019 The Sofia Sans Project Authors (https://github.com/lettersoup/Sofia-Sans)";
customParameters = (
{
name = fsType;
value = (
);
},
{
name = "Use Typo Metrics";
value = 1;
},
{
name = "Use Extension Kerning";
value = 1;
},
{
name = "Enforce Compatibility Check";
value = 1;
},
{
name = licenseURL;
value = "https://scripts.sil.org/OFL";
},
{
name = license;

glyphs = (
{
glyphname = A;
lastChange = "2022-11-08 21:16:02 +0000";
layers = (
{
anchors = (
{
name = bottom;
position = "{225, 0}";
},
{
name = ogonek;
position = "{464, 10}";
},
{
name = top;
position = "{323, 655}";
},
{
name = topleft;
position = "{225, 655}";
}
);
layerId = "4C6D0269-BFF7-43F1-9175-E88494BCD883";
paths = (
{
closed = 1;
nodes = (
"-5 0 LINE SMOOTH",
"-3 0 OFFCURVE",
"-2 0 OFFCURVE",
"-1 2 CURVE SMOOTH",
"272 538 LINE SMOOTH",
"289 572 OFFCURVE",
"305 606 OFFCURVE",
"320 640 CURVE",
"321 640 LINE",
"327 605 OFFCURVE",
"332 574 OFFCURVE",
"338 541 CURVE SMOOTH",
"440 3 LINE SMOOTH",
"441 0 OFFCURVE",
"442 0 OFFCURVE",
"444 0 CURVE SMOOTH",
"453 0 LINE SMOOTH",
"455 0 OFFCURVE",
"457 0 OFFCURVE",
"456 4 CURVE SMOOTH",
"334 652 LINE SMOOTH",
"333 655 OFFCURVE",
"332 655 OFFCURVE",
"330 655 CURVE SMOOTH",
"314 655 LINE SMOOTH",
"312 655 OFFCURVE",
"311 655 OFFCURVE",
"310 651 CURVE SMOOTH",
"-18 3 LINE SMOOTH",
"-19 1 OFFCURVE",
"-18 0 OFFCURVE",
"-16 0 CURVE SMOOTH"
);
},
{
closed = 1;
nodes = (
"408 191 LINE",
"405 207 LINE",
"96 207 LINE",
"88 191 LINE"
);
}
);
width = 496;
},
{
anchors = (
{
name = bottom;
position = "{227, 0}";
},
{
name = ogonek;
position = "{501, 10}";
},
{
name = top;
position = "{333, 655}";
},
{
name = topleft;
position = "{229, 655}";
}
);
layerId = "7C569905-1C91-4856-B9FC-2D0B6400E3AF";
paths = (
{
closed = 1;
nodes = (
"44 0 LINE SMOOTH",
"50 0 OFFCURVE",
"53 4 OFFCURVE",
"56 9 CURVE SMOOTH",
"260 443 LINE SMOOTH",
"281 490 OFFCURVE",
"302 535 OFFCURVE",
"322 582 CURVE",
"324 582 LINE",
"330 535 OFFCURVE",
"337 487 OFFCURVE",
"343 443 CURVE SMOOTH",
"409 9 LINE SMOOTH",
"410 3 OFFCURVE",
"413 0 OFFCURVE",
"419 0 CURVE SMOOTH",
"484 0 LINE SMOOTH",
"490 0 OFFCURVE",
"493 3 OFFCURVE",
"492 10 CURVE SMOOTH",
"385 646 LINE SMOOTH",
"384 652 OFFCURVE",
"381 655 OFFCURVE",
"375 655 CURVE SMOOTH",
"291 655 LINE SMOOTH",
"286 655 OFFCURVE",
"283 651 OFFCURVE",
"281 646 CURVE SMOOTH",
"-26 9 LINE SMOOTH",
"-28 3 OFFCURVE",
"-26 0 OFFCURVE",
"-20 0 CURVE SMOOTH"
);
},
{
closed = 1;
nodes = (
"401 157 LINE",
"393 225 LINE",
"139 225 LINE",
"111 157 LINE"
);
}
);
width = 523;
},
{
anchors = (
{
name = bottom;
position = "{270, 0}";
},
{
name = ogonek;
position = "{566, 10}";
},
{
name = top;
position = "{374, 655}";
},
{
name = topleft;
position = "{216, 655}";
}
);
layerId = "68DFFD47-52F1-4BAD-AADC-5BAA93A7FBC7";
paths = (
{
closed = 1;
nodes = (
"141 0 LINE SMOOTH",
"150 0 OFFCURVE",
"157 6 OFFCURVE",
"160 15 CURVE SMOOTH",
"295 355 LINE SMOOTH",
"314 404 OFFCURVE",
"333 454 OFFCURVE",
"349 504 CURVE",
"352 504 LINE",
"352 454 OFFCURVE",
"355 405 OFFCURVE",
"359 356 CURVE SMOOTH",
"386 15 LINE SMOOTH",
"387 6 OFFCURVE",
"391 0 OFFCURVE",
"401 0 CURVE SMOOTH",
"561 0 LINE SMOOTH",
"570 0 OFFCURVE",
"576 5 OFFCURVE",
"574 15 CURVE SMOOTH",
"483 640 LINE SMOOTH",
"481 650 OFFCURVE",
"476 655 OFFCURVE",
"468 655 CURVE SMOOTH",
"277 655 LINE SMOOTH",
"269 655 OFFCURVE",
"263 649 OFFCURVE",
"260 640 CURVE SMOOTH",
"-31 15 LINE SMOOTH",
"-34 7 OFFCURVE",
"-31 0 OFFCURVE",
"-23 0 CURVE SMOOTH"
);
},
{
closed = 1;
nodes = (
"400 110 LINE",
"394 249 LINE",
"219 249 LINE",
"172 110 LINE"
);
}
);
width = 599;
}
);
leftKerningGroup = A;
rightKerningGroup = A;
unicode = 0041;
},
{
glyphname = Aring;
lastChange = "2022-11-08 21:16:02 +0000";
layers = (
{
layerId = "4C6D0269-BFF7-43F1-9175-E88494BCD883";
paths = (
{
closed = 1;
nodes = (
"-5 0 LINE SMOOTH",
"-3 0 OFFCURVE",
"-2 0 OFFCURVE",
"-1 2 CURVE",
"94 191 LINE",
"405 191 LINE",
"440 3 LINE",
"441 0 OFFCURVE",
"442 0 OFFCURVE",
"444 0 CURVE SMOOTH",
"453 0 LINE SMOOTH",
"455 0 OFFCURVE",
"457 0 OFFCURVE",
"456 4 CURVE",
"336 642 LINE",
"384 647 OFFCURVE",
"413 681 OFFCURVE",
"413 731 CURVE SMOOTH",
"413 773 OFFCURVE",
"386 800 OFFCURVE",
"340 800 CURVE SMOOTH",
"283 800 OFFCURVE",
"249 765 OFFCURVE",
"249 710 CURVE SMOOTH",
"249 673 OFFCURVE",
"269 648 OFFCURVE",
"305 642 CURVE",
"-18 3 LINE",
"-19 1 OFFCURVE",
"-18 0 OFFCURVE",
"-16 0 CURVE SMOOTH"
);
},
{
closed = 1;
nodes = (
"272 538 LINE SMOOTH",
"289 572 OFFCURVE",
"305 606 OFFCURVE",
"320 640 CURVE",
"321 640 LINE",
"327 605 OFFCURVE",
"332 574 OFFCURVE",
"338 541 CURVE SMOOTH",
"402 207 LINE",
"103 207 LINE"
);
},
{
closed = 1;
nodes = (
"286 657 OFFCURVE",
"264 675 OFFCURVE",
"264 710 CURVE SMOOTH",
"264 757 OFFCURVE",
"290 784 OFFCURVE",
"338 784 CURVE SMOOTH",
"376 784 OFFCURVE",
"397 765 OFFCURVE",
"397 731 CURVE SMOOTH",
"397 684 OFFCURVE",
"371 657 OFFCURVE",
"324 657 CURVE SMOOTH"
);
}
);
width = 496;
},
{
layerId = "7C569905-1C91-4856-B9FC-2D0B6400E3AF";
paths = (
{
closed = 1;
nodes = (
"44 0 LINE SMOOTH",
"50 0 OFFCURVE",
"53 4 OFFCURVE",
"56 9 CURVE SMOOTH",
"125 157 LINE",
"387 157 LINE",
"409 9 LINE",
"410 3 OFFCURVE",
"413 0 OFFCURVE",
"419 0 CURVE SMOOTH",
"484 0 LINE SMOOTH",
"490 0 OFFCURVE",
"493 3 OFFCURVE",
"492 10 CURVE",
"388 626 LINE",
"421 642 OFFCURVE",
"440 673 OFFCURVE",
"440 716 CURVE SMOOTH",
"440 766 OFFCURVE",
"405 797 OFFCURVE",
"348 797 CURVE SMOOTH",
"278 797 OFFCURVE",
"235 758 OFFCURVE",
"235 693 CURVE SMOOTH",
"235 663 OFFCURVE",
"249 640 OFFCURVE",
"272 628 CURVE",
"-26 9 LINE SMOOTH",
"-28 3 OFFCURVE",
"-26 0 OFFCURVE",
"-20 0 CURVE SMOOTH"
);
},
{
closed = 1;
nodes = (
"260 443 LINE SMOOTH",
"281 490 OFFCURVE",
"302 535 OFFCURVE",
"322 582 CURVE",
"324 582 LINE",
"330 535 OFFCURVE",
"337 487 OFFCURVE",
"343 443 CURVE SMOOTH",
"378 225 LINE",
"156 225 LINE"
);
},
{
closed = 1;
nodes = (
"305 657 OFFCURVE",
"289 671 OFFCURVE",
"289 696 CURVE SMOOTH",
"289 731 OFFCURVE",
"308 752 OFFCURVE",
"343 752 CURVE SMOOTH",
"371 752 OFFCURVE",
"387 737 OFFCURVE",
"387 712 CURVE SMOOTH",
"387 678 OFFCURVE",
"367 657 OFFCURVE",
"333 657 CURVE SMOOTH"
);
}
);
width = 523;
},
{
layerId = "68DFFD47-52F1-4BAD-AADC-5BAA93A7FBC7";
paths = (
{
closed = 1;
nodes = (
"141 0 LINE SMOOTH",
"150 0 OFFCURVE",
"157 6 OFFCURVE",
"160 15 CURVE SMOOTH",
"198 110 LINE",
"379 110 LINE",
"386 15 LINE SMOOTH",
"387 6 OFFCURVE",
"391 0 OFFCURVE",
"401 0 CURVE SMOOTH",
"561 0 LINE SMOOTH",
"570 0 OFFCURVE",
"576 5 OFFCURVE",
"574 15 CURVE SMOOTH",
"488 608 LINE",
"503 630 OFFCURVE",
"511 657 OFFCURVE",
"511 689 CURVE SMOOTH",
"511 754 OFFCURVE",
"464 797 OFFCURVE",
"390 797 CURVE SMOOTH",
"294 797 OFFCURVE",
"243 748 OFFCURVE",
"243 661 CURVE SMOOTH",
"243 646 OFFCURVE",
"245 633 OFFCURVE",
"251 620 CURVE",
"-31 15 LINE SMOOTH",
"-34 7 OFFCURVE",
"-31 0 OFFCURVE",
"-23 0 CURVE SMOOTH"
);
},
{
closed = 1;
nodes = (
"295 355 LINE SMOOTH",
"314 404 OFFCURVE",
"333 454 OFFCURVE",
"349 504 CURVE",
"352 504 LINE",
"352 454 OFFCURVE",
"355 405 OFFCURVE",
"359 356 CURVE SMOOTH",
"368 249 LINE",
"253 249 LINE"
);
},
{
closed = 1;
nodes = (
"355 631 OFFCURVE",
"346 644 OFFCURVE",
"346 668 CURVE SMOOTH",
"346 701 OFFCURVE",
"358 720 OFFCURVE",
"380 720 CURVE SMOOTH",
"399 720 OFFCURVE",
"409 707 OFFCURVE",
"409 683 CURVE SMOOTH",
"409 650 OFFCURVE",
"396 631 OFFCURVE",
"374 631 CURVE SMOOTH"
);
}
);
width = 599;
}
);
leftKerningGroup = A;
leftMetricsKey = A;
rightKerningGroup = A;
rightMetricsKey = A;
unicode = 00C5;
},
{
glyphname = AE;
lastChange = "2022-11-08 21:16:38 +0000";
layers = (
{
anchors = (
{
name = bottom;
position = "{368, 0}";
},
{
name = top;
position = "{579, 655}";
}
);
layerId = "4C6D0269-BFF7-43F1-9175-E88494BCD883";
paths = (
{
closed = 1;
nodes = (
"-4 0 LINE SMOOTH",
"-2 0 OFFCURVE",
"-1 0 OFFCURVE",
"0 2 CURVE SMOOTH",
"128 191 LINE",
"362 191 LINE",
"332 4 LINE SMOOTH",
"331 0 OFFCURVE",
"333 0 OFFCURVE",
"335 0 CURVE SMOOTH",
"652 0 LINE SMOOTH",
"655 0 OFFCURVE",
"656 0 OFFCURVE",
"657 3 CURVE SMOOTH",
"659 12 LINE SMOOTH",
"660 16 OFFCURVE",
"658 16 OFFCURVE",
"656 16 CURVE SMOOTH",
"350 16 LINE",
"400 328 LINE",
"684 328 LINE SMOOTH",
"687 328 OFFCURVE",
"688 328 OFFCURVE",
"689 331 CURVE SMOOTH",
"691 340 LINE SMOOTH",
"692 344 OFFCURVE",
"690 344 OFFCURVE",
"688 344 CURVE SMOOTH",
"403 344 LINE",
"449 639 LINE",
"753 639 LINE SMOOTH",
"756 639 OFFCURVE",
"757 639 OFFCURVE",
"758 642 CURVE SMOOTH",
"760 651 LINE SMOOTH",
"761 655 OFFCURVE",
"759 655 OFFCURVE",
"757 655 CURVE SMOOTH",
"429 655 LINE SMOOTH",
"425 655 OFFCURVE",
"424 654 OFFCURVE",
"421 650 CURVE SMOOTH",
"-18 3 LINE SMOOTH",
"-19 1 OFFCURVE",
"-18 0 OFFCURVE",
"-16 0 CURVE SMOOTH"
);
},
{
closed = 1;
nodes = (
"375 553 LINE SMOOTH",
"394 582 OFFCURVE",
"413 610 OFFCURVE",
"432 639 CURVE",
"433 639 LINE",
"428 609 OFFCURVE",
"424 580 OFFCURVE",
"419 550 CURVE SMOOTH",
"365 207 LINE",
"139 207 LINE"
);
}
);
width = 769;
},
{
anchors = (
{
name = bottom;
position = "{415, 0}";
},
{
name = top;
position = "{584, 655}";
}
);
layerId = "7C569905-1C91-4856-B9FC-2D0B6400E3AF";
paths = (
{
closed = 1;
nodes = (
"46 0 LINE SMOOTH",
"51 0 OFFCURVE",
"54 3 OFFCURVE",
"57 8 CURVE SMOOTH",
"150 157 LINE",
"353 157 LINE",
"329 9 LINE SMOOTH",
"328 3 OFFCURVE",
"331 0 OFFCURVE",
"338 0 CURVE SMOOTH",
"671 0 LINE SMOOTH",
"677 0 OFFCURVE",
"680 4 OFFCURVE",
"681 9 CURVE SMOOTH",
"689 63 LINE SMOOTH",
"690 68 OFFCURVE",
"687 72 OFFCURVE",
"681 72 CURVE SMOOTH",
"417 72 LINE",
"452 299 LINE",
"697 299 LINE SMOOTH",
"703 299 OFFCURVE",
"705 302 OFFCURVE",
"706 308 CURVE SMOOTH",
"714 358 LINE SMOOTH",
"715 365 OFFCURVE",
"712 368 OFFCURVE",
"706 368 CURVE SMOOTH",
"463 368 LINE",
"497 583 LINE",
"764 583 LINE SMOOTH",
"769 583 OFFCURVE",
"772 587 OFFCURVE",
"773 592 CURVE SMOOTH",
"782 646 LINE SMOOTH",
"783 652 OFFCURVE",
"779 655 OFFCURVE",
"773 655 CURVE SMOOTH",
"390 655 LINE SMOOTH",
"383 655 OFFCURVE",
"378 651 OFFCURVE",
"375 645 CURVE SMOOTH",
"-25 11 LINE SMOOTH",
"-29 4 OFFCURVE",
"-26 0 OFFCURVE",
"-20 0 CURVE SMOOTH"
);
},
{
closed = 1;
nodes = (
"367 504 LINE SMOOTH",
"386 534 OFFCURVE",
"403 565 OFFCURVE",
"421 596 CURVE",
"423 596 LINE",
"417 564 OFFCURVE",
"412 534 OFFCURVE",
"407 502 CURVE SMOOTH",
"363 225 LINE",
"191 225 LINE"
);
}
);
width = 776;
},
{
anchors = (
{
name = bottom;
position = "{375, 0}";
},
{
name = top;
position = "{585, 655}";
}
);
layerId = "68DFFD47-52F1-4BAD-AADC-5BAA93A7FBC7";
paths = (
{
closed = 1;
nodes = (
"145 0 LINE SMOOTH",
"153 0 OFFCURVE",
"160 5 OFFCURVE",
"164 15 CURVE SMOOTH",
"209 110 LINE",
"338 110 LINE",
"323 15 LINE SMOOTH",
"321 5 OFFCURVE",
"326 0 OFFCURVE",
"335 0 CURVE SMOOTH",
"733 0 LINE SMOOTH",
"741 0 OFFCURVE",
"747 6 OFFCURVE",
"748 15 CURVE SMOOTH",
"767 141 LINE SMOOTH",
"768 149 OFFCURVE",
"762 155 OFFCURVE",
"754 155 CURVE SMOOTH",
"513 155 LINE",
"529 256 LINE",
"750 256 LINE SMOOTH",
"759 256 OFFCURVE",
"764 262 OFFCURVE",
"765 270 CURVE SMOOTH",
"784 387 LINE SMOOTH",
"786 397 OFFCURVE",
"780 402 OFFCURVE",
"771 402 CURVE SMOOTH",
"552 402 LINE",
"567 500 LINE",
"812 500 LINE SMOOTH",
"820 500 OFFCURVE",
"826 507 OFFCURVE",
"827 515 CURVE SMOOTH",
"847 640 LINE SMOOTH",
"849 650 OFFCURVE",
"842 655 OFFCURVE",
"833 655 CURVE SMOOTH",
"310 655 LINE SMOOTH",
"302 655 OFFCURVE",
"296 649 OFFCURVE",
"291 640 CURVE SMOOTH",
"-30 16 LINE SMOOTH",
"-34 7 OFFCURVE",
"-30 0 OFFCURVE",
"-21 0 CURVE SMOOTH"
);
},
{
closed = 1;
nodes = (
"341 387 LINE SMOOTH",
"365 436 OFFCURVE",
"384 480 OFFCURVE",
"403 525 CURVE",
"406 525 LINE",
"398 479 OFFCURVE",
"391 439 OFFCURVE",
"383 391 CURVE SMOOTH",
"361 249 LINE",
"275 249 LINE"
);
}
);
width = 813;
}
);
leftKerningGroup = AE;
leftMetricsKey = A;
rightKerningGroup = E;
rightMetricsKey = E;
unicode = 00C6;
},
{
glyphname = B;
lastChange = "2022-11-08 21:16:02 +0000";
layers = (
{
layerId = "4C6D0269-BFF7-43F1-9175-E88494BCD883";
paths = (
{
closed = 1;
nodes = (
"229 0 LINE SMOOTH",
"392 0 OFFCURVE",
"473 69 OFFCURVE",
"473 204 CURVE SMOOTH",
"473 278 OFFCURVE",
"430 324 OFFCURVE",
"357 339 CURVE",
"357 340 LINE",
"443 360 OFFCURVE",
"495 429 OFFCURVE",
"495 521 CURVE SMOOTH",
"495 612 OFFCURVE",
"436 655 OFFCURVE",
"312 655 CURVE SMOOTH",
"176 655 LINE SMOOTH",
"173 655 OFFCURVE",
"172 655 OFFCURVE",
"171 651 CURVE SMOOTH",
"68 4 LINE SMOOTH",
"67 0 OFFCURVE",
"69 0 OFFCURVE",
"71 0 CURVE SMOOTH"
);
},
{
closed = 1;
nodes = (
"136 330 LINE",
"302 330 LINE SMOOTH",
"400 330 OFFCURVE",
"457 283 OFFCURVE",
"457 202 CURVE SMOOTH",
"457 79 OFFCURVE",
"382 16 OFFCURVE",
"232 16 CURVE SMOOTH",
"86 16 LINE"
);
},
{
closed = 1;
nodes = (
"185 639 LINE",
"311 639 LINE SMOOTH",
"427 639 OFFCURVE",
"479 600 OFFCURVE",
"479 519 CURVE SMOOTH",
"479 418 OFFCURVE",
"405 346 OFFCURVE",
"303 346 CURVE SMOOTH",
"139 346 LINE"
);
}
);
width = 531;
},
{
layerId = "7C569905-1C91-4856-B9FC-2D0B6400E3AF";
paths = (
{
closed = 1;
nodes = (
"229 0 LINE SMOOTH",
"393 0 OFFCURVE",
"495 63 OFFCURVE",
"495 211 CURVE SMOOTH",
"495 281 OFFCURVE",
"459 328 OFFCURVE",
"386 345 CURVE",
"386 346 LINE",
"466 368 OFFCURVE",
"517 426 OFFCURVE",
"517 517 CURVE SMOOTH",
"517 607 OFFCURVE",
"457 655 OFFCURVE",
"324 655 CURVE SMOOTH",
"162 655 LINE SMOOTH",
"156 655 OFFCURVE",
"153 652 OFFCURVE",
"152 646 CURVE SMOOTH",
"51 9 LINE SMOOTH",
"50 3 OFFCURVE",
"53 0 OFFCURVE",
"59 0 CURVE SMOOTH"
);
},
{
closed = 1;
nodes = (
"176 307 LINE",
"281 307 LINE SMOOTH",
"372 307 OFFCURVE",
"415 276 OFFCURVE",
"415 211 CURVE SMOOTH",
"415 108 OFFCURVE",
"349 69 OFFCURVE",
"235 69 CURVE SMOOTH",
"138 69 LINE"
);
},
{
closed = 1;
nodes = (
"220 587 LINE",
"307 587 LINE SMOOTH",
"400 587 OFFCURVE",
"437 563 OFFCURVE",
"437 503 CURVE SMOOTH",
"437 412 OFFCURVE",
"377 371 OFFCURVE",
"285 371 CURVE SMOOTH",
"186 371 LINE"
);
}
);
width = 536;
},
{
layerId = "68DFFD47-52F1-4BAD-AADC-5BAA93A7FBC7";
paths = (
{
closed = 1;
nodes = (
"258 0 LINE SMOOTH",
"460 0 OFFCURVE",
"557 71 OFFCURVE",
"557 212 CURVE SMOOTH",
"557 285 OFFCURVE",
"521 329 OFFCURVE",
"453 343 CURVE",
"453 347 LINE",
"531 368 OFFCURVE",
"577 426 OFFCURVE",
"577 507 CURVE SMOOTH",
"577 607 OFFCURVE",
"500 655 OFFCURVE",
"343 655 CURVE SMOOTH",
"137 655 LINE SMOOTH",
"128 655 OFFCURVE",
"122 649 OFFCURVE",
"121 640 CURVE SMOOTH",
"22 15 LINE SMOOTH",
"20 5 OFFCURVE",
"25 0 OFFCURVE",
"34 0 CURVE SMOOTH"
);
},
{
closed = 1;
nodes = (
"237 266 LINE",
"300 266 LINE SMOOTH",
"359 266 OFFCURVE",
"381 250 OFFCURVE",
"381 213 CURVE SMOOTH",
"381 166 OFFCURVE",
"353 144 OFFCURVE",
"288 144 CURVE SMOOTH",
"217 144 LINE"
);
},
{
closed = 1;
nodes = (
"276 511 LINE",
"330 511 LINE SMOOTH",
"377 511 OFFCURVE",
"395 498 OFFCURVE",
"395 462 CURVE SMOOTH",
"395 420 OFFCURVE",
"367 394 OFFCURVE",
"316 394 CURVE SMOOTH",
"257 394 LINE"
);
}
);
width = 578;
}
);
leftKerningGroup = H;
leftMetricsKey = H;
rightKerningGroup = B;
unicode = 0042;
},
{
glyphname = C;
lastChange = "2022-11-08 21:16:38 +0000";
layers = (
{
anchors = (
{
name = bottom;
position = "{263, 0}";
},
{
name = top;
position = "{367, 655}";
}
);
layerId = "4C6D0269-BFF7-43F1-9175-E88494BCD883";
paths = (
{
closed = 1;
nodes = (
"419 -11 OFFCURVE",
"487 51 OFFCURVE",
"508 194 CURVE SMOOTH",
"509 199 OFFCURVE",
"507 199 OFFCURVE",
"505 199 CURVE SMOOTH",
"495 199 LINE SMOOTH",
"493 199 OFFCURVE",
"492 198 OFFCURVE",
"492 196 CURVE SMOOTH",
"472 62 OFFCURVE",
"410 5 OFFCURVE",
"284 5 CURVE SMOOTH",
"150 5 OFFCURVE",
"81 82 OFFCURVE",
"102 212 CURVE SMOOTH",
"142 466 LINE SMOOTH",
"161 591 OFFCURVE",
"226 650 OFFCURVE",
"352 650 CURVE SMOOTH",
"486 650 OFFCURVE",
"553 581 OFFCURVE",
"534 460 CURVE SMOOTH",
"534 457 OFFCURVE",
"534 456 OFFCURVE",
"537 456 CURVE SMOOTH",
"546 456 LINE SMOOTH",
"549 456 OFFCURVE",
"550 457 OFFCURVE",
"550 460 CURVE SMOOTH",
"571 589 OFFCURVE",
"497 666 OFFCURVE",
"353 666 CURVE SMOOTH",
"217 666 OFFCURVE",
"146 603 OFFCURVE",
"126 467 CURVE SMOOTH",
"86 211 LINE SMOOTH",
"64 73 OFFCURVE",
"141 -11 OFFCURVE",
"283 -11 CURVE SMOOTH"
);
}
);
width = 582;
},
{
anchors = (
{
name = bottom;
position = "{275, 0}";
},
{
name = top;
position = "{366, 655}";
}
);
layerId = "7C569905-1C91-4856-B9FC-2D0B6400E3AF";
paths = (
{
closed = 1;
nodes = (
"430 -11 OFFCURVE",
"523 72 OFFCURVE",
"530 212 CURVE SMOOTH",
"530 219 OFFCURVE",
"527 221 OFFCURVE",
"521 221 CURVE SMOOTH",
"461 221 LINE SMOOTH",
"455 221 OFFCURVE",
"452 218 OFFCURVE",
"452 212 CURVE SMOOTH",
"441 114 OFFCURVE",
"386 60 OFFCURVE",
"284 60 CURVE SMOOTH",
"182 60 OFFCURVE",
"135 117 OFFCURVE",
"153 227 CURVE SMOOTH",
"187 447 LINE SMOOTH",
"203 548 OFFCURVE",
"259 595 OFFCURVE",
"358 595 CURVE SMOOTH",
"465 595 OFFCURVE",
"507 539 OFFCURVE",
"489 443 CURVE SMOOTH",
"488 437 OFFCURVE",
"490 434 OFFCURVE",
"496 434 CURVE SMOOTH",
"555 434 LINE SMOOTH",
"561 434 OFFCURVE",
"564 437 OFFCURVE",
"565 443 CURVE SMOOTH",
"598 583 OFFCURVE",
"513 666 OFFCURVE",
"366 666 CURVE SMOOTH",
"217 666 OFFCURVE",
"132 593 OFFCURVE",
"110 447 CURVE SMOOTH",
"75 228 LINE SMOOTH",
"52 77 OFFCURVE",
"124 -11 OFFCURVE",
"276 -11 CURVE SMOOTH"
);
}
);
width = 590;
},
{
anchors = (
{
name = bottom;
position = "{301, 0}";
},
{
name = top;
position = "{384, 655}";
}
);
layerId = "68DFFD47-52F1-4BAD-AADC-5BAA93A7FBC7";
paths = (
{
closed = 1;
nodes = (
"481 -11 OFFCURVE",
"580 75 OFFCURVE",
"590 235 CURVE SMOOTH",
"591 245 OFFCURVE",
"586 250 OFFCURVE",
"576 250 CURVE SMOOTH",
"429 250 LINE SMOOTH",
"420 250 OFFCURVE",
"415 245 OFFCURVE",
"414 235 CURVE SMOOTH",
"409 177 OFFCURVE",
"377 146 OFFCURVE",
"314 146 CURVE SMOOTH",
"241 146 OFFCURVE",
"212 185 OFFCURVE",
"225 268 CURVE SMOOTH",
"246 401 LINE SMOOTH",
"258 475 OFFCURVE",
"291 509 OFFCURVE",
"356 509 CURVE SMOOTH",
"422 509 OFFCURVE",
"452 476 OFFCURVE",
"443 420 CURVE SMOOTH",
"442 410 OFFCURVE",
"447 405 OFFCURVE",
"457 405 CURVE SMOOTH",
"604 405 LINE SMOOTH",
"612 405 OFFCURVE",
"617 410 OFFCURVE",
"619 420 CURVE SMOOTH",
"651 568 OFFCURVE",
"551 666 OFFCURVE",
"372 666 CURVE SMOOTH",
"196 666 OFFCURVE",
"101 586 OFFCURVE",
"73 413 CURVE SMOOTH",
"50 265 LINE SMOOTH",
"22 91 OFFCURVE",
"110 -11 OFFCURVE",
"297 -11 CURVE SMOOTH"
);
}
);
width = 621;
}
);
leftKerningGroup = O;
leftMetricsKey = O;
rightKerningGroup = C;
unicode = 0043;
},
{
glyphname = D;
lastChange = "2022-11-08 21:16:02 +0000";
layers = (
{
anchors = (
{
name = bottom;
position = "{222, 0}";
},
{
name = center;
position = "{313, 328}";
},
{
name = top;
position = "{330, 655}";
}
);
layerId = "4C6D0269-BFF7-43F1-9175-E88494BCD883";
paths = (
{
closed = 1;
nodes = (
"223 0 LINE SMOOTH",
"398 0 OFFCURVE",
"498 80 OFFCURVE",
"528 274 CURVE SMOOTH",
"544 372 LINE SMOOTH",
"574 569 OFFCURVE",
"497 655 OFFCURVE",
"311 655 CURVE SMOOTH",
"176 655 LINE SMOOTH",
"173 655 OFFCURVE",
"172 655 OFFCURVE",
"171 651 CURVE SMOOTH",
"68 4 LINE SMOOTH",
"67 0 OFFCURVE",
"69 0 OFFCURVE",
"71 0 CURVE SMOOTH"
);
},
{
closed = 1;
nodes = (
"185 639 LINE",
"309 639 LINE SMOOTH",
"485 639 OFFCURVE",
"558 561 OFFCURVE",
"528 371 CURVE SMOOTH",
"512 275 LINE SMOOTH",
"483 94 OFFCURVE",
"392 16 OFFCURVE",
"226 16 CURVE SMOOTH",
"86 16 LINE"
);
}
);
width = 582;
},
{
anchors = (
{
name = bottom;
position = "{251, 0}";
},
{
name = center;
position = "{322, 329}";
},
{
name = top;
position = "{332, 655}";
}
);
layerId = "7C569905-1C91-4856-B9FC-2D0B6400E3AF";
paths = (
{
closed = 1;
nodes = (
"229 0 LINE SMOOTH",
"418 0 OFFCURVE",
"522 95 OFFCURVE",
"554 301 CURVE SMOOTH",
"564 365 LINE SMOOTH",
"594 560 OFFCURVE",
"513 655 OFFCURVE",
"316 655 CURVE SMOOTH",
"162 655 LINE SMOOTH",
"156 655 OFFCURVE",
"153 652 OFFCURVE",
"152 646 CURVE SMOOTH",
"51 9 LINE SMOOTH",
"50 3 OFFCURVE",
"53 0 OFFCURVE",
"60 0 CURVE SMOOTH"
);
},
{
closed = 1;
nodes = (
"220 587 LINE",
"309 587 LINE SMOOTH",
"459 587 OFFCURVE",
"511 517 OFFCURVE",
"487 369 CURVE SMOOTH",
"475 297 LINE SMOOTH",
"449 135 OFFCURVE",
"374 68 OFFCURVE",
"231 68 CURVE SMOOTH",
"138 68 LINE"
);
}
);
width = 595;
},
{
anchors = (
{
name = bottom;
position = "{253, 0}";
},
{
name = center;
position = "{329, 344}";
},
{
name = top;
position = "{355, 655}";
}
);
layerId = "68DFFD47-52F1-4BAD-AADC-5BAA93A7FBC7";
paths = (
{
closed = 1;
nodes = (
"273 0 LINE SMOOTH",
"481 0 OFFCURVE",
"573 97 OFFCURVE",
"605 289 CURVE SMOOTH",
"616 356 LINE SMOOTH",
"648 555 OFFCURVE",
"549 655 OFFCURVE",
"344 655 CURVE SMOOTH",
"136 655 LINE SMOOTH",
"127 655 OFFCURVE",
"122 649 OFFCURVE",
"121 640 CURVE SMOOTH",
"22 15 LINE SMOOTH",
"20 6 OFFCURVE",
"25 0 OFFCURVE",
"35 0 CURVE SMOOTH"
);
},
{
closed = 1;
nodes = (
"274 500 LINE",
"325 500 LINE SMOOTH",
"416 500 OFFCURVE",
"456 454 OFFCURVE",
"442 361 CURVE SMOOTH",
"431 295 LINE SMOOTH",
"416 203 OFFCURVE",
"376 155 OFFCURVE",
"283 155 CURVE SMOOTH",
"219 155 LINE"
);
}
);
width = 622;
}
);
leftKerningGroup = H;
leftMetricsKey = H;
rightKerningGroup = D;
unicode = 0044;
},
{
glyphname = Eth;
lastChange = "2022-11-08 21:16:02 +0000";
layers = (
{
components = (
{
alignment = -1;
name = D;
}
);
layerId = "4C6D0269-BFF7-43F1-9175-E88494BCD883";
paths = (
{
closed = 1;
nodes = (
"314 328 LINE SMOOTH",
"317 328 OFFCURVE",
"318 328 OFFCURVE",
"319 331 CURVE SMOOTH",
"321 340 LINE SMOOTH",
"322 344 OFFCURVE",
"320 344 OFFCURVE",
"318 344 CURVE SMOOTH",
"122 344 LINE",
"39 344 LINE SMOOTH",
"36 344 OFFCURVE",
"35 344 OFFCURVE",
"34 341 CURVE SMOOTH",
"32 332 LINE SMOOTH",
"31 328 OFFCURVE",
"33 328 OFFCURVE",
"35 328 CURVE SMOOTH"
);
}
);
width = 582;
},
{
components = (
{
alignment = -1;
name = D;
transform = "{1, 0, 0, 1, 1, 0}";
}
);
layerId = "7C569905-1C91-4856-B9FC-2D0B6400E3AF";
paths = (
{
closed = 1;
nodes = (
"313 301 LINE SMOOTH",
"319 301 OFFCURVE",
"322 304 OFFCURVE",
"323 310 CURVE SMOOTH",
"330 356 LINE SMOOTH",
"331 362 OFFCURVE",
"328 366 OFFCURVE",
"322 366 CURVE SMOOTH",
"109 366 LINE",
"42 366 LINE SMOOTH",
"37 366 OFFCURVE",
"34 362 OFFCURVE",
"33 356 CURVE SMOOTH",
"25 310 LINE SMOOTH",
"24 304 OFFCURVE",
"27 301 OFFCURVE",
"34 301 CURVE SMOOTH"
);
}
);
width = 596;
},
{
components = (
{
alignment = -1;
name = D;
transform = "{1, 0, 0, 1, 2, 0}";
}
);
layerId = "68DFFD47-52F1-4BAD-AADC-5BAA93A7FBC7";
paths = (
{
closed = 1;
nodes = (
"301 264 LINE SMOOTH",
"310 264 OFFCURVE",
"315 270 OFFCURVE",
"316 278 CURVE SMOOTH",
"331 377 LINE SMOOTH",
"333 386 OFFCURVE",
"327 392 OFFCURVE",
"318 392 CURVE SMOOTH",
"83 392 LINE",
"42 392 LINE SMOOTH",
"33 392 OFFCURVE",
"28 386 OFFCURVE",
"27 377 CURVE SMOOTH",
"11 278 LINE SMOOTH",
"10 269 OFFCURVE",
"16 264 OFFCURVE",
"25 264 CURVE SMOOTH"
);
}
);
width = 624;
}
);
leftKerningGroup = Eth;
rightKerningGroup = D;
rightMetricsKey = D;
unicode = 00D0;
},
{
glyphname = E;
lastChange = "2022-11-08 21:16:02 +0000";
layers = (
{
anchors = (
{
name = bottom;
position = "{222, 0}";
},
{
name = ogonek;
position = "{374, 10}";
},
{
name = top;
position = "{327, 655}";
},
{
name = topleft;
position = "{98, 655}";
}
);
layerId = "4C6D0269-BFF7-43F1-9175-E88494BCD883";
paths = (
{
closed = 1;
nodes = (
"388 0 LINE SMOOTH",
"391 0 OFFCURVE",
"392 0 OFFCURVE",
"393 3 CURVE SMOOTH",
"395 12 LINE SMOOTH",
"396 16 OFFCURVE",
"394 16 OFFCURVE",
"392 16 CURVE SMOOTH",
"86 16 LINE",
"136 328 LINE",
"420 328 LINE SMOOTH",
"423 328 OFFCURVE",
"424 328 OFFCURVE",
"425 331 CURVE SMOOTH",
"427 340 LINE SMOOTH",
"428 344 OFFCURVE",
"426 344 OFFCURVE",
"424 344 CURVE SMOOTH",
"139 344 LINE",
"185 639 LINE",
"489 639 LINE SMOOTH",
"492 639 OFFCURVE",
"493 639 OFFCURVE",
"494 642 CURVE SMOOTH",
"496 651 LINE SMOOTH",
"497 655 OFFCURVE",
"495 655 OFFCURVE",
"493 655 CURVE SMOOTH",
"176 655 LINE SMOOTH",
"173 655 OFFCURVE",
"172 655 OFFCURVE",
"171 651 CURVE SMOOTH",
"68 4 LINE SMOOTH",
"67 0 OFFCURVE",
"69 0 OFFCURVE",
"71 0 CURVE SMOOTH"
);
}
);
width = 505;
},
{
anchors = (
{
name = bottom;
position = "{229, 0}";
},
{
name = ogonek;
position = "{390, 10}";
},
{
name = top;
position = "{323, 655}";
},
{
name = topleft;
position = "{109, 655}";
}
);
layerId = "7C569905-1C91-4856-B9FC-2D0B6400E3AF";
paths = (
{
closed = 1;
nodes = (
"393 0 LINE SMOOTH",
"399 0 OFFCURVE",
"402 4 OFFCURVE",
"403 9 CURVE SMOOTH",
"411 63 LINE SMOOTH",
"412 68 OFFCURVE",
"409 72 OFFCURVE",
"403 72 CURVE SMOOTH",
"139 72 LINE",
"174 299 LINE",
"419 299 LINE SMOOTH",
"425 299 OFFCURVE",
"428 302 OFFCURVE",
"429 308 CURVE SMOOTH",
"436 358 LINE SMOOTH",
"438 364 OFFCURVE",
"435 368 OFFCURVE",
"428 368 CURVE SMOOTH",
"186 368 LINE",
"219 583 LINE",
"486 583 LINE SMOOTH",
"492 583 OFFCURVE",
"495 587 OFFCURVE",
"496 592 CURVE SMOOTH",
"504 646 LINE SMOOTH",
"505 652 OFFCURVE",
"502 655 OFFCURVE",
"496 655 CURVE SMOOTH",
"162 655 LINE SMOOTH",
"156 655 OFFCURVE",
"153 652 OFFCURVE",
"152 646 CURVE SMOOTH",
"51 9 LINE SMOOTH",
"50 3 OFFCURVE",
"54 0 OFFCURVE",
"59 0 CURVE SMOOTH"
);
}
);
width = 499;
},
{
anchors = (
{
name = bottom;
position = "{237, 0}";
},
{
name = ogonek;
position = "{427, 10}";
},
{
name = top;
position = "{331, 655}";
},
{
name = topleft;
position = "{107, 655}";
}
);
layerId = "68DFFD47-52F1-4BAD-AADC-5BAA93A7FBC7";
paths = (
{
closed = 1;
nodes = (
"439 0 LINE SMOOTH",
"447 0 OFFCURVE",
"452 6 OFFCURVE",
"454 15 CURVE SMOOTH",
"474 141 LINE SMOOTH",
"475 149 OFFCURVE",
"469 155 OFFCURVE",
"461 155 CURVE SMOOTH",
"219 155 LINE",
"236 256 LINE",
"457 256 LINE SMOOTH",
"465 256 OFFCURVE",
"471 262 OFFCURVE",
"472 270 CURVE SMOOTH",
"490 387 LINE SMOOTH",
"492 397 OFFCURVE",
"486 402 OFFCURVE",
"477 402 CURVE SMOOTH",
"259 402 LINE",
"274 500 LINE",
"518 500 LINE SMOOTH",
"526 500 OFFCURVE",
"532 507 OFFCURVE",
"533 515 CURVE SMOOTH",
"553 640 LINE SMOOTH",
"555 650 OFFCURVE",
"549 655 OFFCURVE",
"540 655 CURVE SMOOTH",
"137 655 LINE SMOOTH",
"128 655 OFFCURVE",
"122 649 OFFCURVE",
"121 640 CURVE SMOOTH",
"22 15 LINE SMOOTH",
"20 6 OFFCURVE",
"25 0 OFFCURVE",
"34 0 CURVE SMOOTH"
);
}
);
width = 519;
}
);
leftKerningGroup = H;
leftMetricsKey = H;
rightKerningGroup = E;
unicode = 0045;
},
{
glyphname = F;
lastChange = "2022-11-08 21:16:02 +0000";
layers = (
{
layerId = "4C6D0269-BFF7-43F1-9175-E88494BCD883";
paths = (
{
closed = 1;
nodes = (
"79 0 LINE SMOOTH",
"83 0 OFFCURVE",
"83 1 OFFCURVE",
"84 5 CURVE SMOOTH",
"134 320 LINE",
"408 320 LINE SMOOTH",
"411 320 OFFCURVE",
"412 320 OFFCURVE",
"413 323 CURVE SMOOTH",
"415 332 LINE SMOOTH",
"416 336 OFFCURVE",
"414 336 OFFCURVE",
"412 336 CURVE SMOOTH",
"137 336 LINE",
"185 639 LINE",
"489 639 LINE SMOOTH",
"492 639 OFFCURVE",
"493 639 OFFCURVE",
"494 642 CURVE SMOOTH",
"496 651 LINE SMOOTH",
"497 655 OFFCURVE",
"495 655 OFFCURVE",
"493 655 CURVE SMOOTH",
"176 655 LINE SMOOTH",
"173 655 OFFCURVE",
"172 655 OFFCURVE",
"171 651 CURVE SMOOTH",
"68 4 LINE SMOOTH",
"67 0 OFFCURVE",
"70 0 OFFCURVE",
"72 0 CURVE SMOOTH"
);
}
);
width = 475;
},
{
layerId = "7C569905-1C91-4856-B9FC-2D0B6400E3AF";
paths = (
{
closed = 1;
nodes = (
"118 0 LINE SMOOTH",
"124 0 OFFCURVE",
"127 4 OFFCURVE",
"128 10 CURVE SMOOTH",
"174 296 LINE",
"406 296 LINE SMOOTH",
"412 296 OFFCURVE",
"415 299 OFFCURVE",
"415 305 CURVE SMOOTH",
"424 356 LINE SMOOTH",
"425 362 OFFCURVE",
"422 365 OFFCURVE",
"416 365 CURVE SMOOTH",
"185 365 LINE",
"219 583 LINE",
"486 583 LINE SMOOTH",
"492 583 OFFCURVE",
"495 587 OFFCURVE",
"496 592 CURVE SMOOTH",
"504 646 LINE SMOOTH",
"505 652 OFFCURVE",
"501 655 OFFCURVE",
"496 655 CURVE SMOOTH",
"161 655 LINE SMOOTH",
"156 655 OFFCURVE",
"153 652 OFFCURVE",
"152 646 CURVE SMOOTH",
"51 9 LINE SMOOTH",
"50 3 OFFCURVE",
"53 0 OFFCURVE",
"59 0 CURVE SMOOTH"
);
}
);
width = 475;
},
{
layerId = "68DFFD47-52F1-4BAD-AADC-5BAA93A7FBC7";
paths = (
{
closed = 1;
nodes = (
"181 0 LINE SMOOTH",
"189 0 OFFCURVE",
"196 6 OFFCURVE",
"197 15 CURVE SMOOTH",
"233 242 LINE",
"442 242 LINE SMOOTH",
"451 242 OFFCURVE",
"456 248 OFFCURVE",
"457 257 CURVE SMOOTH",
"476 378 LINE SMOOTH",
"478 389 OFFCURVE",
"472 393 OFFCURVE",
"463 393 CURVE SMOOTH",
"257 393 LINE",
"274 500 LINE",
"517 500 LINE SMOOTH",
"525 500 OFFCURVE",
"532 507 OFFCURVE",
"533 515 CURVE SMOOTH",
"553 640 LINE SMOOTH",
"555 650 OFFCURVE",
"548 655 OFFCURVE",
"539 655 CURVE SMOOTH",
"137 655 LINE SMOOTH",
"128 655 OFFCURVE",
"122 649 OFFCURVE",
"121 640 CURVE SMOOTH",
"22 15 LINE SMOOTH",
"20 6 OFFCURVE",
"25 0 OFFCURVE",
"34 0 CURVE SMOOTH"
);
}
);
width = 505;
}
);
leftKerningGroup = H;
leftMetricsKey = H;
rightKerningGroup = F;
unicode = 0046;
},
{
glyphname = G;
lastChange = "2022-11-08 21:16:02 +0000";
layers = (
{
anchors = (
{
name = bottom;
position = "{269, 0}";
},
{
name = top;
position = "{374, 655}";
},
{
name = topleft;
position = "{142, 655}";
}
);
layerId = "4C6D0269-BFF7-43F1-9175-E88494BCD883";
paths = (
{
closed = 1;
nodes = (
"391 -11 OFFCURVE",
"450 57 OFFCURVE",
"483 136 CURVE",
"484 136 LINE",
"477 92 OFFCURVE",
"472 44 OFFCURVE",
"469 5 CURVE SMOOTH",
"469 1 OFFCURVE",
"470 0 OFFCURVE",
"473 0 CURVE SMOOTH",
"481 0 LINE SMOOTH",
"484 0 OFFCURVE",
"485 2 OFFCURVE",
"485 5 CURVE SMOOTH",
"487 47 OFFCURVE",
"491 88 OFFCURVE",
"499 140 CURVE SMOOTH",
"526 312 LINE SMOOTH",
"527 316 OFFCURVE",
"525 317 OFFCURVE",
"522 317 CURVE SMOOTH",
"338 317 LINE SMOOTH",
"335 317 OFFCURVE",
"334 317 OFFCURVE",
"333 314 CURVE SMOOTH",
"331 305 LINE SMOOTH",
"330 301 OFFCURVE",
"332 301 OFFCURVE",
"334 301 CURVE SMOOTH",
"509 301 LINE",
"500 248 LINE SMOOTH",
"472 81 OFFCURVE",
"392 5 OFFCURVE",
"262 5 CURVE SMOOTH",
"147 5 OFFCURVE",
"81 81 OFFCURVE",
"103 215 CURVE SMOOTH",
"143 473 LINE SMOOTH",
"163 598 OFFCURVE",
"226 650 OFFCURVE",
"352 650 CURVE SMOOTH",
"480 650 OFFCURVE",
"551 584 OFFCURVE",
"535 471 CURVE SMOOTH",
"534 467 OFFCURVE",
"535 466 OFFCURVE",
"538 466 CURVE SMOOTH",
"546 466 LINE SMOOTH",
"549 466 OFFCURVE",
"550 466 OFFCURVE",
"551 470 CURVE SMOOTH",
"569 591 OFFCURVE",
"492 666 OFFCURVE",
"353 666 CURVE SMOOTH",
"218 666 OFFCURVE",
"149 610 OFFCURVE",
"127 474 CURVE SMOOTH",
"87 214 LINE SMOOTH",
"64 72 OFFCURVE",
"138 -11 OFFCURVE",
"261 -11 CURVE SMOOTH"
);
}
);
width = 600;
},
{
anchors = (
{
name = bottom;
position = "{272, 0}";
},
{
name = top;
position = "{375, 655}";
},
{
name = topleft;
position = "{143, 655}";
}
);
layerId = "7C569905-1C91-4856-B9FC-2D0B6400E3AF";
paths = (
{
closed = 1;
nodes = (
"346 -11 OFFCURVE",
"404 24 OFFCURVE",
"445 81 CURVE",
"446 81 LINE",
"443 56 OFFCURVE",
"441 28 OFFCURVE",
"441 10 CURVE SMOOTH",
"441 3 OFFCURVE",
"443 0 OFFCURVE",
"450 0 CURVE SMOOTH",
"498 0 LINE SMOOTH",
"504 0 OFFCURVE",
"507 3 OFFCURVE",
"507 10 CURVE SMOOTH",
"508 46 OFFCURVE",
"512 84 OFFCURVE",
"520 132 CURVE SMOOTH",
"550 323 LINE SMOOTH",
"551 329 OFFCURVE",
"547 333 OFFCURVE",
"541 333 CURVE SMOOTH",
"334 333 LINE SMOOTH",
"329 333 OFFCURVE",
"326 329 OFFCURVE",
"325 323 CURVE SMOOTH",
"316 275 LINE SMOOTH",
"315 268 OFFCURVE",
"319 265 OFFCURVE",
"325 265 CURVE SMOOTH",
"468 265 LINE",
"462 223 LINE SMOOTH",
"445 117 OFFCURVE",
"383 60 OFFCURVE",
"278 60 CURVE SMOOTH",
"181 60 OFFCURVE",
"135 116 OFFCURVE",
"152 226 CURVE SMOOTH",
"186 445 LINE SMOOTH",
"202 549 OFFCURVE",
"254 595 OFFCURVE",
"357 595 CURVE SMOOTH",
"458 595 OFFCURVE",
"507 546 OFFCURVE",
"491 454 CURVE SMOOTH",
"490 448 OFFCURVE",
"493 445 OFFCURVE",
"500 445 CURVE SMOOTH",
"558 445 LINE SMOOTH",
"563 445 OFFCURVE",
"567 447 OFFCURVE",
"567.995 453.993 CURVE SMOOTH",
"594 583 OFFCURVE",
"513 666 OFFCURVE",
"365 666 CURVE SMOOTH",
"212 666 OFFCURVE",
"131 590 OFFCURVE",
"109 445 CURVE SMOOTH",
"75 223 LINE SMOOTH",
"52 75 OFFCURVE",
"126 -11 OFFCURVE",
"258 -11 CURVE SMOOTH"
);
}
);
width = 608;
},
{
anchors = (
{
name = bottom;
position = "{284, 0}";
},
{
name = top;
position = "{389, 655}";
},
{
name = topleft;
position = "{143, 655}";
}
);
layerId = "68DFFD47-52F1-4BAD-AADC-5BAA93A7FBC7";
paths = (
{
closed = 1;
nodes = (
"325 -11 OFFCURVE",
"376 14 OFFCURVE",
"418 75 CURVE",
"420 75 LINE",
"417 55 OFFCURVE",
"415 29 OFFCURVE",
"416 15 CURVE SMOOTH",
"416 6 OFFCURVE",
"421 0 OFFCURVE",
"430 0 CURVE SMOOTH",
"546 0 LINE SMOOTH",
"556 0 OFFCURVE",
"561 6 OFFCURVE",
"561 15 CURVE SMOOTH",
"560 49 OFFCURVE",
"565 104 OFFCURVE",
"577 181 CURVE SMOOTH",
"603 342 LINE SMOOTH",
"604 350 OFFCURVE",
"599 356 OFFCURVE",
"589 356 CURVE SMOOTH",
"345 356 LINE SMOOTH",
"336 356 OFFCURVE",
"331 351 OFFCURVE",
"329 342 CURVE SMOOTH",
"315 255 LINE SMOOTH",
"314 246 OFFCURVE",
"319 240 OFFCURVE",
"329 240 CURVE SMOOTH",
"419 240 LINE",
"416 223 LINE SMOOTH",
"405 171 OFFCURVE",
"370 146 OFFCURVE",
"311 146 CURVE SMOOTH",
"242 146 OFFCURVE",
"211 180 OFFCURVE",
"225 268 CURVE SMOOTH",
"246 401 LINE SMOOTH",
"258 477 OFFCURVE",
"292 511 OFFCURVE",
"355 511 CURVE SMOOTH",
"415 511 OFFCURVE",
"449 485 OFFCURVE",
"443 442 CURVE SMOOTH",
"442 433 OFFCURVE",
"447 428 OFFCURVE",
"457 428 CURVE SMOOTH",
"603 427 LINE SMOOTH",
"612 427 OFFCURVE",
"617 432 OFFCURVE",
"618 441 CURVE SMOOTH",
"641 582 OFFCURVE",
"549 666 OFFCURVE",
"370 666 CURVE SMOOTH",
"195 666 OFFCURVE",
"101 589 OFFCURVE",
"73 417 CURVE SMOOTH",
"49 265 LINE SMOOTH",
"22 100 OFFCURVE",
"102 -11 OFFCURVE",
"246 -11 CURVE SMOOTH"
);
}
);
width = 630;
}
);
leftKerningGroup = O;
leftMetricsKey = O;
rightKerningGroup = G;
unicode = 0047;
},
{
glyphname = H;
lastChange = "2022-11-08 21:16:02 +0000";
layers = (
{
layerId = "4C6D0269-BFF7-43F1-9175-E88494BCD883";
paths = (
{
closed = 1;
nodes = (
"79 0 LINE SMOOTH",
"82 0 OFFCURVE",
"83 0 OFFCURVE",
"84 5 CURVE SMOOTH",
"136 331 LINE",
"518 331 LINE",
"466 5 LINE SMOOTH",
"465 0 OFFCURVE",
"467 0 OFFCURVE",
"470 0 CURVE SMOOTH",
"477 0 LINE SMOOTH",
"480 0 OFFCURVE",
"481 0 OFFCURVE",
"482 5 CURVE SMOOTH",
"585 651 LINE SMOOTH",
"586 655 OFFCURVE",
"584 655 OFFCURVE",
"581 655 CURVE SMOOTH",
"574 655 LINE SMOOTH",
"571 655 OFFCURVE",
"570 655 OFFCURVE",
"569 651 CURVE SMOOTH",
"521 347 LINE",
"139 347 LINE",
"187 651 LINE SMOOTH",
"188 655 OFFCURVE",
"186 655 OFFCURVE",
"183 655 CURVE SMOOTH",
"176 655 LINE SMOOTH",
"173 655 OFFCURVE",
"172 655 OFFCURVE",
"171 651 CURVE SMOOTH",
"68 5 LINE SMOOTH",
"67 0 OFFCURVE",
"69 0 OFFCURVE",
"72 0 CURVE SMOOTH"
);
}
);
width = 608;
},
{
layerId = "7C569905-1C91-4856-B9FC-2D0B6400E3AF";
paths = (
{
closed = 1;
nodes = (
"119 0 LINE SMOOTH",
"124 0 OFFCURVE",
"127 4 OFFCURVE",
"128 10 CURVE SMOOTH",
"175 303 LINE",
"476 303 LINE",
"430 10 LINE SMOOTH",
"428 3 OFFCURVE",
"432 0 OFFCURVE",
"438 0 CURVE SMOOTH",
"497 0 LINE SMOOTH",
"503 0 OFFCURVE",
"506 4 OFFCURVE",
"507 10 CURVE SMOOTH",
"608 646 LINE SMOOTH",
"609 652 OFFCURVE",
"605 655 OFFCURVE",
"600 655 CURVE SMOOTH",
"541 655 LINE SMOOTH",
"535 655 OFFCURVE",
"532 652 OFFCURVE",
"531 646 CURVE SMOOTH",
"487 373 LINE",
"186 373 LINE",
"229 646 LINE SMOOTH",
"230 652 OFFCURVE",
"226 655 OFFCURVE",
"221 655 CURVE SMOOTH",
"162 655 LINE SMOOTH",
"156 655 OFFCURVE",
"153 652 OFFCURVE",
"152 646 CURVE SMOOTH",
"51 10 LINE SMOOTH",
"50 3 OFFCURVE",
"54 0 OFFCURVE",
"60 0 CURVE SMOOTH"
);
}
);
width = 615;
},
{
layerId = "68DFFD47-52F1-4BAD-AADC-5BAA93A7FBC7";
paths = (
{
closed = 1;
nodes = (
"181 0 LINE SMOOTH",
"190 0 OFFCURVE",
"195 6 OFFCURVE",
"196 15 CURVE SMOOTH",
"234 250 LINE",
"425 250 LINE",
"387 15 LINE SMOOTH",
"386 6 OFFCURVE",
"391 0 OFFCURVE",
"401 0 CURVE SMOOTH",
"546 0 LINE SMOOTH",
"555 0 OFFCURVE",
"561 6 OFFCURVE",
"562 15 CURVE SMOOTH",
"661 640 LINE SMOOTH",
"662 649 OFFCURVE",
"657 655 OFFCURVE",
"647 655 CURVE SMOOTH",
"502 655 LINE SMOOTH",
"493 655 OFFCURVE",
"488 649 OFFCURVE",
"487 640 CURVE SMOOTH",
"449 405 LINE",
"258 405 LINE",
"295 640 LINE SMOOTH",
"296 649 OFFCURVE",
"291 655 OFFCURVE",
"282 655 CURVE SMOOTH",
"136 655 LINE SMOOTH",
"127 655 OFFCURVE",
"122 649 OFFCURVE",
"121 640 CURVE SMOOTH",
"22 15 LINE SMOOTH",
"20 6 OFFCURVE",
"26 0 OFFCURVE",
"35 0 CURVE SMOOTH"
);
}
);
width = 638;
}
);
leftKerningGroup = H;
rightKerningGroup = H;
unicode = 0048;
},
{
glyphname = Hbar;
lastChange = "2022-11-08 21:16:02 +0000";
layers = (
{
components = (
{
alignment = -1;
name = H;
}
);
layerId = "4C6D0269-BFF7-43F1-9175-E88494BCD883";
paths = (
{
closed = 1;
nodes = (
"157 545 LINE",
"565 545 LINE",
"652 545 LINE SMOOTH",
"654 545 OFFCURVE",
"655 545 OFFCURVE",
"656 548 CURVE SMOOTH",
"658 557 LINE SMOOTH",
"659 561 OFFCURVE",
"658 561 OFFCURVE",
"655 561 CURVE SMOOTH",
"72 561 LINE SMOOTH",
"70 561 OFFCURVE",
"69 561 OFFCURVE",
"68 558 CURVE SMOOTH",
"66 549 LINE SMOOTH",
"65 545 OFFCURVE",
"67 545 OFFCURVE",
"69 545 CURVE SMOOTH"
);
}
);
width = 608;
},
{
components = (
{
alignment = -1;
name = H;
}
);
layerId = "7C569905-1C91-4856-B9FC-2D0B6400E3AF";
paths = (
{
closed = 1;
nodes = (
"135 519 LINE",
"584 519 LINE",
"636 519 LINE SMOOTH",
"642 519 OFFCURVE",
"646 522 OFFCURVE",
"647 528 CURVE SMOOTH",
"655 573 LINE SMOOTH",
"656 580 OFFCURVE",
"652 583 OFFCURVE",
"646 583 CURVE SMOOTH",
"94 583 LINE SMOOTH",
"88 583 OFFCURVE",
"84 580 OFFCURVE",
"83 574 CURVE SMOOTH",
"75 528 LINE SMOOTH",
"74 522 OFFCURVE",
"77 519 OFFCURVE",
"83 519 CURVE SMOOTH"
);
}
);
width = 615;
},
{
components = (
{
alignment = -1;
name = H;
}
);
layerId = "68DFFD47-52F1-4BAD-AADC-5BAA93A7FBC7";
paths = (
{
closed = 1;
nodes = (
"99 484 LINE",
"634 484 LINE",
"675 484 LINE SMOOTH",
"683 484 OFFCURVE",
"688 490 OFFCURVE",
"690 499 CURVE SMOOTH",
"703 579 LINE SMOOTH",
"704 588 OFFCURVE",
"698 594 OFFCURVE",
"689 594 CURVE SMOOTH",
"75 594 LINE SMOOTH",
"67 594 OFFCURVE",
"61 588 OFFCURVE",
"60 579 CURVE SMOOTH",
"46 499 LINE SMOOTH",
"45 490 OFFCURVE",
"51 484 OFFCURVE",
"60 484 CURVE SMOOTH"
);
}
);
width = 637;
}
);
leftKerningGroup = H;
rightKerningGroup = H;
unicode = 0126;
},
{
glyphname = I;
lastChange = "2022-11-08 21:16:38 +0000";
layers = (
{
anchors = (
{
name = bottom;
position = "{75, 0}";
},
{
name = ogonek;
position = "{90, 10}";
},
{
name = top;
position = "{179, 655}";
},
{
name = topleft;
position = "{114, 655}";
}
);
layerId = "4C6D0269-BFF7-43F1-9175-E88494BCD883";
paths = (
{
closed = 1;
nodes = (
"79 0 LINE SMOOTH",
"82 0 OFFCURVE",
"83 0 OFFCURVE",
"84 5 CURVE SMOOTH",
"187 651 LINE SMOOTH",
"188 655 OFFCURVE",
"186 655 OFFCURVE",
"183 655 CURVE SMOOTH",
"176 655 LINE SMOOTH",
"173 655 OFFCURVE",
"172 655 OFFCURVE",
"171 651 CURVE SMOOTH",
"68 5 LINE SMOOTH",
"67 0 OFFCURVE",
"69 0 OFFCURVE",
"72 0 CURVE SMOOTH"
);
}
);
width = 210;
},
{
anchors = (
{
name = bottom;
position = "{82, 0}";
},
{
name = ogonek;
position = "{136, 10}";
},
{
name = top;
position = "{193, 655}";
},
{
name = topleft;
position = "{96, 655}";
}
);
layerId = "7C569905-1C91-4856-B9FC-2D0B6400E3AF";
paths = (
{
closed = 1;
nodes = (
"119 0 LINE SMOOTH",
"124 0 OFFCURVE",
"127 4 OFFCURVE",
"128 10 CURVE SMOOTH",
"230 646 LINE SMOOTH",
"231 652 OFFCURVE",
"227 655 OFFCURVE",
"221 655 CURVE SMOOTH",
"162 655 LINE SMOOTH",
"156 655 OFFCURVE",
"153 652 OFFCURVE",
"152 646 CURVE SMOOTH",
"51 10 LINE SMOOTH",
"50 3 OFFCURVE",
"53 0 OFFCURVE",
"60 0 CURVE SMOOTH"
);
}
);
width = 237;
},
{
anchors = (
{
name = bottom;
position = "{107, 0}";
},
{
name = ogonek;
position = "{199, 10}";
},
{
name = top;
position = "{212, 655}";
},
{
name = topleft;
position = "{94, 655}";
}
);
layerId = "68DFFD47-52F1-4BAD-AADC-5BAA93A7FBC7";
paths = (
{
closed = 1;
nodes = (
"181 0 LINE SMOOTH",
"190 0 OFFCURVE",
"195 6 OFFCURVE",
"196 15 CURVE SMOOTH",
"295 640 LINE SMOOTH",
"296 649 OFFCURVE",
"291 655 OFFCURVE",
"282 655 CURVE SMOOTH",
"136 655 LINE SMOOTH",
"127 655 OFFCURVE",
"122 649 OFFCURVE",
"121 640 CURVE SMOOTH",
"22 15 LINE SMOOTH",
"20 6 OFFCURVE",
"26 0 OFFCURVE",
"35 0 CURVE SMOOTH"
);
}
);
width = 272;
}
);
leftKerningGroup = H;
leftMetricsKey = H;
rightKerningGroup = H;
rightMetricsKey = H;
unicode = 0049;
},
{
glyphname = J;
lastChange = "2022-11-08 21:16:38 +0000";
layers = (
{
anchors = (
{
name = bottom;
position = "{75, 0}";
},
{
name = top;
position = "{179, 655}";
}
);
layerId = "4C6D0269-BFF7-43F1-9175-E88494BCD883";
paths = (
{
closed = 1;
nodes = (
"41 -121 OFFCURVE",
"73 -64 OFFCURVE",
"94 67 CURVE SMOOTH",
"187 651 LINE SMOOTH",
"188 655 OFFCURVE",
"186 655 OFFCURVE",
"183 655 CURVE SMOOTH",
"176 655 LINE SMOOTH",
"173 655 OFFCURVE",
"172 655 OFFCURVE",
"171 651 CURVE SMOOTH",
"78 67 LINE SMOOTH",
"58 -57 OFFCURVE",
"25 -108 OFFCURVE",
"-44 -125 CURVE SMOOTH",
"-48 -126 OFFCURVE",
"-49 -127 OFFCURVE",
"-48 -131 CURVE SMOOTH",
"-46 -136 LINE SMOOTH",
"-45 -140 OFFCURVE",
"-45 -141 OFFCURVE",
"-41 -140 CURVE SMOOTH"
);
}
);
width = 210;
},
{
anchors = (
{
name = bottom;
position = "{86, 0}";
},
{
name = top;
position = "{197, 655}";
}
);
layerId = "7C569905-1C91-4856-B9FC-2D0B6400E3AF";
paths = (
{
closed = 1;
nodes = (
"73 -123 OFFCURVE",
"125 -56 OFFCURVE",
"146 74 CURVE SMOOTH",
"237 645 LINE SMOOTH",
"238 652 OFFCURVE",
"234 655 OFFCURVE",
"228 655 CURVE SMOOTH",
"170 655 LINE SMOOTH",
"164.005 655 OFFCURVE",
"160 651 OFFCURVE",
"159 646 CURVE SMOOTH",
"67 71 LINE SMOOTH",
"54 -12 OFFCURVE",
"18 -58 OFFCURVE",
"-40 -71 CURVE SMOOTH",
"-48 -73 OFFCURVE",
"-49 -76 OFFCURVE",
"-48 -83 CURVE SMOOTH",
"-41 -136 LINE SMOOTH",
"-40 -143 OFFCURVE",
"-37 -144 OFFCURVE",
"-29 -142 CURVE SMOOTH"
);
}
);
width = 244;
},
{
anchors = (
{
name = bottom;
position = "{117, 0}";
},
{
name = top;
position = "{221, 655}";
}
);
layerId = "68DFFD47-52F1-4BAD-AADC-5BAA93A7FBC7";
paths = (
{
closed = 1;
nodes = (
"123 -155 OFFCURVE",
"192 -68 OFFCURVE",
"222 119 CURVE SMOOTH",
"305 640 LINE SMOOTH",
"306 649 OFFCURVE",
"301 655 OFFCURVE",
"291 655 CURVE SMOOTH",
"145 655 LINE SMOOTH",
"136 655 OFFCURVE",
"131 649 OFFCURVE",
"130 640 CURVE SMOOTH",
"44 106 LINE SMOOTH",
"30 20 OFFCURVE",
"4 -15 OFFCURVE",
"-43 -24 CURVE SMOOTH",
"-52 -26 OFFCURVE",
"-56 -32 OFFCURVE",
"-55 -41 CURVE SMOOTH",
"-38 -160 LINE SMOOTH",
"-37 -169 OFFCURVE",
"-31 -173 OFFCURVE",
"-21 -172 CURVE SMOOTH"
);
}
);
width = 282;
}
);
leftKerningGroup = J;
rightKerningGroup = J;
rightMetricsKey = H;
unicode = 004A;
},
{
glyphname = K;
lastChange = "2022-11-08 21:16:02 +0000";
layers = (
{
anchors = (
{
name = bottom;
position = "{239, 0}";
},
{
name = top;
position = "{337, 655}";
}
);
layerId = "4C6D0269-BFF7-43F1-9175-E88494BCD883";
paths = (
{
closed = 1;
nodes = (
"79 0 LINE SMOOTH",
"82 0 OFFCURVE",
"83 0 OFFCURVE",
"84 5 CURVE SMOOTH",
"117 211 LINE",
"273 368 LINE",
"457 3 LINE SMOOTH",
"458 0 OFFCURVE",
"459 0 OFFCURVE",
"461 0 CURVE SMOOTH",
"471 0 LINE SMOOTH",
"474 0 OFFCURVE",
"474 2 OFFCURVE",
"473 4 CURVE SMOOTH",
"285 382 LINE",
"552 651 LINE SMOOTH",
"554 653 OFFCURVE",
"554 655 OFFCURVE",
"551 655 CURVE SMOOTH",
"537 655 LINE SMOOTH",
"535 655 OFFCURVE",
"534 655 OFFCURVE",
"532 653 CURVE SMOOTH",
"264 380 LINE SMOOTH",
"216 332 OFFCURVE",
"170 285 OFFCURVE",
"122 237 CURVE",
"121 237 LINE",
"131 294 OFFCURVE",
"139 347 OFFCURVE",
"148 402 CURVE SMOOTH",
"187 651 LINE SMOOTH",
"188 655 OFFCURVE",
"186 655 OFFCURVE",
"183 655 CURVE SMOOTH",
"176 655 LINE SMOOTH",
"173 655 OFFCURVE",
"172 655 OFFCURVE",
"171 651 CURVE SMOOTH",
"68 5 LINE SMOOTH",
"67 0 OFFCURVE",
"69 0 OFFCURVE",
"72 0 CURVE SMOOTH"
);
}
);
width = 523;
},
{
anchors = (
{
name = bottom;
position = "{255, 0}";
},
{
name = top;
position = "{355, 655}";
}
);
layerId = "7C569905-1C91-4856-B9FC-2D0B6400E3AF";
paths = (
{
closed = 1;
nodes = (
"118 0 LINE SMOOTH",
"124 0 OFFCURVE",
"127 4 OFFCURVE",
"128 10 CURVE SMOOTH",
"161 215 LINE",
"274 326 LINE",
"420 9 LINE SMOOTH",
"423 3 OFFCURVE",
"426 0 OFFCURVE",
"432 0 CURVE SMOOTH",
"502 0 LINE SMOOTH",
"508 0 OFFCURVE",
"511 5 OFFCURVE",
"508 10 CURVE SMOOTH",
"335 385 LINE",
"591 644 LINE SMOOTH",
"596 649 OFFCURVE",
"594 655 OFFCURVE",
"588 655 CURVE SMOOTH",
"510 655 LINE SMOOTH",
"504 655 OFFCURVE",
"500 653 OFFCURVE",
"496 648 CURVE SMOOTH",
"301 451 LINE SMOOTH",
"260 408 OFFCURVE",
"218 365 OFFCURVE",
"178 322 CURVE",
"177 322 LINE",
"185 369 OFFCURVE",
"193 414 OFFCURVE",
"200 461 CURVE SMOOTH",
"230 646 LINE SMOOTH",
"231 652 OFFCURVE",
"227 655 OFFCURVE",
"221 655 CURVE SMOOTH",
"162 655 LINE SMOOTH",
"156 655 OFFCURVE",
"153 652 OFFCURVE",
"152 646 CURVE SMOOTH",
"51 10 LINE SMOOTH",
"50 3 OFFCURVE",
"53 0 OFFCURVE",
"60 0 CURVE SMOOTH"
);
}
);
width = 552;
},
{
anchors = (
{
name = bottom;
position = "{276, 0}";
},
{
name = top;
position = "{381, 655}";
}
);
layerId = "68DFFD47-52F1-4BAD-AADC-5BAA93A7FBC7";
paths = (
{
closed = 1;
nodes = (
"181 0 LINE SMOOTH",
"190 0 OFFCURVE",
"195 6 OFFCURVE",
"196 15 CURVE SMOOTH",
"222 177 LINE",
"296 253 LINE",
"381 15 LINE SMOOTH",
"384 5 OFFCURVE",
"388 0 OFFCURVE",
"398 0 CURVE SMOOTH",
"566 0 LINE SMOOTH",
"576 0 OFFCURVE",
"582 7 OFFCURVE",
"579 15 CURVE SMOOTH",
"435 382 LINE",
"653 637 LINE SMOOTH",
"662 647 OFFCURVE",
"658 655 OFFCURVE",
"647 655 CURVE SMOOTH",
"473 655 LINE SMOOTH",
"465 655 OFFCURVE",
"459 652 OFFCURVE",
"454 645 CURVE SMOOTH",
"344 514 LINE SMOOTH",
"314 478 OFFCURVE",
"281 430 OFFCURVE",
"254 389 CURVE",
"251 389 LINE",
"262 431 OFFCURVE",
"268 471 OFFCURVE",
"275 513 CURVE SMOOTH",
"295 640 LINE SMOOTH",
"296 649 OFFCURVE",
"291 655 OFFCURVE",
"282 655 CURVE SMOOTH",
"136 655 LINE SMOOTH",
"127 655 OFFCURVE",
"122 649 OFFCURVE",
"121 640 CURVE SMOOTH",
"22 15 LINE SMOOTH",
"20 6 OFFCURVE",
"26 0 OFFCURVE",
"35 0 CURVE SMOOTH"
);
}
);
width = 612;
}
);
leftKerningGroup = H;
leftMetricsKey = H;
rightKerningGroup = K;
unicode = 004B;
},
{
glyphname = L;
lastChange = "2022-11-08 21:16:02 +0000";
layers = (
{
anchors = (
{
name = bottom;
position = "{230, 0}";
},
{
name = center;
position = "{270, 328}";
},
{
name = top;
position = "{179, 655}";
},
{
name = topright;
position = "{522, 655}";
}
);
layerId = "4C6D0269-BFF7-43F1-9175-E88494BCD883";
paths = (
{
closed = 1;
nodes = (
"383 0 LINE SMOOTH",
"386 0 OFFCURVE",
"387 0 OFFCURVE",
"388 3 CURVE SMOOTH",
"390 12 LINE SMOOTH",
"391 16 OFFCURVE",
"389 16 OFFCURVE",
"387 16 CURVE SMOOTH",
"86 16 LINE",
"187 651 LINE SMOOTH",
"188 655 OFFCURVE",
"186 655 OFFCURVE",
"183 655 CURVE SMOOTH",
"176 655 LINE SMOOTH",
"173 655 OFFCURVE",
"172 655 OFFCURVE",
"171 651 CURVE SMOOTH",
"68 4 LINE SMOOTH",
"67 0 OFFCURVE",
"69 0 OFFCURVE",
"72 0 CURVE SMOOTH"
);
}
);
width = 444;
},
{
anchors = (
{
name = bottom;
position = "{223, 0}";
},
{
name = center;
position = "{263, 330}";
},
{
name = top;
position = "{191, 655}";
},
{
name = topright;
position = "{491, 655}";
}
);
layerId = "7C569905-1C91-4856-B9FC-2D0B6400E3AF";
paths = (
{
closed = 1;
nodes = (
"386 0 LINE SMOOTH",
"393 0 OFFCURVE",
"396 4 OFFCURVE",
"397 9 CURVE SMOOTH",
"405 62 LINE SMOOTH",
"406 69 OFFCURVE",
"403 72 OFFCURVE",
"397 72 CURVE SMOOTH",
"139 72 LINE",
"230 646 LINE SMOOTH",
"231 652 OFFCURVE",
"227 655 OFFCURVE",
"221 655 CURVE SMOOTH",
"162 655 LINE SMOOTH",
"156 655 OFFCURVE",
"153 652 OFFCURVE",
"152 646 CURVE SMOOTH",
"51 9 LINE SMOOTH",
"50 3 OFFCURVE",
"54 0 OFFCURVE",
"60 0 CURVE SMOOTH"
);
}
);
width = 445;
},
{
anchors = (
{
name = bottom;
position = "{227, 0}";
},
{
name = center;
position = "{283, 328}";
},
{
name = top;
position = "{212, 655}";
},
{
name = topright;
position = "{546, 655}";
}
);
layerId = "68DFFD47-52F1-4BAD-AADC-5BAA93A7FBC7";
paths = (
{
closed = 1;
nodes = (
"421 0 LINE SMOOTH",
"429 0 OFFCURVE",
"434 6 OFFCURVE",
"435 15 CURVE SMOOTH",
"455 141 LINE SMOOTH",
"456 149 OFFCURVE",
"450 155 OFFCURVE",
"442 155 CURVE SMOOTH",
"218 155 LINE",
"295 640 LINE SMOOTH",
"296 649 OFFCURVE",
"291 655 OFFCURVE",
"282 655 CURVE SMOOTH",
"136 655 LINE SMOOTH",
"128 655 OFFCURVE",
"122 649 OFFCURVE",
"121 640 CURVE SMOOTH",
"22 15 LINE SMOOTH",
"20 6 OFFCURVE",
"25 0 OFFCURVE",
"34 0 CURVE SMOOTH"
);
}
);
width = 476;
}
);
leftKerningGroup = H;
leftMetricsKey = H;
rightKerningGroup = L;
unicode = 004C;
},
{
glyphname = Lslash;
lastChange = "2022-11-08 21:16:02 +0000";
layers = (
{
components = (
{
alignment = -1;
name = L;
}
);
layerId = "4C6D0269-BFF7-43F1-9175-E88494BCD883";
paths = (
{
closed = 1;
nodes = (
"307 403 LINE SMOOTH",
"310 405 OFFCURVE",
"310 405 OFFCURVE",
"311 409 CURVE SMOOTH",
"313 418 LINE SMOOTH",
"314 422 OFFCURVE",
"312 422 OFFCURVE",
"309 421 CURVE SMOOTH",
"21 297 LINE SMOOTH",
"18 296 OFFCURVE",
"18 296 OFFCURVE",
"17 292 CURVE SMOOTH",
"15 282 LINE SMOOTH",
"14 278 OFFCURVE",
"16 278 OFFCURVE",
"18 279 CURVE SMOOTH"
);
}
);
width = 444;
},
{
components = (
{
alignment = -1;
name = L;
}
);
layerId = "7C569905-1C91-4856-B9FC-2D0B6400E3AF";
paths = (
{
closed = 1;
nodes = (
"315 391 LINE SMOOTH",
"321 393 OFFCURVE",
"324 397 OFFCURVE",
"325 403 CURVE SMOOTH",
"333 453 LINE SMOOTH",
"334 460 OFFCURVE",
"330 463 OFFCURVE",
"324 461 CURVE SMOOTH",
"23 338 LINE SMOOTH",
"18 336 OFFCURVE",
"15 332 OFFCURVE",
"14 326 CURVE SMOOTH",
"7 275 LINE SMOOTH",
"5 268 OFFCURVE",
"9 265 OFFCURVE",
"16 268 CURVE SMOOTH"
);
}
);
width = 445;
},
{
components = (
{
alignment = -1;
name = L;
transform = "{1, 0, 0, 1, 1, 0}";
}
);
layerId = "68DFFD47-52F1-4BAD-AADC-5BAA93A7FBC7";
paths = (
{
closed = 1;
nodes = (
"347 331 LINE SMOOTH",
"356 333 OFFCURVE",
"361 339 OFFCURVE",
"363 348 CURVE SMOOTH",
"379 450 LINE SMOOTH",
"380 460 OFFCURVE",
"374 465 OFFCURVE",
"365 462 CURVE SMOOTH",
"40 367 LINE SMOOTH",
"32 365 OFFCURVE",
"26 360 OFFCURVE",
"25 351 CURVE SMOOTH",
"9 250 LINE SMOOTH",
"7 240 OFFCURVE",
"13 235 OFFCURVE",
"23 238 CURVE SMOOTH"
);
}
);
width = 477;
}
);
leftKerningGroup = Lslash;
rightKerningGroup = L;
rightMetricsKey = "=L";
unicode = 0141;
},
{
glyphname = M;
lastChange = "2022-11-08 21:16:02 +0000";
layers = (
{
layerId = "4C6D0269-BFF7-43F1-9175-E88494BCD883";
paths = (
{
closed = 1;
nodes = (
"64 0 LINE SMOOTH",
"67 0 OFFCURVE",
"68 0 OFFCURVE",
"69 5 CURVE SMOOTH",
"166 532 LINE SMOOTH",
"172 566 OFFCURVE",
"178 598 OFFCURVE",
"184 633 CURVE",
"185 633 LINE",
"194 601 OFFCURVE",
"203 572 OFFCURVE",
"212 541 CURVE SMOOTH",
"343 130 LINE SMOOTH",
"343 128 OFFCURVE",
"344 128 OFFCURVE",
"345 128 CURVE SMOOTH",
"347 128 LINE SMOOTH",
"348 128 OFFCURVE",
"349 128 OFFCURVE",
"350 130 CURVE SMOOTH",
"610 540 LINE SMOOTH",
"629 571 OFFCURVE",
"647 601 OFFCURVE",
"666 633 CURVE",
"667 633 LINE",
"662 595 OFFCURVE",
"657 563 OFFCURVE",
"653 531 CURVE SMOOTH",
"583 5 LINE SMOOTH",
"582 0 OFFCURVE",
"584 0 OFFCURVE",
"587 0 CURVE SMOOTH",
"594 0 LINE SMOOTH",
"597 0 OFFCURVE",
"598 0 OFFCURVE",
"599 5 CURVE SMOOTH",
"686 650 LINE SMOOTH",
"687 655 OFFCURVE",
"685 655 OFFCURVE",
"682 655 CURVE SMOOTH",
"666 655 LINE SMOOTH",
"663 655 OFFCURVE",
"662 655 OFFCURVE",
"660 652 CURVE SMOOTH",
"350 160 LINE",
"196 651 LINE SMOOTH",
"195 655 OFFCURVE",
"194 655 OFFCURVE",
"191 655 CURVE SMOOTH",
"177 655 LINE SMOOTH",
"174 655 OFFCURVE",
"173 655 OFFCURVE",
"172 651 CURVE SMOOTH",
"53 5 LINE SMOOTH",
"52 0 OFFCURVE",
"54 0 OFFCURVE",
"57 0 CURVE SMOOTH"
);
}
);
width = 700;
},
{
layerId = "7C569905-1C91-4856-B9FC-2D0B6400E3AF";
paths = (
{
closed = 1;
nodes = (
"104 0 LINE SMOOTH",
"110 0 OFFCURVE",
"112 3 OFFCURVE",
"114 10 CURVE SMOOTH",
"188 418 LINE SMOOTH",
"196 464 OFFCURVE",
"202 511 OFFCURVE",
"207 557 CURVE",
"209 557 LINE",
"219 513 OFFCURVE",
"230 469 OFFCURVE",
"242 425 CURVE SMOOTH",
"333 96 LINE SMOOTH",
"334 92 OFFCURVE",
"337 90 OFFCURVE",
"341 90 CURVE SMOOTH",
"344 90 LINE SMOOTH",
"349 90 OFFCURVE",
"351 92 OFFCURVE",
"354 96 CURVE SMOOTH",
"550 422 LINE SMOOTH",
"577 467 OFFCURVE",
"601 511 OFFCURVE",
"626 557 CURVE",
"627 557 LINE",
"618 509 OFFCURVE",
"609 461 OFFCURVE",
"603 415 CURVE SMOOTH",
"547 10 LINE SMOOTH",
"546 3 OFFCURVE",
"550 0 OFFCURVE",
"555 0 CURVE SMOOTH",
"614 0 LINE SMOOTH",
"620 0 OFFCURVE",
"623 4 OFFCURVE",
"624 10 CURVE SMOOTH",
"711 645 LINE SMOOTH",
"712 652 OFFCURVE",
"709 655 OFFCURVE",
"702 655 CURVE SMOOTH",
"609 655 LINE SMOOTH",
"603 655 OFFCURVE",
"600 652 OFFCURVE",
"596 646 CURVE SMOOTH",
"367 248 LINE",
"261 646 LINE SMOOTH",
"260 652 OFFCURVE",
"257 655 OFFCURVE",
"251 655 CURVE SMOOTH",
"161 655 LINE SMOOTH",
"156 655 OFFCURVE",
"153 652 OFFCURVE",
"151 646 CURVE SMOOTH",
"37 10 LINE SMOOTH",
"36 3 OFFCURVE",
"40 0 OFFCURVE",
"46 0 CURVE SMOOTH"
);
}
);
width = 716;
},
{
layerId = "68DFFD47-52F1-4BAD-AADC-5BAA93A7FBC7";
paths = (
{
closed = 1;
nodes = (
"169 0 LINE SMOOTH",
"178 0 OFFCURVE",
"183 6 OFFCURVE",
"184 15 CURVE SMOOTH",
"216 197 LINE SMOOTH",
"227 261 OFFCURVE",
"235 325 OFFCURVE",
"240 383 CURVE",
"244 383 LINE",
"256 331 OFFCURVE",
"275 269 OFFCURVE",
"293 217 CURVE SMOOTH",
"344 64 LINE SMOOTH",
"347 57 OFFCURVE",
"352 55 OFFCURVE",
"359 55 CURVE SMOOTH",
"366 55 LINE SMOOTH",
"373 55 OFFCURVE",
"378 57 OFFCURVE",
"384 64 CURVE SMOOTH",
"482 217 LINE SMOOTH",
"518 269 OFFCURVE",
"555 331 OFFCURVE",
"585 383 CURVE",
"589 383 LINE",
"575 326 OFFCURVE",
"562 256 OFFCURVE",
"554 198 CURVE SMOOTH",
"528 15 LINE SMOOTH",
"527 6 OFFCURVE",
"532 0 OFFCURVE",
"542 0 CURVE SMOOTH",
"685 0 LINE SMOOTH",
"693 0 OFFCURVE",
"699 6 OFFCURVE",
"700 15 CURVE SMOOTH",
"788 640 LINE SMOOTH",
"789 649 OFFCURVE",
"784 655 OFFCURVE",
"774 655 CURVE SMOOTH",
"610 655 LINE SMOOTH",
"601 655 OFFCURVE",
"595 650 OFFCURVE",
"589 640 CURVE SMOOTH",
"401 334 LINE",
"315 640 LINE SMOOTH",
"312 649 OFFCURVE",
"308 655 OFFCURVE",
"298 655 CURVE SMOOTH",
"137 655 LINE SMOOTH",
"128 655 OFFCURVE",
"123 649 OFFCURVE",
"122 640 CURVE SMOOTH",
"10 15 LINE SMOOTH",
"9 6 OFFCURVE",
"14 0 OFFCURVE",
"24 0 CURVE SMOOTH"
);
}
);
width = 766;
}
);
leftKerningGroup = M;
rightKerningGroup = M;
unicode = 004D;
},
{
glyphname = N;
lastChange = "2022-11-08 21:16:38 +0000";
layers = (
{
anchors = (
{
name = bottom;
position = "{275, 0}";
},
{
name = top;
position = "{382, 655}";
}
);
layerId = "4C6D0269-BFF7-43F1-9175-E88494BCD883";
paths = (
{
closed = 1;
nodes = (
"79 0 LINE SMOOTH",
"82 0 OFFCURVE",
"83 0 OFFCURVE",
"84 5 CURVE",
"145 388 LINE SMOOTH",
"158 470 OFFCURVE",
"170 552 OFFCURVE",
"183 633 CURVE",
"184 633 LINE",
"220 551 OFFCURVE",
"258 468 OFFCURVE",
"294 386 CURVE SMOOTH",
"466 2 LINE SMOOTH",
"467 0 OFFCURVE",
"468 0 OFFCURVE",
"470 0 CURVE SMOOTH",
"483 0 LINE SMOOTH",
"486 0 OFFCURVE",
"487 0 OFFCURVE",
"488 4 CURVE SMOOTH",
"591 651 LINE SMOOTH",
"592 655 OFFCURVE",
"590 655 OFFCURVE",
"587 655 CURVE SMOOTH",
"580 655 LINE SMOOTH",
"577 655 OFFCURVE",
"576 655 OFFCURVE",
"575 651 CURVE SMOOTH",
"510 244 LINE SMOOTH",
"498 170 OFFCURVE",
"487 96 OFFCURVE",
"475 22 CURVE",
"474 22 LINE",
"441 96 OFFCURVE",
"408 171 OFFCURVE",
"374 246 CURVE SMOOTH",
"193 651 LINE SMOOTH",
"192 653 OFFCURVE",
"191 655 OFFCURVE",
"188 655 CURVE SMOOTH",
"176 655 LINE SMOOTH",
"173 655 OFFCURVE",
"172 655 OFFCURVE",
"171 651 CURVE SMOOTH",
"68 5 LINE SMOOTH",
"67 0 OFFCURVE",
"69 0 OFFCURVE",
"72 0 CURVE SMOOTH"
);
}
);
width = 614;
},
{
anchors = (
{
name = bottom;
position = "{274, 0}";
},
{
name = top;
position = "{376, 655}";
}
);
layerId = "7C569905-1C91-4856-B9FC-2D0B6400E3AF";
paths = (
{
closed = 1;
nodes = (
"118 0 LINE SMOOTH",
"123 0 OFFCURVE",
"126 4 OFFCURVE",
"127 10 CURVE SMOOTH",
"184 370 LINE SMOOTH",
"195 434 OFFCURVE",
"204 499 OFFCURVE",
"214 563 CURVE",
"215 563 LINE",
"234 505 OFFCURVE",
"253 443 OFFCURVE",
"273 381 CURVE SMOOTH",
"396 9 LINE SMOOTH",
"397 3 OFFCURVE",
"402 0 OFFCURVE",
"407 0 CURVE SMOOTH",
"499 0 LINE SMOOTH",
"505 0 OFFCURVE",
"508 4 OFFCURVE",
"509 9 CURVE SMOOTH",
"610 646 LINE SMOOTH",
"611 652 OFFCURVE",
"607 655 OFFCURVE",
"601 655 CURVE SMOOTH",
"543 655 LINE SMOOTH",
"538 655 OFFCURVE",
"534 652 OFFCURVE",
"533 646 CURVE SMOOTH",
"472 262 LINE SMOOTH",
"464 207 OFFCURVE",
"455 147 OFFCURVE",
"447 91 CURVE",
"446 91 LINE",
"428 146 OFFCURVE",
"412 201 OFFCURVE",
"394 256 CURVE SMOOTH",
"267 646 LINE SMOOTH",
"265 651 OFFCURVE",
"262 655 OFFCURVE",
"257 655 CURVE SMOOTH",
"162 655 LINE SMOOTH",
"156 655 OFFCURVE",
"153 652 OFFCURVE",
"152 646 CURVE SMOOTH",
"51 10 LINE SMOOTH",
"50 3 OFFCURVE",
"54 0 OFFCURVE",
"60 0 CURVE SMOOTH"
);
}
);
width = 617;
},
{
anchors = (
{
name = bottom;
position = "{291, 0}";
},
{
name = top;
position = "{395, 655}";
}
);
layerId = "68DFFD47-52F1-4BAD-AADC-5BAA93A7FBC7";
paths = (
{
closed = 1;
nodes = (
"175 0 LINE SMOOTH",
"184 0 OFFCURVE",
"189 6 OFFCURVE",
"190 15 CURVE SMOOTH",
"221 209 LINE SMOOTH",
"231 273 OFFCURVE",
"238 342 OFFCURVE",
"243 405 CURVE",
"246 405 LINE",
"260 347 OFFCURVE",
"280 259 OFFCURVE",
"308 172 CURVE SMOOTH",
"358 15 LINE SMOOTH",
"360 5 OFFCURVE",
"366 0 OFFCURVE",
"374 0 CURVE SMOOTH",
"548 0 LINE SMOOTH",
"557 0 OFFCURVE",
"563 6 OFFCURVE",
"564 15 CURVE SMOOTH",
"663 640 LINE SMOOTH",
"664 649 OFFCURVE",
"659 655 OFFCURVE",
"649 655 CURVE SMOOTH",
"509 655 LINE SMOOTH",
"500 655 OFFCURVE",
"496 649 OFFCURVE",
"495 640 CURVE SMOOTH",
"461 434 LINE SMOOTH",
"451 373 OFFCURVE",
"446 305 OFFCURVE",
"445 242 CURVE",
"441 242 LINE",
"428 299 OFFCURVE",
"410 373 OFFCURVE",
"386 443 CURVE SMOOTH",
"327 640 LINE SMOOTH",
"324 650 OFFCURVE",
"320 655 OFFCURVE",
"309 655 CURVE SMOOTH",
"136 655 LINE SMOOTH",
"127 655 OFFCURVE",
"122 649 OFFCURVE",
"121 640 CURVE SMOOTH",
"22 15 LINE SMOOTH",
"20 6 OFFCURVE",
"25 0 OFFCURVE",
"35 0 CURVE SMOOTH"
);
}
);
width = 640;
}
);
leftKerningGroup = H;
leftMetricsKey = H;
rightKerningGroup = H;
rightMetricsKey = H;
unicode = 004E;
},
{
glyphname = Eng;
lastChange = "2022-11-08 21:16:38 +0000";
layers = (
{
layerId = "4C6D0269-BFF7-43F1-9175-E88494BCD883";
paths = (
{
closed = 1;
nodes = (
"449 -112 OFFCURVE",
"477 -65 OFFCURVE",
"493 35 CURVE SMOOTH",
"591 651 LINE SMOOTH",
"592 655 OFFCURVE",
"590 655 OFFCURVE",
"587 655 CURVE SMOOTH",
"580 655 LINE SMOOTH",
"577 655 OFFCURVE",
"576 655 OFFCURVE",
"575 651 CURVE SMOOTH",
"508 227 LINE SMOOTH",
"496 159 OFFCURVE",
"486 90 OFFCURVE",
"475 22 CURVE",
"474 22 LINE",
"442 91 OFFCURVE",
"410 159 OFFCURVE",
"378 228 CURVE SMOOTH",
"193 651 LINE SMOOTH",
"192 653 OFFCURVE",
"191 655 OFFCURVE",
"188 655 CURVE SMOOTH",
"176 655 LINE SMOOTH",
"173 655 OFFCURVE",
"172 655 OFFCURVE",
"171 651 CURVE SMOOTH",
"68 5 LINE SMOOTH",
"67 0 OFFCURVE",
"69 0 OFFCURVE",
"72 0 CURVE SMOOTH",
"79 0 LINE SMOOTH",
"82 0 OFFCURVE",
"83 0 OFFCURVE",
"84 5 CURVE SMOOTH",
"148 408 LINE SMOOTH",
"160 483 OFFCURVE",
"171 558 OFFCURVE",
"183 633 CURVE",
"184 633 LINE",
"219 558 OFFCURVE",
"255 482 OFFCURVE",
"290 406 CURVE SMOOTH",
"467 2 LINE SMOOTH",
"468 0 OFFCURVE",
"468 0 OFFCURVE",
"470 0 CURVE SMOOTH",
"471 0 LINE",
"454 -69 OFFCURVE",
"424 -110 OFFCURVE",
"362 -155 CURVE SMOOTH",
"360 -156 OFFCURVE",
"360 -157 OFFCURVE",
"361 -159 CURVE SMOOTH",
"366 -168 LINE SMOOTH",
"367 -170 OFFCURVE",
"369 -170 OFFCURVE",
"371 -168 CURVE SMOOTH"
);
}
);
width = 614;
},
{
layerId = "7C569905-1C91-4856-B9FC-2D0B6400E3AF";
paths = (
{
closed = 1;
nodes = (
"466 -145 OFFCURVE",
"500 -52 OFFCURVE",
"516 48 CURVE SMOOTH",
"610 646 LINE",
"611 652 OFFCURVE",
"607 655 OFFCURVE",
"601 655 CURVE SMOOTH",
"544 655 LINE SMOOTH",
"538 655 OFFCURVE",
"534 652 OFFCURVE",
"533 646 CURVE",
"472 260 LINE SMOOTH",
"464 205 OFFCURVE",
"455 146 OFFCURVE",
"447 91 CURVE",
"446 91 LINE",
"429 146 OFFCURVE",
"412 201 OFFCURVE",
"394 255 CURVE SMOOTH",
"267 646 LINE SMOOTH",
"265 651 OFFCURVE",
"262 655 OFFCURVE",
"257 655 CURVE SMOOTH",
"162 655 LINE SMOOTH",
"156 655 OFFCURVE",
"153 652 OFFCURVE",
"152 646 CURVE",
"51 10 LINE",
"50 3 OFFCURVE",
"54 0 OFFCURVE",
"60 0 CURVE SMOOTH",
"118 0 LINE SMOOTH",
"123 0 OFFCURVE",
"126 4 OFFCURVE",
"127 10 CURVE",
"184 372 LINE SMOOTH",
"194 435 OFFCURVE",
"204 501 OFFCURVE",
"214 563 CURVE",
"215 563 LINE",
"234 505 OFFCURVE",
"253 444 OFFCURVE",
"272 382 CURVE SMOOTH",
"396 9 LINE SMOOTH",
"397 3 OFFCURVE",
"401 0 OFFCURVE",
"407 0 CURVE SMOOTH",
"428 0 LINE",
"412 -61 OFFCURVE",
"387 -105 OFFCURVE",
"350 -137 CURVE",
"344 -143 OFFCURVE",
"344 -148 OFFCURVE",
"349 -153 CURVE",
"386 -189 LINE",
"391 -192 OFFCURVE",
"395 -194 OFFCURVE",
"399 -191 CURVE"
);
}
);
width = 618;
},
{
layerId = "68DFFD47-52F1-4BAD-AADC-5BAA93A7FBC7";
paths = (
{
closed = 1;
nodes = (
"512 -133 OFFCURVE",
"552 -59 OFFCURVE",
"576 91 CURVE SMOOTH",
"663 640 LINE SMOOTH",
"664 649 OFFCURVE",
"659 655 OFFCURVE",
"649 655 CURVE SMOOTH",
"510 655 LINE SMOOTH",
"501 655 OFFCURVE",
"496 649 OFFCURVE",
"495 640 CURVE SMOOTH",
"462 434 LINE SMOOTH",
"451 371 OFFCURVE",
"446 305 OFFCURVE",
"445 242 CURVE",
"441 242 LINE",
"428 299 OFFCURVE",
"410 373 OFFCURVE",
"386 443 CURVE SMOOTH",
"327 640 LINE SMOOTH",
"324 650 OFFCURVE",
"320 655 OFFCURVE",
"309 655 CURVE SMOOTH",
"136 655 LINE SMOOTH",
"127 655 OFFCURVE",
"122 649 OFFCURVE",
"121 640 CURVE SMOOTH",
"22 15 LINE SMOOTH",
"20 6 OFFCURVE",
"25 0 OFFCURVE",
"35 0 CURVE SMOOTH",
"175 0 LINE SMOOTH",
"184 0 OFFCURVE",
"189 6 OFFCURVE",
"190 15 CURVE SMOOTH",
"221 209 LINE SMOOTH",
"231 273 OFFCURVE",
"238 342 OFFCURVE",
"243 405 CURVE",
"246 405 LINE",
"260 347 OFFCURVE",
"281 259 OFFCURVE",
"308 173 CURVE SMOOTH",
"358 15 LINE SMOOTH",
"361 5 OFFCURVE",
"366 0 OFFCURVE",
"374 0 CURVE SMOOTH",
"382 0 LINE",
"371 -29 OFFCURVE",
"348 -54 OFFCURVE",
"320 -71 CURVE SMOOTH",
"312 -76 OFFCURVE",
"312 -86 OFFCURVE",
"316 -92 CURVE SMOOTH",
"385 -189 LINE SMOOTH",
"389 -194 OFFCURVE",
"395 -195 OFFCURVE",
"401 -192 CURVE SMOOTH"
);
}
);
width = 640;
}
);
leftKerningGroup = H;
leftMetricsKey = H;
rightKerningGroup = H;
rightMetricsKey = H;
unicode = 014A;
},
{
glyphname = O;
lastChange = "2022-11-08 21:16:02 +0000";
layers = (
{
anchors = (
{
name = bottom;
position = "{267, 0}";
},
{
name = center;
position = "{319, 328}";
},
{
name = ogonek;
position = "{506, 10}";
},
{
name = top;
position = "{370, 655}";
},
{
name = topleft;
position = "{94, 655}";
},
{
name = topright;
position = "{647, 655}";
}
);
layerId = "4C6D0269-BFF7-43F1-9175-E88494BCD883";
paths = (
{
closed = 1;
nodes = (
"413 -11 OFFCURVE",
"488 49 OFFCURVE",
"510 184 CURVE SMOOTH",
"550 444 LINE SMOOTH",
"572 584 OFFCURVE",
"504 666 OFFCURVE",
"359 666 CURVE SMOOTH",
"224 666 OFFCURVE",
"148 606 OFFCURVE",
"127 471 CURVE SMOOTH",
"86 211 LINE SMOOTH",
"64 72 OFFCURVE",
"135 -11 OFFCURVE",
"277 -11 CURVE SMOOTH"
);
},
{
closed = 1;
nodes = (
"145 5 OFFCURVE",
"81 81 OFFCURVE",
"102 212 CURVE SMOOTH",
"143 470 LINE SMOOTH",
"162 595 OFFCURVE",
"232 650 OFFCURVE",
"358 650 CURVE SMOOTH",
"494 650 OFFCURVE",
"555 574 OFFCURVE",
"534 444 CURVE SMOOTH",
"494 185 LINE SMOOTH",
"474 60 OFFCURVE",
"404 5 OFFCURVE",
"278 5 CURVE SMOOTH"
);
}
);
width = 591;
},
{
anchors = (
{
name = bottom;
position = "{262, 0}";
},
{
name = center;
position = "{314, 328}";
},
{
name = ogonek;
position = "{501, 10}";
},
{
name = top;
position = "{370, 655}";
},
{
name = topleft;
position = "{127, 655}";
},
{
name = topright;
position = "{644, 655}";
}
);
layerId = "7C569905-1C91-4856-B9FC-2D0B6400E3AF";
paths = (
{
closed = 1;
nodes = (
"427 -11 OFFCURVE",
"510 61 OFFCURVE",
"533 208 CURVE SMOOTH",
"568 428 LINE SMOOTH",
"591 576 OFFCURVE",
"523 666 OFFCURVE",
"367 666 CURVE SMOOTH",
"215 666 OFFCURVE",
"132 594 OFFCURVE",
"109 447 CURVE SMOOTH",
"74 227 LINE SMOOTH",
"51 80 OFFCURVE",
"120 -11 OFFCURVE",
"275 -11 CURVE SMOOTH"
);
},
{
closed = 1;
nodes = (
"182 60 OFFCURVE",
"134 116 OFFCURVE",
"152 226 CURVE SMOOTH",
"186 446 LINE SMOOTH",
"203 550 OFFCURVE",
"259 595 OFFCURVE",
"359 595 CURVE SMOOTH",
"461 595 OFFCURVE",
"508 539 OFFCURVE",
"490 429 CURVE SMOOTH",
"456 209 LINE SMOOTH",
"439 105 OFFCURVE",
"383 60 OFFCURVE",
"283 60 CURVE SMOOTH"
);
}
);
width = 597;
},
{
anchors = (
{
name = bottom;
position = "{282, 0}";
},
{
name = center;
position = "{334, 328}";
},
{
name = ogonek;
position = "{534, 10}";
},
{
name = top;
position = "{388, 655}";
},
{
name = topleft;
position = "{96, 655}";
},
{
name = topright;
position = "{679, 655}";
}
);
layerId = "68DFFD47-52F1-4BAD-AADC-5BAA93A7FBC7";
paths = (
{
closed = 1;
nodes = (
"473 -11 OFFCURVE",
"570 68 OFFCURVE",
"598 241 CURVE SMOOTH",
"622 393 LINE SMOOTH",
"650 569 OFFCURVE",
"561 666 OFFCURVE",
"374 666 CURVE SMOOTH",
"196 666 OFFCURVE",
"101 587 OFFCURVE",
"73 414 CURVE SMOOTH",
"49 262 LINE SMOOTH",
"20 87 OFFCURVE",
"109 -11 OFFCURVE",
"295 -11 CURVE SMOOTH"
);
},
{
closed = 1;
nodes = (
"240 146 OFFCURVE",
"211 185 OFFCURVE",
"225 268 CURVE SMOOTH",
"246 401 LINE SMOOTH",
"258 477 OFFCURVE",
"292 510 OFFCURVE",
"356 509 CURVE SMOOTH",
"431 509 OFFCURVE",
"459 470 OFFCURVE",
"446 387 CURVE SMOOTH",
"425 254 LINE SMOOTH",
"413 178 OFFCURVE",
"379 145 OFFCURVE",
"314 146 CURVE SMOOTH"
);
}
);
width = 626;
}
);
leftKerningGroup = O;
rightKerningGroup = O;
unicode = 004F;
},
{
glyphname = Oslash;
lastChange = "2022-11-08 21:16:02 +0000";
layers = (
{
anchors = (
{
name = top;
position = "{327, 655}";
}
);
components = (
{
alignment = -1;
name = O;
}
);
layerId = "4C6D0269-BFF7-43F1-9175-E88494BCD883";
paths = (
{
closed = 1;
nodes = (
"41 -48 LINE SMOOTH",
"44 -48 OFFCURVE",
"45 -47 OFFCURVE",
"47 -44 CURVE SMOOTH",
"123 56 LINE",
"128 63 LINE",
"519 582 LINE",
"523 587 LINE",
"607 698 LINE SMOOTH",
"609 701 OFFCURVE",
"608 703 OFFCURVE",
"605 703 CURVE SMOOTH",
"595 703 LINE SMOOTH",
"592 703 OFFCURVE",
"592 703 OFFCURVE",
"590 700 CURVE SMOOTH",
"514 601 LINE",
"509 594 LINE",
"118 74 LINE",
"114 69 LINE",
"29 -43 LINE SMOOTH",
"27 -45 OFFCURVE",
"27 -48 OFFCURVE",
"30 -48 CURVE SMOOTH"
);
}
);
width = 591;
},
{
anchors = (
{
name = top;
position = "{358, 655}";
}
);
components = (
{
alignment = -1;
name = O;
}
);
layerId = "7C569905-1C91-4856-B9FC-2D0B6400E3AF";
paths = (
{
closed = 1;
nodes = (
"71 -50 LINE SMOOTH",
"77 -50 OFFCURVE",
"80 -48 OFFCURVE",
"84 -42 CURVE SMOOTH",
"151 48 LINE",
"169 74 LINE",
"511 534 LINE",
"533 564 LINE",
"631 695 LINE SMOOTH",
"635 701 OFFCURVE",
"632 705 OFFCURVE",
"625 705 CURVE SMOOTH",
"570 705 LINE SMOOTH",
"564 705 OFFCURVE",
"560 701 OFFCURVE",
"556 695 CURVE SMOOTH",
"490 607 LINE",
"473 582 LINE",
"136 130 LINE",
"111 95 LINE",
"12 -39 LINE SMOOTH",
"8 -45 OFFCURVE",
"9 -50 OFFCURVE",
"16 -50 CURVE SMOOTH"
);
}
);
width = 597;
},
{
anchors = (
{
name = top;
position = "{386, 655}";
}
);
components = (
{
alignment = -1;
name = O;
}
);
layerId = "68DFFD47-52F1-4BAD-AADC-5BAA93A7FBC7";
paths = (
{
closed = 1;
nodes = (
"143 -50 LINE SMOOTH",
"152 -50 OFFCURVE",
"157 -46 OFFCURVE",
"164 -35 CURVE SMOOTH",
"199 19 LINE",
"265 140 LINE",
"470 452 LINE",
"574 577 LINE",
"650 690 LINE SMOOTH",
"655 698 OFFCURVE",
"652 705 OFFCURVE",
"642 705 CURVE SMOOTH",
"528 705 LINE SMOOTH",
"520 705 OFFCURVE",
"514 700 OFFCURVE",
"508 690 CURVE SMOOTH",
"472 633 LINE",
"410 514 LINE",
"196 193 LINE",
"103 83 LINE",
"23 -34 LINE SMOOTH",
"18 -41 OFFCURVE",
"21 -50 OFFCURVE",
"29 -50 CURVE SMOOTH"
);
}
);
width = 626;
}
);
leftKerningGroup = O;
rightKerningGroup = O;
unicode = 00D8;
},
{
glyphname = OE;
lastChange = "2022-11-08 21:16:38 +0000";
layers = (
{
layerId = "4C6D0269-BFF7-43F1-9175-E88494BCD883";
paths = (
{
closed = 1;
nodes = (
"317 -11 OFFCURVE",
"349 -6 OFFCURVE",
"372 0 CURVE",
"691 0 LINE SMOOTH",
"694 0 OFFCURVE",
"695 0 OFFCURVE",
"696 3 CURVE SMOOTH",
"698 12 LINE SMOOTH",
"699 16 OFFCURVE",
"697 16 OFFCURVE",
"695 16 CURVE SMOOTH",
"388 16 LINE",
"438 328 LINE",
"722 328 LINE SMOOTH",
"725 328 OFFCURVE",
"726 328 OFFCURVE",
"727 331 CURVE SMOOTH",
"729 340 LINE SMOOTH",
"730 344 OFFCURVE",
"728 344 OFFCURVE",
"726 344 CURVE SMOOTH",
"441 344 LINE",
"487 639 LINE",
"792 639 LINE SMOOTH",
"795 639 OFFCURVE",
"796 639 OFFCURVE",
"797 642 CURVE SMOOTH",
"799 651 LINE SMOOTH",
"800 655 OFFCURVE",
"798 655 OFFCURVE",
"796 655 CURVE SMOOTH",
"476 655 LINE",
"446 661 OFFCURVE",
"404 666 OFFCURVE",
"353 666 CURVE SMOOTH",
"217 666 OFFCURVE",
"148 606 OFFCURVE",
"127 471 CURVE SMOOTH",
"86 211 LINE SMOOTH",
"64 72 OFFCURVE",
"142 -11 OFFCURVE",
"283 -11 CURVE SMOOTH"
);
},
{
closed = 1;
nodes = (
"152 5 OFFCURVE",
"81 81 OFFCURVE",
"102 212 CURVE SMOOTH",
"143 470 LINE SMOOTH",
"162 595 OFFCURVE",
"225 650 OFFCURVE",
"352 650 CURVE SMOOTH",
"405 650 OFFCURVE",
"445 646 OFFCURVE",
"471 640 CURVE",
"372 16 LINE",
"346 9 OFFCURVE",
"315 5 OFFCURVE",
"284 5 CURVE SMOOTH"
);
}
);
width = 808;
},
{
layerId = "7C569905-1C91-4856-B9FC-2D0B6400E3AF";
paths = (
{
closed = 1;
nodes = (
"305 -11 OFFCURVE",
"342 -7 OFFCURVE",
"367 0 CURVE",
"708 0 LINE SMOOTH",
"713 0 OFFCURVE",
"718 4 OFFCURVE",
"719 9 CURVE SMOOTH",
"727 63 LINE SMOOTH",
"728 68 OFFCURVE",
"724 72 OFFCURVE",
"719 72 CURVE SMOOTH",
"454 72 LINE",
"490 299 LINE",
"733 299 LINE SMOOTH",
"738 299 OFFCURVE",
"743 302 OFFCURVE",
"744 308 CURVE SMOOTH",
"751 358 LINE SMOOTH",
"752 364 OFFCURVE",
"749 368 OFFCURVE",
"744 368 CURVE SMOOTH",
"500 368 LINE",
"534 583 LINE",
"800 583 LINE SMOOTH",
"806 583 OFFCURVE",
"810 587 OFFCURVE",
"811 592 CURVE SMOOTH",
"819 646 LINE SMOOTH",
"820 652 OFFCURVE",
"817 655 OFFCURVE",
"811 655 CURVE SMOOTH",
"471 655 LINE",
"446 661 OFFCURVE",
"400 666 OFFCURVE",
"364 666 CURVE SMOOTH",
"211 666 OFFCURVE",
"132 590 OFFCURVE",
"109 445 CURVE SMOOTH",
"75 224 LINE SMOOTH",
"53 79 OFFCURVE",
"123 -11 OFFCURVE",
"273 -11 CURVE SMOOTH"
);
},
{
closed = 1;
nodes = (
"181 60 OFFCURVE",
"135 119 OFFCURVE",
"152 223 CURVE SMOOTH",
"186 443 LINE SMOOTH",
"202 544 OFFCURVE",
"253 595 OFFCURVE",
"353 595 CURVE SMOOTH",
"391 595 OFFCURVE",
"435 592 OFFCURVE",
"458 587 CURVE",
"376 69 LINE",
"352 63 OFFCURVE",
"316 60 OFFCURVE",
"283 60 CURVE SMOOTH"
);
}
);
width = 814;
},
{
layerId = "68DFFD47-52F1-4BAD-AADC-5BAA93A7FBC7";
paths = (
{
closed = 1;
nodes = (
"320 -11 OFFCURVE",
"354 -6 OFFCURVE",
"374 0 CURVE",
"767 0 LINE SMOOTH",
"775 0 OFFCURVE",
"780 6 OFFCURVE",
"781 15 CURVE SMOOTH",
"801 141 LINE SMOOTH",
"802 149 OFFCURVE",
"796 155 OFFCURVE",
"788 155 CURVE SMOOTH",
"547 155 LINE",
"563 256 LINE",
"784 256 LINE SMOOTH",
"792 256 OFFCURVE",
"798 262 OFFCURVE",
"799 270 CURVE SMOOTH",
"817 387 LINE SMOOTH",
"819 397 OFFCURVE",
"814 402 OFFCURVE",
"805 402 CURVE SMOOTH",
"586 402 LINE",
"601 500 LINE",
"846 500 LINE SMOOTH",
"854 500 OFFCURVE",
"859 507 OFFCURVE",
"860 515 CURVE SMOOTH",
"880 640 LINE SMOOTH",
"882 650 OFFCURVE",
"876 655 OFFCURVE",
"867 655 CURVE SMOOTH",
"474 655 LINE",
"450 661 OFFCURVE",
"408 666 OFFCURVE",
"368 666 CURVE SMOOTH",
"197 666 OFFCURVE",
"101 586 OFFCURVE",
"73 412 CURVE SMOOTH",
"49 261 LINE SMOOTH",
"21 85 OFFCURVE",
"118 -11 OFFCURVE",
"273 -11 CURVE SMOOTH"
);
},
{
closed = 1;
nodes = (
"240 144 OFFCURVE",
"212 186 OFFCURVE",
"225 268 CURVE SMOOTH",
"246 401 LINE SMOOTH",
"258 476 OFFCURVE",
"293 511 OFFCURVE",
"357 511 CURVE SMOOTH",
"383 511 OFFCURVE",
"411 506 OFFCURVE",
"426 500 CURVE",
"370 152 LINE",
"356 147 OFFCURVE",
"341 144 OFFCURVE",
"315 144 CURVE SMOOTH"
);
}
);
width = 846;
}
);
leftKerningGroup = O;
leftMetricsKey = O;
rightKerningGroup = E;
rightMetricsKey = E;
unicode = 0152;
},
{
glyphname = P;
lastChange = "2022-11-08 21:16:02 +0000";
layers = (
{
layerId = "4C6D0269-BFF7-43F1-9175-E88494BCD883";
paths = (
{
closed = 1;
nodes = (
"79 0 LINE SMOOTH",
"82 0 OFFCURVE",
"83 0 OFFCURVE",
"84 5 CURVE SMOOTH",
"127 277 LINE",
"257 277 LINE SMOOTH",
"418 277 OFFCURVE",
"498 360 OFFCURVE",
"498 505 CURVE SMOOTH",
"498 612 OFFCURVE",
"422 655 OFFCURVE",
"295 655 CURVE SMOOTH",
"176 655 LINE SMOOTH",
"173 655 OFFCURVE",
"172 655 OFFCURVE",
"171 651 CURVE SMOOTH",
"68 5 LINE SMOOTH",
"67 0 OFFCURVE",
"69 0 OFFCURVE",
"72 0 CURVE SMOOTH"
);
},
{
closed = 1;
nodes = (
"185 639 LINE",
"295 639 LINE SMOOTH",
"410 639 OFFCURVE",
"482 602 OFFCURVE",
"482 504 CURVE SMOOTH",
"482 370 OFFCURVE",
"411 293 OFFCURVE",
"257 293 CURVE SMOOTH",
"130 293 LINE"
);
}
);
width = 504;
},
{
layerId = "7C569905-1C91-4856-B9FC-2D0B6400E3AF";
paths = (
{
closed = 1;
nodes = (
"118 0 LINE SMOOTH",
"124 0 OFFCURVE",
"127 4 OFFCURVE",
"128 10 CURVE SMOOTH",
"167 249 LINE",
"254 249 LINE SMOOTH",
"417 249 OFFCURVE",
"516 332 OFFCURVE",
"516 489 CURVE SMOOTH",
"516 595 OFFCURVE",
"455 655 OFFCURVE",
"315 655 CURVE SMOOTH",
"163 655 LINE SMOOTH",
"157 655 OFFCURVE",
"153 652 OFFCURVE",
"152 646 CURVE SMOOTH",
"51 10 LINE SMOOTH",
"50 3 OFFCURVE",
"53 0 OFFCURVE",
"60 0 CURVE SMOOTH"
);
},
{
closed = 1;
nodes = (
"220 587 LINE",
"307 587 LINE SMOOTH",
"394 587 OFFCURVE",
"438 557 OFFCURVE",
"438 483 CURVE SMOOTH",
"438 373 OFFCURVE",
"377 317 OFFCURVE",
"262 317 CURVE SMOOTH",
"177 317 LINE"
);
}
);
width = 510;
},
{
layerId = "68DFFD47-52F1-4BAD-AADC-5BAA93A7FBC7";
paths = (
{
closed = 1;
nodes = (
"181 0 LINE SMOOTH",
"190 0 OFFCURVE",
"195 6 OFFCURVE",
"196 15 CURVE SMOOTH",
"226 199 LINE",
"291 199 LINE SMOOTH",
"467 199 OFFCURVE",
"567 301 OFFCURVE",
"567 458 CURVE SMOOTH",
"567 594 OFFCURVE",
"490.996 655 OFFCURVE",
"328 655 CURVE SMOOTH",
"136 655 LINE SMOOTH",
"127 655 OFFCURVE",
"122 649 OFFCURVE",
"121 640 CURVE SMOOTH",
"22 15 LINE SMOOTH",
"20 6 OFFCURVE",
"25 0 OFFCURVE",
"35 0 CURVE SMOOTH"
);
},
{
closed = 1;
nodes = (
"273 500 LINE",
"317 500 LINE SMOOTH",
"364 500 OFFCURVE",
"389 483 OFFCURVE",
"389 442 CURVE SMOOTH",
"389 381 OFFCURVE",
"358 352 OFFCURVE",
"297 352 CURVE SMOOTH",
"250 352 LINE"
);
}
);
width = 547;
}
);
leftKerningGroup = H;
leftMetricsKey = H;
rightKerningGroup = P;
unicode = 0050;
},
{
glyphname = Thorn;
lastChange = "2022-11-08 21:16:38 +0000";
layers = (
{
layerId = "4C6D0269-BFF7-43F1-9175-E88494BCD883";
paths = (
{
closed = 1;
nodes = (
"79 0 LINE SMOOTH",
"82 0 OFFCURVE",
"83 0 OFFCURVE",
"84 5 CURVE SMOOTH",
"107 150 LINE",
"237 150 LINE SMOOTH",
"398 150 OFFCURVE",
"478 233 OFFCURVE",
"478 378 CURVE SMOOTH",
"478 485 OFFCURVE",
"402 528 OFFCURVE",
"275 528 CURVE SMOOTH",
"167 528 LINE",
"187 651 LINE SMOOTH",
"188 655 OFFCURVE",
"186 655 OFFCURVE",
"183 655 CURVE SMOOTH",
"176 655 LINE SMOOTH",
"173 655 OFFCURVE",
"172 655 OFFCURVE",
"171 651 CURVE SMOOTH",
"68 5 LINE SMOOTH",
"67 0 OFFCURVE",
"69 0 OFFCURVE",
"72 0 CURVE SMOOTH"
);
},
{
closed = 1;
nodes = (
"165 512 LINE",
"275 512 LINE SMOOTH",
"390 512 OFFCURVE",
"462 475 OFFCURVE",
"462 377 CURVE SMOOTH",
"462 243 OFFCURVE",
"391 166 OFFCURVE",
"237 166 CURVE SMOOTH",
"110 166 LINE"
);
}
);
width = 504;
},
{
layerId = "7C569905-1C91-4856-B9FC-2D0B6400E3AF";
paths = (
{
closed = 1;
nodes = (
"118 0 LINE SMOOTH",
"124 0 OFFCURVE",
"127 4 OFFCURVE",
"128 10 CURVE SMOOTH",
"149 137 LINE",
"236 137 LINE SMOOTH",
"400 137 OFFCURVE",
"499 220 OFFCURVE",
"499 377 CURVE SMOOTH",
"499 483 OFFCURVE",
"439 542 OFFCURVE",
"298 543 CURVE SMOOTH",
"213 543 LINE",
"230 646 LINE SMOOTH",
"231 652 OFFCURVE",
"228 655 OFFCURVE",
"222 655 CURVE SMOOTH",
"162 655 LINE SMOOTH",
"156 655 OFFCURVE",
"153 652 OFFCURVE",
"152 646 CURVE SMOOTH",
"51 10 LINE SMOOTH",
"50 3 OFFCURVE",
"53 0 OFFCURVE",
"60 0 CURVE SMOOTH"
);
},
{
closed = 1;
nodes = (
"202 474 LINE",
"290 474 LINE SMOOTH",
"376 474 OFFCURVE",
"421 445 OFFCURVE",
"421 370 CURVE SMOOTH",
"421 261 OFFCURVE",
"359 205 OFFCURVE",
"244 205 CURVE SMOOTH",
"159 205 LINE"
);
}
);
width = 511;
},
{
layerId = "68DFFD47-52F1-4BAD-AADC-5BAA93A7FBC7";
paths = (
{
closed = 1;
nodes = (
"181 0 LINE SMOOTH",
"190 0 OFFCURVE",
"195 6 OFFCURVE",
"196 15 CURVE SMOOTH",
"211 109 LINE",
"276 109 LINE SMOOTH",
"452 109 OFFCURVE",
"553 211 OFFCURVE",
"553 369 CURVE SMOOTH",
"553 504 OFFCURVE",
"478 565 OFFCURVE",
"316 566 CURVE SMOOTH",
"283 566 LINE",
"295 640 LINE SMOOTH",
"296 649 OFFCURVE",
"291 655 OFFCURVE",
"282 655 CURVE SMOOTH",
"136 655 LINE SMOOTH",
"127 655 OFFCURVE",
"122 649 OFFCURVE",
"121 640 CURVE SMOOTH",
"22 15 LINE SMOOTH",
"20 6 OFFCURVE",
"26 0 OFFCURVE",
"35 0 CURVE SMOOTH"
);
},
{
closed = 1;
nodes = (
"259 411 LINE",
"303 411 LINE SMOOTH",
"350 411 OFFCURVE",
"374 393 OFFCURVE",
"374 352 CURVE SMOOTH",
"374 292 OFFCURVE",
"343 262 OFFCURVE",
"283 262 CURVE SMOOTH",
"235 262 LINE"
);
}
);
width = 547;
}
);
leftKerningGroup = H;
leftMetricsKey = H;
rightKerningGroup = Thorn;
rightMetricsKey = P;
unicode = 00DE;
},
{
glyphname = Q;
lastChange = "2022-11-08 21:16:02 +0000";
layers = (
{
components = (
{
alignment = -1;
name = O;
}
);
layerId = "4C6D0269-BFF7-43F1-9175-E88494BCD883";
paths = (
{
closed = 1;
nodes = (
"368 -172 OFFCURVE",
"381 -170 OFFCURVE",
"392 -165 CURVE SMOOTH",
"394 -164 OFFCURVE",
"395 -164 OFFCURVE",
"396 -159 CURVE SMOOTH",
"397 -152 LINE SMOOTH",
"398 -147 OFFCURVE",
"395 -148 OFFCURVE",
"392 -149 CURVE SMOOTH",
"383 -153 OFFCURVE",
"368 -156 OFFCURVE",
"352 -156 CURVE SMOOTH",
"298 -156 OFFCURVE",
"291 -96 OFFCURVE",
"305 -3 CURVE SMOOTH",
"305 -1 OFFCURVE",
"304 0 OFFCURVE",
"302 0 CURVE SMOOTH",
"293 0 LINE SMOOTH",
"291 0 OFFCURVE",
"289 -1 OFFCURVE",
"289 -3 CURVE SMOOTH",
"274 -102 OFFCURVE",
"281 -172 OFFCURVE",
"352 -172 CURVE SMOOTH"
);
}
);
width = 591;
},
{
components = (
{
alignment = -1;
name = O;
}
);
layerId = "7C569905-1C91-4856-B9FC-2D0B6400E3AF";
paths = (
{
closed = 1;
nodes = (
"368 -181 OFFCURVE",
"385 -178 OFFCURVE",
"397 -173 CURVE SMOOTH",
"404 -171 OFFCURVE",
"407 -167 OFFCURVE",
"408 -161 CURVE SMOOTH",
"416 -113 LINE SMOOTH",
"417 -106 OFFCURVE",
"413 -103 OFFCURVE",
"407 -105 CURVE SMOOTH",
"396 -108 OFFCURVE",
"385 -110 OFFCURVE",
"375 -110 CURVE SMOOTH",
"333 -110 OFFCURVE",
"327 -74 OFFCURVE",
"339 12 CURVE SMOOTH",
"340 19 OFFCURVE",
"337 23 OFFCURVE",
"331 22 CURVE SMOOTH",
"277 18 LINE SMOOTH",
"271 17 OFFCURVE",
"268 14 OFFCURVE",
"267 9 CURVE SMOOTH",
"247 -120 OFFCURVE",
"273 -181 OFFCURVE",
"350 -181 CURVE SMOOTH"
);
}
);
width = 597;
},
{
components = (
{
alignment = -1;
name = O;
}
);
layerId = "68DFFD47-52F1-4BAD-AADC-5BAA93A7FBC7";
paths = (
{
closed = 1;
nodes = (
"427 -185 OFFCURVE",
"454 -178 OFFCURVE",
"471 -168 CURVE SMOOTH",
"478 -164 OFFCURVE",
"483 -158 OFFCURVE",
"484 -151 CURVE SMOOTH",
"498 -61 LINE SMOOTH",
"500 -51 OFFCURVE",
"492 -47 OFFCURVE",
"484 -50 CURVE SMOOTH",
"473 -54 OFFCURVE",
"460 -57 OFFCURVE",
"445 -57 CURVE SMOOTH",
"405 -57 OFFCURVE",
"404 -15 OFFCURVE",
"415 44 CURVE SMOOTH",
"416 54 OFFCURVE",
"411 59 OFFCURVE",
"404 59 CURVE SMOOTH",
"288 57 LINE SMOOTH",
"280 57 OFFCURVE",
"274 52 OFFCURVE",
"272 42 CURVE SMOOTH",
"243 -112 OFFCURVE",
"291 -185 OFFCURVE",
"392 -185 CURVE SMOOTH"
);
}
);
width = 626;
}
);
leftKerningGroup = O;
leftMetricsKey = O;
rightKerningGroup = O;
rightMetricsKey = O;
unicode = 0051;
},
{
glyphname = R;
lastChange = "2022-11-08 21:16:02 +0000";
layers = (
{
anchors = (
{
name = bottom;
position = "{243, 0}";
},
{
name = top;
position = "{327, 655}";
}
);
layerId = "4C6D0269-BFF7-43F1-9175-E88494BCD883";
paths = (
{
closed = 1;
nodes = (
"79 0 LINE SMOOTH",
"82 0 OFFCURVE",
"83 0 OFFCURVE",
"84 5 CURVE SMOOTH",
"131 303 LINE",
"317 303 LINE",
"443 4 LINE SMOOTH",
"444 1 OFFCURVE",
"445 0 OFFCURVE",
"448 0 CURVE SMOOTH",
"456 0 LINE SMOOTH",
"459 0 OFFCURVE",
"461 2 OFFCURVE",
"459 6 CURVE SMOOTH",
"334 305 LINE",
"334 306 LINE",
"451 327 OFFCURVE",
"511 398 OFFCURVE",
"511 514 CURVE SMOOTH",
"511 608 OFFCURVE",
"446 655 OFFCURVE",
"331 655 CURVE SMOOTH",
"176 655 LINE SMOOTH",
"173 655 OFFCURVE",
"172 655 OFFCURVE",
"171 651 CURVE SMOOTH",
"68 5 LINE SMOOTH",
"67 0 OFFCURVE",
"69 0 OFFCURVE",
"72 0 CURVE SMOOTH"
);
},
{
closed = 1;
nodes = (
"185 639 LINE",
"330 639 LINE SMOOTH",
"432 639 OFFCURVE",
"495 600 OFFCURVE",
"495 514 CURVE SMOOTH",
"495 392 OFFCURVE",
"418 319 OFFCURVE",
"284 319 CURVE SMOOTH",
"134 319 LINE"
);
}
);
width = 545;
},
{
anchors = (
{
name = bottom;
position = "{251, 0}";
},
{
name = top;
position = "{327, 655}";
}
);
layerId = "7C569905-1C91-4856-B9FC-2D0B6400E3AF";
paths = (
{
closed = 1;
nodes = (
"118 0 LINE SMOOTH",
"124 0 OFFCURVE",
"127 4 OFFCURVE",
"128 10 CURVE SMOOTH",
"172 280 LINE",
"295 280 LINE",
"403 7 LINE SMOOTH",
"404 2 OFFCURVE",
"408 0 OFFCURVE",
"414 0 CURVE SMOOTH",
"482 0 LINE SMOOTH",
"489 0 OFFCURVE",
"493 5 OFFCURVE",
"490 11 CURVE SMOOTH",
"377 290 LINE",
"377 291 LINE",
"476 318 OFFCURVE",
"535 395 OFFCURVE",
"535 502 CURVE SMOOTH",
"535 601 OFFCURVE",
"469 655 OFFCURVE",
"336.008 655 CURVE SMOOTH",
"163 655 LINE SMOOTH",
"157 655 OFFCURVE",
"153 652 OFFCURVE",
"152 646 CURVE SMOOTH",
"51 10 LINE SMOOTH",
"50 3 OFFCURVE",
"53 0 OFFCURVE",
"59 0 CURVE SMOOTH"
);
},
{
closed = 1;
nodes = (
"220 587 LINE",
"329 587 LINE SMOOTH",
"414 587 OFFCURVE",
"455 561 OFFCURVE",
"455 497 CURVE SMOOTH",
"455 391 OFFCURVE",
"391 345 OFFCURVE",
"283 345 CURVE SMOOTH",
"182 345 LINE"
);
}
);
width = 561;
},
{
anchors = (
{
name = bottom;
position = "{274, 0}";
},
{
name = top;
position = "{338, 655}";
}
);
layerId = "68DFFD47-52F1-4BAD-AADC-5BAA93A7FBC7";
paths = (
{
closed = 1;
nodes = (
"181 0 LINE SMOOTH",
"190 0 OFFCURVE",
"195 6 OFFCURVE",
"196 15 CURVE SMOOTH",
"231 231 LINE",
"281 231 LINE",
"365 15 LINE SMOOTH",
"368 6 OFFCURVE",
"373 0 OFFCURVE",
"381.99 0 CURVE SMOOTH",
"542 0 LINE SMOOTH",
"551 0 OFFCURVE",
"556 9 OFFCURVE",
"553 15 CURVE SMOOTH",
"449 259 LINE",
"449 260 LINE",
"540 291 OFFCURVE",
"588 368 OFFCURVE",
"588 475 CURVE SMOOTH",
"588 591 OFFCURVE",
"517 655 OFFCURVE",
"341.997 655 CURVE SMOOTH",
"136 655 LINE SMOOTH",
"127 655 OFFCURVE",
"122 649 OFFCURVE",
"121 640 CURVE SMOOTH",
"22 15 LINE SMOOTH",
"20 6 OFFCURVE",
"25 0 OFFCURVE",
"35 0 CURVE SMOOTH"
);
},
{
closed = 1;
nodes = (
"273 502 LINE",
"334 502 LINE SMOOTH",
"386 502 OFFCURVE",
"410 488 OFFCURVE",
"410 451 CURVE SMOOTH",
"410 397 OFFCURVE",
"378 373 OFFCURVE",
"320 373 CURVE SMOOTH",
"253 373 LINE"
);
}
);
width = 590;
}
);
leftKerningGroup = H;
leftMetricsKey = H;
rightKerningGroup = R;
unicode = 0052;
},
{
glyphname = S;
lastChange = "2022-11-08 21:16:02 +0000";
layers = (
{
anchors = (
{
name = bottom;
position = "{221, 0}";
},
{
name = top;
position = "{323, 655}";
}
);
layerId = "4C6D0269-BFF7-43F1-9175-E88494BCD883";
paths = (
{
closed = 1;
nodes = (
"375 -11 OFFCURVE",
"443 41 OFFCURVE",
"443 159 CURVE SMOOTH",
"443 230 OFFCURVE",
"418 265 OFFCURVE",
"325 322 CURVE SMOOTH",
"231 380 LINE SMOOTH",
"155 427 OFFCURVE",
"136 456 OFFCURVE",
"136 515 CURVE SMOOTH",
"136 603 OFFCURVE",
"197 650 OFFCURVE",
"308 650 CURVE SMOOTH",
"431 650 OFFCURVE",
"481 602 OFFCURVE",
"469 493 CURVE SMOOTH",
"469 490 OFFCURVE",
"469 489 OFFCURVE",
"472 489 CURVE SMOOTH",
"481 489 LINE SMOOTH",
"484 489 OFFCURVE",
"485 490 OFFCURVE",
"485 493 CURVE SMOOTH",
"498 611 OFFCURVE",
"442 666 OFFCURVE",
"308 666 CURVE SMOOTH",
"187 666 OFFCURVE",
"120 612 OFFCURVE",
"120 514 CURVE SMOOTH",
"120 448 OFFCURVE",
"141 416 OFFCURVE",
"221 367 CURVE SMOOTH",
"314 309 LINE SMOOTH",
"405 253 OFFCURVE",
"427 222 OFFCURVE",
"427 157 CURVE SMOOTH",
"427 53 OFFCURVE",
"362 5 OFFCURVE",
"226 5 CURVE SMOOTH",
"99 5 OFFCURVE",
"53 49 OFFCURVE",
"70 166 CURVE SMOOTH",
"71 170 OFFCURVE",
"69 170 OFFCURVE",
"67 170 CURVE SMOOTH",
"60 170 LINE SMOOTH",
"57 170 OFFCURVE",
"56 170 OFFCURVE",
"55 166 CURVE SMOOTH",
"36 42 OFFCURVE",
"87 -11 OFFCURVE",
"225 -11 CURVE SMOOTH"
);
}
);
width = 507;
},
{
anchors = (
{
name = bottom;
position = "{235, 0}";
},
{
name = top;
position = "{325, 655}";
}
);
layerId = "7C569905-1C91-4856-B9FC-2D0B6400E3AF";
paths = (
{
closed = 1;
nodes = (
"391 -11 OFFCURVE",
"475 59 OFFCURVE",
"475 176 CURVE SMOOTH",
"475 251 OFFCURVE",
"442 298 OFFCURVE",
"361 341 CURVE SMOOTH",
"258 396 LINE SMOOTH",
"205 425 OFFCURVE",
"183 453 OFFCURVE",
"183 496 CURVE SMOOTH",
"183 559 OFFCURVE",
"231 596 OFFCURVE",
"315 596 CURVE SMOOTH",
"396 596 OFFCURVE",
"445 563 OFFCURVE",
"434 480 CURVE SMOOTH",
"433 473 OFFCURVE",
"436 469 OFFCURVE",
"442 469 CURVE SMOOTH",
"501 469 LINE SMOOTH",
"507 469 OFFCURVE",
"509 472 OFFCURVE",
"511 479 CURVE SMOOTH",
"535 606 OFFCURVE",
"452 665 OFFCURVE",
"322 665 CURVE SMOOTH",
"187 665 OFFCURVE",
"104 603 OFFCURVE",
"104 490 CURVE SMOOTH",
"104 419 OFFCURVE",
"134 376 OFFCURVE",
"201 339 CURVE SMOOTH",
"309 280 LINE SMOOTH",
"373 246 OFFCURVE",
"395 220 OFFCURVE",
"395 170 CURVE SMOOTH",
"395 97 OFFCURVE",
"345 58 OFFCURVE",
"247 58 CURVE SMOOTH",
"160 58 OFFCURVE",
"106 89 OFFCURVE",
"124 179 CURVE SMOOTH",
"126 186 OFFCURVE",
"121 190 OFFCURVE",
"115 190 CURVE SMOOTH",
"61 190 LINE SMOOTH",
"55 190 OFFCURVE",
"50 187 OFFCURVE",
"49 180 CURVE SMOOTH",
"21 48 OFFCURVE",
"101 -11 OFFCURVE",
"241 -11 CURVE SMOOTH"
);
}
);
width = 524;
},
{
anchors = (
{
name = bottom;
position = "{246, 0}";
},
{
name = top;
position = "{341, 655}";
}
);
layerId = "68DFFD47-52F1-4BAD-AADC-5BAA93A7FBC7";
paths = (
{
closed = 1;
nodes = (
"426 -11 OFFCURVE",
"515 61 OFFCURVE",
"515 198 CURVE SMOOTH",
"515 276 OFFCURVE",
"485 321 OFFCURVE",
"414 361 CURVE SMOOTH",
"297 427 LINE SMOOTH",
"262 447 OFFCURVE",
"252 458 OFFCURVE",
"252 480 CURVE SMOOTH",
"252 504 OFFCURVE",
"273 518 OFFCURVE",
"309 518 CURVE SMOOTH",
"355 518 OFFCURVE",
"376 499 OFFCURVE",
"372 462 CURVE SMOOTH",
"371 452 OFFCURVE",
"375 447 OFFCURVE",
"385 447 CURVE SMOOTH",
"529 447 LINE SMOOTH",
"538 447 OFFCURVE",
"542 451 OFFCURVE",
"544 462 CURVE SMOOTH",
"567 595 OFFCURVE",
"491 666 OFFCURVE",
"316 666 CURVE SMOOTH",
"163 666 OFFCURVE",
"74 588 OFFCURVE",
"74 465 CURVE SMOOTH",
"74 382 OFFCURVE",
"107 334 OFFCURVE",
"185 292 CURVE SMOOTH",
"291 234 LINE SMOOTH",
"324 215 OFFCURVE",
"335 201 OFFCURVE",
"335 181 CURVE SMOOTH",
"335 153 OFFCURVE",
"314 140 OFFCURVE",
"267 140 CURVE SMOOTH",
"217 140 OFFCURVE",
"195 159 OFFCURVE",
"200 198 CURVE SMOOTH",
"201 207 OFFCURVE",
"196 213 OFFCURVE",
"186 213 CURVE SMOOTH",
"43 213 LINE SMOOTH",
"35 213 OFFCURVE",
"30 208 OFFCURVE",
"28 198 CURVE SMOOTH",
"0 57 OFFCURVE",
"75 -11 OFFCURVE",
"252 -11 CURVE SMOOTH"
);
}
);
width = 543;
}
);
leftKerningGroup = S;
rightKerningGroup = S;
unicode = 0053;
},
{
glyphname = Germandbls;
lastChange = "2022-11-08 21:16:02 +0000";
layers = (
{
layerId = "4C6D0269-BFF7-43F1-9175-E88494BCD883";
paths = (
{
closed = 1;
nodes = (
"469 -11 OFFCURVE",
"543 73 OFFCURVE",
"543 215 CURVE SMOOTH",
"543 326 OFFCURVE",
"483 375 OFFCURVE",
"345 375 CURVE",
"548 648 LINE SMOOTH",
"550 652 OFFCURVE",
"549 655 OFFCURVE",
"546 655 CURVE SMOOTH",
"176 655 LINE SMOOTH",
"173 655 OFFCURVE",
"172 655 OFFCURVE",
"171 651 CURVE SMOOTH",
"68 5 LINE SMOOTH",
"67 0 OFFCURVE",
"69 0 OFFCURVE",
"72 0 CURVE SMOOTH",
"79 0 LINE SMOOTH",
"82 0 OFFCURVE",
"83 0 OFFCURVE",
"84 5 CURVE SMOOTH",
"185 639 LINE",
"520 639 LINE",
"321 369 LINE SMOOTH",
"320 368 OFFCURVE",
"319 367 OFFCURVE",
"319 365 CURVE SMOOTH",
"319 362 LINE SMOOTH",
"319 360 OFFCURVE",
"320 359 OFFCURVE",
"322 359 CURVE SMOOTH",
"349 359 LINE SMOOTH",
"472 359 OFFCURVE",
"527 314 OFFCURVE",
"527 214 CURVE SMOOTH",
"527 85 OFFCURVE",
"458 5 OFFCURVE",
"346 5 CURVE SMOOTH",
"255 5 OFFCURVE",
"215 42 OFFCURVE",
"227 121 CURVE SMOOTH",
"228 125 OFFCURVE",
"226 125 OFFCURVE",
"223 125 CURVE SMOOTH",
"215 125 LINE SMOOTH",
"213 125 OFFCURVE",
"212 125 OFFCURVE",
"211 121 CURVE SMOOTH",
"199 35 OFFCURVE",
"245 -11 OFFCURVE",
"344 -11 CURVE SMOOTH"
);
}
);
width = 599;
},
{
layerId = "7C569905-1C91-4856-B9FC-2D0B6400E3AF";
paths = (
{
closed = 1;
nodes = (
"494 -11 OFFCURVE",
"572 82 OFFCURVE",
"572 231 CURVE SMOOTH",
"572 327 OFFCURVE",
"519 383 OFFCURVE",
"410 389 CURVE",
"590 634 LINE SMOOTH",
"597 643 OFFCURVE",
"597 655 OFFCURVE",
"588 655 CURVE SMOOTH",
"163 655 LINE SMOOTH",
"157 655 OFFCURVE",
"153 652 OFFCURVE",
"152 646 CURVE SMOOTH",
"51 10 LINE SMOOTH",
"50 3 OFFCURVE",
"54 0 OFFCURVE",
"60 0 CURVE SMOOTH",
"118 0 LINE SMOOTH",
"124 0 OFFCURVE",
"127 4 OFFCURVE",
"128 10 CURVE SMOOTH",
"219 583 LINE",
"468 583 LINE",
"322 382 LINE SMOOTH",
"319 377 OFFCURVE",
"317 373 OFFCURVE",
"316 367 CURVE SMOOTH",
"312 338 LINE SMOOTH",
"311 332 OFFCURVE",
"314 328 OFFCURVE",
"320 328 CURVE SMOOTH",
"360 328 LINE SMOOTH",
"452 328 OFFCURVE",
"494 296 OFFCURVE",
"494 224 CURVE SMOOTH",
"494 124 OFFCURVE",
"452 58 OFFCURVE",
"358 58 CURVE SMOOTH",
"304 58 OFFCURVE",
"271 80 OFFCURVE",
"279 130 CURVE SMOOTH",
"280 138 OFFCURVE",
"277 142 OFFCURVE",
"270 142 CURVE SMOOTH",
"218 142 LINE SMOOTH",
"212 142 OFFCURVE",
"208 140 OFFCURVE",
"207 131 CURVE SMOOTH",
"188 36 OFFCURVE",
"252 -11 OFFCURVE",
"351 -11 CURVE SMOOTH"
);
}
);
width = 613;
},
{
layerId = "68DFFD47-52F1-4BAD-AADC-5BAA93A7FBC7";
paths = (
{
closed = 1;
nodes = (
"564 -11 OFFCURVE",
"641 73 OFFCURVE",
"641 232 CURVE SMOOTH",
"641 323 OFFCURVE",
"603 376 OFFCURVE",
"526 393 CURVE",
"661 631 LINE SMOOTH",
"669 644 OFFCURVE",
"664 655 OFFCURVE",
"651 655 CURVE SMOOTH",
"136 655 LINE SMOOTH",
"128 655 OFFCURVE",
"122 650 OFFCURVE",
"121 640 CURVE SMOOTH",
"22 15 LINE SMOOTH",
"20 6 OFFCURVE",
"26 0 OFFCURVE",
"35 0 CURVE SMOOTH",
"181 0 LINE SMOOTH",
"189 0 OFFCURVE",
"195 5 OFFCURVE",
"196 15 CURVE SMOOTH",
"272 497 LINE",
"412 497 LINE",
"333 357 LINE SMOOTH",
"329 351 OFFCURVE",
"327 345 OFFCURVE",
"326 337 CURVE SMOOTH",
"318 289 LINE SMOOTH",
"317 279 OFFCURVE",
"321 274 OFFCURVE",
"331 274 CURVE SMOOTH",
"395 274 LINE SMOOTH",
"443 274 OFFCURVE",
"466 256 OFFCURVE",
"466 218 CURVE SMOOTH",
"466 167 OFFCURVE",
"453 143 OFFCURVE",
"427 143 CURVE SMOOTH",
"410 143 OFFCURVE",
"403 152 OFFCURVE",
"406 172 CURVE SMOOTH",
"407 182 OFFCURVE",
"403 187 OFFCURVE",
"393 187 CURVE SMOOTH",
"266 190 LINE SMOOTH",
"258 190 OFFCURVE",
"253 185 OFFCURVE",
"251 175 CURVE SMOOTH",
"229 45 OFFCURVE",
"280 -11 OFFCURVE",
"418 -11 CURVE SMOOTH"
);
}
);
width = 652;
}
);
leftKerningGroup = H;
leftMetricsKey = H;
rightKerningGroup = S;
unicode = 1E9E;
},
{
glyphname = T;
lastChange = "2022-11-08 21:16:02 +0000";
layers = (
{
anchors = (
{
name = bottom;
position = "{222, 0}";
},
{
name = center;
position = "{273, 328}";
},
{
name = top;
position = "{323, 655}";
}
);
layerId = "4C6D0269-BFF7-43F1-9175-E88494BCD883";
paths = (
{
closed = 1;
nodes = (
"224 0 LINE SMOOTH",
"227 0 OFFCURVE",
"228 0 OFFCURVE",
"229 5 CURVE SMOOTH",
"330 639 LINE",
"526 639 LINE SMOOTH",
"529 639 OFFCURVE",
"530 639 OFFCURVE",
"531 642 CURVE SMOOTH",
"533 651 LINE SMOOTH",
"534 655 OFFCURVE",
"532 655 OFFCURVE",
"530 655 CURVE SMOOTH",
"121 655 LINE SMOOTH",
"118 655 OFFCURVE",
"117 655 OFFCURVE",
"116 652 CURVE SMOOTH",
"114 643 LINE SMOOTH",
"113 639 OFFCURVE",
"115 639 OFFCURVE",
"117 639 CURVE SMOOTH",
"314 639 LINE",
"213 5 LINE SMOOTH",
"212 0 OFFCURVE",
"214 0 OFFCURVE",
"217 0 CURVE SMOOTH"
);
}
);
width = 500;
},
{
anchors = (
{
name = bottom;
position = "{223, 0}";
},
{
name = center;
position = "{273, 328}";
},
{
name = top;
position = "{324, 655}";
}
);
layerId = "7C569905-1C91-4856-B9FC-2D0B6400E3AF";
paths = (
{
closed = 1;
nodes = (
"250 0 LINE SMOOTH",
"255 0 OFFCURVE",
"259 4 OFFCURVE",
"260 10 CURVE SMOOTH",
"351 583 LINE",
"521 583 LINE SMOOTH",
"526 583 OFFCURVE",
"530 587 OFFCURVE",
"531 592 CURVE SMOOTH",
"539 646 LINE SMOOTH",
"540 652 OFFCURVE",
"537 655 OFFCURVE",
"532 655 CURVE SMOOTH",
"116 655 LINE SMOOTH",
"110 655 OFFCURVE",
"106 652 OFFCURVE",
"105 646 CURVE SMOOTH",
"96 592 LINE SMOOTH",
"95 586 OFFCURVE",
"99 583 OFFCURVE",
"105 583 CURVE SMOOTH",
"274 583 LINE",
"183 10 LINE SMOOTH",
"182 3 OFFCURVE",
"185 0 OFFCURVE",
"191 0 CURVE SMOOTH"
);
}
);
width = 500;
},
{
anchors = (
{
name = bottom;
position = "{236, 0}";
},
{
name = center;
position = "{290, 328}";
},
{
name = top;
position = "{342, 655}";
}
);
layerId = "68DFFD47-52F1-4BAD-AADC-5BAA93A7FBC7";
paths = (
{
closed = 1;
nodes = (
"310 0 LINE SMOOTH",
"318 0 OFFCURVE",
"323 6 OFFCURVE",
"324 15 CURVE SMOOTH",
"403 500 LINE",
"550 500 LINE SMOOTH",
"558 500 OFFCURVE",
"565 507 OFFCURVE",
"566 515 CURVE SMOOTH",
"586 640 LINE SMOOTH",
"588 650 OFFCURVE",
"581 655 OFFCURVE",
"572 655 CURVE SMOOTH",
"103 655 LINE SMOOTH",
"95 655 OFFCURVE",
"88 648 OFFCURVE",
"87 640 CURVE SMOOTH",
"67 515 LINE SMOOTH",
"65 505 OFFCURVE",
"72 500 OFFCURVE",
"81 500 CURVE SMOOTH",
"227 500 LINE",
"150 15 LINE SMOOTH",
"149 6 OFFCURVE",
"154 0 OFFCURVE",
"164 0 CURVE SMOOTH"
);
}
);
width = 529;
}
);
leftKerningGroup = T;
rightKerningGroup = T;
unicode = 0054;
},
{
glyphname = Tbar;
lastChange = "2022-11-08 21:16:02 +0000";
layers = (
{
components = (
{
alignment = -1;
name = T;
}
);
layerId = "4C6D0269-BFF7-43F1-9175-E88494BCD883";
paths = (
{
closed = 1;
nodes = (
"265 328 LINE",
"280 328 LINE",
"404 328 LINE SMOOTH",
"407 328 OFFCURVE",
"408 328 OFFCURVE",
"409 331 CURVE SMOOTH",
"411 340 LINE SMOOTH",
"412 344 OFFCURVE",
"410 344 OFFCURVE",
"408 344 CURVE SMOOTH",
"143 344 LINE SMOOTH",
"140 344 OFFCURVE",
"139 344 OFFCURVE",
"138 341 CURVE SMOOTH",
"136 332 LINE SMOOTH",
"135 328 OFFCURVE",
"137 328 OFFCURVE",
"139 328 CURVE SMOOTH"
);
}
);
width = 500;
},
{
components = (
{
alignment = -1;
name = T;
}
);
layerId = "7C569905-1C91-4856-B9FC-2D0B6400E3AF";
paths = (
{
closed = 1;
nodes = (
"229 300 LINE",
"306 300 LINE",
"404 300 LINE SMOOTH",
"410 300 OFFCURVE",
"414 303 OFFCURVE",
"415 309 CURVE SMOOTH",
"422 351 LINE SMOOTH",
"423 357 OFFCURVE",
"419 360 OFFCURVE",
"414 360 CURVE SMOOTH",
"143 360 LINE SMOOTH",
"137 360 OFFCURVE",
"133 357 OFFCURVE",
"132 351 CURVE SMOOTH",
"125 309 LINE SMOOTH",
"124 303 OFFCURVE",
"128 300 OFFCURVE",
"133 300 CURVE SMOOTH"
);
}
);
width = 500;
},
{
components = (
{
alignment = -1;
name = T;
}
);
layerId = "68DFFD47-52F1-4BAD-AADC-5BAA93A7FBC7";
paths = (
{
closed = 1;
nodes = (
"188 250 LINE",
"362 250 LINE",
"432 250 LINE SMOOTH",
"440 250 OFFCURVE",
"446 256 OFFCURVE",
"447 264 CURVE SMOOTH",
"463 363 LINE SMOOTH",
"465 373 OFFCURVE",
"458 378 OFFCURVE",
"449 378 CURVE SMOOTH",
"139 378 LINE SMOOTH",
"130 378 OFFCURVE",
"125 372 OFFCURVE",
"123 363 CURVE SMOOTH",
"108 264 LINE SMOOTH",
"107 255 OFFCURVE",
"112 250 OFFCURVE",
"121 250 CURVE SMOOTH"
);
}
);
width = 529;
}
);
leftKerningGroup = T;
leftMetricsKey = "=T";
rightKerningGroup = T;
rightMetricsKey = "=T";
unicode = 0166;
},
{
glyphname = U;
lastChange = "2022-11-08 21:16:02 +0000";
layers = (
{
anchors = (
{
name = bottom;
position = "{269, 0}";
},
{
name = ogonek;
position = "{362, 10}";
},
{
name = top;
position = "{372, 655}";
},
{
name = topleft;
position = "{141, 655}";
},
{
name = topright;
position = "{652, 655}";
}
);
layerId = "4C6D0269-BFF7-43F1-9175-E88494BCD883";
paths = (
{
closed = 1;
nodes = (
"415 -11 OFFCURVE",
"483 56 OFFCURVE",
"510 224 CURVE SMOOTH",
"578 651 LINE SMOOTH",
"579 655 OFFCURVE",
"577 655 OFFCURVE",
"574 655 CURVE SMOOTH",
"567 655 LINE SMOOTH",
"564 655 OFFCURVE",
"563 655 OFFCURVE",
"562 651 CURVE SMOOTH",
"494 226 LINE SMOOTH",
"469 67 OFFCURVE",
"404 5 OFFCURVE",
"274 5 CURVE SMOOTH",
"143 5 OFFCURVE",
"90 74 OFFCURVE",
"114 225 CURVE SMOOTH",
"182 651 LINE SMOOTH",
"183 655 OFFCURVE",
"181 655 OFFCURVE",
"178 655 CURVE SMOOTH",
"171 655 LINE SMOOTH",
"168 655 OFFCURVE",
"167 655 OFFCURVE",
"166 651 CURVE SMOOTH",
"98 225 LINE SMOOTH",
"73 65 OFFCURVE",
"133 -11 OFFCURVE",
"273 -11 CURVE SMOOTH"
);
}
);
width = 596;
},
{
anchors = (
{
name = bottom;
position = "{264, 0}";
},
{
name = ogonek;
position = "{380, 10}";
},
{
name = top;
position = "{374, 655}";
},
{
name = topleft;
position = "{141, 655}";
},
{
name = topright;
position = "{648, 655}";
}
);
layerId = "7C569905-1C91-4856-B9FC-2D0B6400E3AF";
paths = (
{
closed = 1;
nodes = (
"420 -11 OFFCURVE",
"506 71 OFFCURVE",
"530 223 CURVE SMOOTH",
"598 645 LINE SMOOTH",
"599 652 OFFCURVE",
"596 655 OFFCURVE",
"590 655 CURVE SMOOTH",
"531 655 LINE SMOOTH",
"525 655 OFFCURVE",
"521 652 OFFCURVE",
"520 646 CURVE SMOOTH",
"455 230 LINE SMOOTH",
"436 114 OFFCURVE",
"378 60 OFFCURVE",
"281 60 CURVE SMOOTH",
"175 60 OFFCURVE",
"142 118 OFFCURVE",
"158 226 CURVE SMOOTH",
"225 645 LINE SMOOTH",
"226 652 OFFCURVE",
"223 655 OFFCURVE",
"217 655 CURVE SMOOTH",
"158 655 LINE SMOOTH",
"152 655 OFFCURVE",
"149 652 OFFCURVE",
"148 646 CURVE SMOOTH",
"81 228 LINE SMOOTH",
"56 72 OFFCURVE",
"130 -11 OFFCURVE",
"276 -11 CURVE SMOOTH"
);
}
);
width = 600;
},
{
anchors = (
{
name = bottom;
position = "{283, 0}";
},
{
name = ogonek;
position = "{420, 10}";
},
{
name = top;
position = "{387, 655}";
},
{
name = topleft;
position = "{143, 655}";
},
{
name = topright;
position = "{677, 655}";
}
);
layerId = "68DFFD47-52F1-4BAD-AADC-5BAA93A7FBC7";
paths = (
{
closed = 1;
nodes = (
"474 -11 OFFCURVE",
"560 64 OFFCURVE",
"589 249 CURVE SMOOTH",
"652 640 LINE SMOOTH",
"653 649 OFFCURVE",
"648 655 OFFCURVE",
"638 655 CURVE SMOOTH",
"492 655 LINE SMOOTH",
"483 655 OFFCURVE",
"478 649 OFFCURVE",
"477 640 CURVE SMOOTH",
"416 259 LINE SMOOTH",
"404 183 OFFCURVE",
"378 144 OFFCURVE",
"308 144 CURVE SMOOTH",
"244 144 OFFCURVE",
"217 181 OFFCURVE",
"230 259 CURVE SMOOTH",
"291 640 LINE SMOOTH",
"292 649 OFFCURVE",
"287 655 OFFCURVE",
"277 655 CURVE SMOOTH",
"131 655 LINE SMOOTH",
"122 655 OFFCURVE",
"117 649 OFFCURVE",
"116 640 CURVE SMOOTH",
"56 259 LINE SMOOTH",
"27 74 OFFCURVE",
"113 -11 OFFCURVE",
"294 -11 CURVE SMOOTH"
);
}
);
width = 624;
}
);
leftKerningGroup = U;
rightKerningGroup = U;
unicode = 0055;
},
{
glyphname = V;
lastChange = "2022-11-08 21:16:02 +0000";
layers = (
{
layerId = "4C6D0269-BFF7-43F1-9175-E88494BCD883";
paths = (
{
closed = 1;
nodes = (
"236 0 LINE SMOOTH",
"238 0 OFFCURVE",
"239 0 OFFCURVE",
"241 4 CURVE SMOOTH",
"566 652 LINE SMOOTH",
"567 654 OFFCURVE",
"566 655 OFFCURVE",
"564 655 CURVE SMOOTH",
"553 655 LINE SMOOTH",
"551 655 OFFCURVE",
"550 655 OFFCURVE",
"549 653 CURVE SMOOTH",
"279 117 LINE SMOOTH",
"263 83 OFFCURVE",
"246 49 OFFCURVE",
"231 15 CURVE",
"230 15 LINE",
"226 48 OFFCURVE",
"220 81 OFFCURVE",
"214 114 CURVE SMOOTH",
"112 652 LINE SMOOTH",
"111 655 OFFCURVE",
"110 655 OFFCURVE",
"108 655 CURVE SMOOTH",
"100 655 LINE SMOOTH",
"97 655 OFFCURVE",
"95 655 OFFCURVE",
"96 651 CURVE SMOOTH",
"218 3 LINE SMOOTH",
"218 0 OFFCURVE",
"219 0 OFFCURVE",
"221 0 CURVE SMOOTH"
);
}
);
width = 514;
},
{
layerId = "7C569905-1C91-4856-B9FC-2D0B6400E3AF";
paths = (
{
closed = 1;
nodes = (
"283 0 LINE SMOOTH",
"288 0 OFFCURVE",
"293 3 OFFCURVE",
"295 8 CURVE SMOOTH",
"600 645 LINE SMOOTH",
"603 651 OFFCURVE",
"600 655 OFFCURVE",
"594 655 CURVE SMOOTH",
"529 655 LINE SMOOTH",
"524 655 OFFCURVE",
"520 652 OFFCURVE",
"518 647 CURVE SMOOTH",
"323 232 LINE SMOOTH",
"299 180 OFFCURVE",
"275 129 OFFCURVE",
"252 77 CURVE",
"251 77 LINE",
"244 129 OFFCURVE",
"237 181 OFFCURVE",
"230 234 CURVE SMOOTH",
"169 647 LINE SMOOTH",
"168 652 OFFCURVE",
"165 655 OFFCURVE",
"160 655 CURVE SMOOTH",
"97 655 LINE SMOOTH",
"90 655 OFFCURVE",
"87 652 OFFCURVE",
"88 645 CURVE SMOOTH",
"188 8 LINE SMOOTH",
"189 3 OFFCURVE",
"193 0 OFFCURVE",
"198 0 CURVE SMOOTH"
);
}
);
width = 543;
},
{
layerId = "68DFFD47-52F1-4BAD-AADC-5BAA93A7FBC7";
paths = (
{
closed = 1;
nodes = (
"373 0 LINE SMOOTH",
"381 0 OFFCURVE",
"386 6 OFFCURVE",
"390 15 CURVE SMOOTH",
"675 640 LINE SMOOTH",
"679 648 OFFCURVE",
"676 655 OFFCURVE",
"668 655 CURVE SMOOTH",
"500 655 LINE SMOOTH",
"491 655 OFFCURVE",
"485 649 OFFCURVE",
"481 640 CURVE SMOOTH",
"351 301 LINE SMOOTH",
"332 251 OFFCURVE",
"315 202 OFFCURVE",
"299 152 CURVE",
"296 152 LINE",
"294 201 OFFCURVE",
"292 250 OFFCURVE",
"288 299 CURVE SMOOTH",
"263 640 LINE SMOOTH",
"262 649 OFFCURVE",
"257 655 OFFCURVE",
"248 655 CURVE SMOOTH",
"91 655 LINE SMOOTH",
"82 655 OFFCURVE",
"76 649 OFFCURVE",
"78 639 CURVE SMOOTH",
"167 15 LINE SMOOTH",
"168 5 OFFCURVE",
"173 0 OFFCURVE",
"182 0 CURVE SMOOTH"
);
}
);
width = 608;
}
);
leftKerningGroup = V;
rightKerningGroup = V;
unicode = 0056;
},
{
glyphname = W;
lastChange = "2022-11-08 21:16:02 +0000";
layers = (
{
anchors = (
{
name = bottom;
position = "{377, 0}";
},
{
name = top;
position = "{457, 655}";
}
);
layerId = "4C6D0269-BFF7-43F1-9175-E88494BCD883";
paths = (
{
closed = 1;
nodes = (
"217 0 LINE SMOOTH",
"220 0 OFFCURVE",
"221 0 OFFCURVE",
"223 4 CURVE SMOOTH",
"404 391 LINE SMOOTH",
"418 421 OFFCURVE",
"431 451 OFFCURVE",
"444 481 CURVE",
"445 481 LINE",
"448 447 OFFCURVE",
"451 419 OFFCURVE",
"454 388 CURVE SMOOTH",
"501 4 LINE SMOOTH",
"501 0 OFFCURVE",
"503 0 OFFCURVE",
"506 0 CURVE",
"520 0 LINE SMOOTH",
"523 0 OFFCURVE",
"524 0 OFFCURVE",
"526 4 CURVE SMOOTH",
"819 652 LINE SMOOTH",
"820 654 OFFCURVE",
"819 655 OFFCURVE",
"817 655 CURVE SMOOTH",
"805 655 LINE SMOOTH",
"803 655 OFFCURVE",
"802 655 OFFCURVE",
"801 652 CURVE SMOOTH",
"568 134 LINE SMOOTH",
"550 95 OFFCURVE",
"532 55 OFFCURVE",
"515 15 CURVE",
"514 15 LINE",
"510 57 OFFCURVE",
"505 99 OFFCURVE",
"500 141 CURVE SMOOTH",
"441 641 LINE SMOOTH",
"440 645 OFFCURVE",
"439 645 OFFCURVE",
"436 645 CURVE SMOOTH",
"429 645 LINE SMOOTH",
"426 645 OFFCURVE",
"426 644 OFFCURVE",
"426 641 CURVE SMOOTH",
"441 508 LINE",
"267 133 LINE SMOOTH",
"248 94 OFFCURVE",
"231 54 OFFCURVE",
"213 15 CURVE",
"212 15 LINE",
"207 55 OFFCURVE",
"202 95 OFFCURVE",
"196 135 CURVE SMOOTH",
"126 651 LINE SMOOTH",
"125 655 OFFCURVE",
"124 655 OFFCURVE",
"121 655 CURVE SMOOTH",
"113 655 LINE SMOOTH",
"111 655 OFFCURVE",
"110 654 OFFCURVE",
"110 652 CURVE SMOOTH",
"199 4 LINE SMOOTH",
"200 0 OFFCURVE",
"201 0 OFFCURVE",
"204 0 CURVE SMOOTH"
);
}
);
width = 781;
},
{
anchors = (
{
name = bottom;
position = "{362, 0}";
},
{
name = top;
position = "{455, 655}";
}
);
layerId = "7C569905-1C91-4856-B9FC-2D0B6400E3AF";
paths = (
{
closed = 1;
nodes = (
"253 0 LINE SMOOTH",
"258 0 OFFCURVE",
"261 3 OFFCURVE",
"264 8 CURVE SMOOTH",
"382 274 LINE SMOOTH",
"398 312 OFFCURVE",
"414 350 OFFCURVE",
"430 388 CURVE",
"431 388 LINE",
"435 349 OFFCURVE",
"438 312 OFFCURVE",
"442 275 CURVE SMOOTH",
"472 8 LINE SMOOTH",
"472 3 OFFCURVE",
"475 0 OFFCURVE",
"481 0 CURVE",
"563 0 LINE SMOOTH",
"569 0 OFFCURVE",
"572 3 OFFCURVE",
"574 8 CURVE SMOOTH",
"841 645 LINE SMOOTH",
"845 651 OFFCURVE",
"841 655 OFFCURVE",
"835 655 CURVE SMOOTH",
"773 655 LINE SMOOTH",
"767 655 OFFCURVE",
"763 652 OFFCURVE",
"761 646 CURVE SMOOTH",
"587 227 LINE SMOOTH",
"568 180 OFFCURVE",
"550 133 OFFCURVE",
"533 86 CURVE",
"532 86 LINE",
"529 131 OFFCURVE",
"525 175 OFFCURVE",
"521 220 CURVE SMOOTH",
"481 636 LINE SMOOTH",
"481 641 OFFCURVE",
"477 645 OFFCURVE",
"472 645 CURVE SMOOTH",
"412 645 LINE SMOOTH",
"405 645 OFFCURVE",
"401 641 OFFCURVE",
"402 634 CURVE SMOOTH",
"415 510 LINE",
"285 218 LINE SMOOTH",
"266 174 OFFCURVE",
"247 130 OFFCURVE",
"228 86 CURVE",
"227 86 LINE",
"223 134 OFFCURVE",
"220 183 OFFCURVE",
"216 232 CURVE SMOOTH",
"172 646 LINE SMOOTH",
"171 652 OFFCURVE",
"169 655 OFFCURVE",
"163 655 CURVE SMOOTH",
"103 655 LINE SMOOTH",
"97 655 OFFCURVE",
"93 651 OFFCURVE",
"94 645 CURVE SMOOTH",
"164 8 LINE SMOOTH",
"164 3 OFFCURVE",
"168 0 OFFCURVE",
"174 0 CURVE SMOOTH"
);
}
);
width = 791;
},
{
anchors = (
{
name = bottom;
position = "{401, 0}";
},
{
name = top;
position = "{504, 655}";
}
);
layerId = "68DFFD47-52F1-4BAD-AADC-5BAA93A7FBC7";
paths = (
{
closed = 1;
nodes = (
"305 0 LINE SMOOTH",
"313 0 OFFCURVE",
"319 6 OFFCURVE",
"322 15 CURVE SMOOTH",
"391 171 LINE SMOOTH",
"414 221 OFFCURVE",
"432 269 OFFCURVE",
"452 318 CURVE",
"455 318 LINE",
"458 269 OFFCURVE",
"462 220 OFFCURVE",
"466 171 CURVE SMOOTH",
"480 15 LINE SMOOTH",
"481 5 OFFCURVE",
"487 0 OFFCURVE",
"496.004 0 CURVE SMOOTH",
"658 0 LINE SMOOTH",
"666 0 OFFCURVE",
"671 6 OFFCURVE",
"675 15 CURVE SMOOTH",
"924 640 LINE SMOOTH",
"927 648 OFFCURVE",
"924 655 OFFCURVE",
"916 655 CURVE SMOOTH",
"764 655 LINE SMOOTH",
"755 655 OFFCURVE",
"748 649 OFFCURVE",
"745 640 CURVE SMOOTH",
"672 438 LINE SMOOTH",
"646 366 OFFCURVE",
"616 249 OFFCURVE",
"597 176 CURVE",
"595 176 LINE",
"595 228 OFFCURVE",
"593 279 OFFCURVE",
"589 330 CURVE SMOOTH",
"564 622 LINE SMOOTH",
"563 632 OFFCURVE",
"559 637 OFFCURVE",
"549 637 CURVE SMOOTH",
"407 637 LINE SMOOTH",
"397 637 OFFCURVE",
"392 632 OFFCURVE",
"394 622 CURVE SMOOTH",
"412 506 LINE",
"325 320 LINE SMOOTH",
"303 273 OFFCURVE",
"283 224 OFFCURVE",
"264 176 CURVE",
"261 176 LINE",
"266 247 OFFCURVE",
"267 318 OFFCURVE",
"264 388 CURVE SMOOTH",
"252 640 LINE SMOOTH",
"251 650 OFFCURVE",
"247 655 OFFCURVE",
"237 655 CURVE SMOOTH",
"94 655 LINE SMOOTH",
"85 655 OFFCURVE",
"80 650 OFFCURVE",
"81 640 CURVE SMOOTH",
"136 15 LINE SMOOTH",
"137 5 OFFCURVE",
"143 0 OFFCURVE",
"152 0 CURVE SMOOTH"
);
}
);
width = 861;
}
);
leftKerningGroup = W;
rightKerningGroup = W;
unicode = 0057;
},
{
glyphname = X;
lastChange = "2022-11-08 21:16:02 +0000";
layers = (
{
layerId = "4C6D0269-BFF7-43F1-9175-E88494BCD883";
paths = (
{
closed = 1;
nodes = (
"-3 0 LINE SMOOTH",
"0 0 OFFCURVE",
"1 1 OFFCURVE",
"3 3 CURVE SMOOTH",
"161 197 LINE SMOOTH",
"196 239 OFFCURVE",
"231 281 OFFCURVE",
"266 323 CURVE",
"267 323 LINE",
"288 282 OFFCURVE",
"309 241 OFFCURVE",
"330 200 CURVE SMOOTH",
"431 2 LINE SMOOTH",
"432 0 OFFCURVE",
"434 0 OFFCURVE",
"436 0 CURVE SMOOTH",
"445 0 LINE SMOOTH",
"447 0 OFFCURVE",
"449 2 OFFCURVE",
"448 4 CURVE SMOOTH",
"280 336 LINE",
"539 651 LINE SMOOTH",
"541 653 OFFCURVE",
"540 655 OFFCURVE",
"538 655 CURVE SMOOTH",
"525 655 LINE SMOOTH",
"523 655 OFFCURVE",
"522 655 OFFCURVE",
"520 653 CURVE SMOOTH",
"353 450 LINE SMOOTH",
"325 416 OFFCURVE",
"298 383 OFFCURVE",
"270 349 CURVE",
"269 349 LINE",
"253 382 OFFCURVE",
"235 415 OFFCURVE",
"219 448 CURVE SMOOTH",
"113 653 LINE SMOOTH",
"112 655 OFFCURVE",
"111 655 OFFCURVE",
"109 655 CURVE SMOOTH",
"99 655 LINE SMOOTH",
"97 655 OFFCURVE",
"96 653 OFFCURVE",
"97 651 CURVE SMOOTH",
"256 337 LINE",
"-16 5 LINE SMOOTH",
"-18 2 OFFCURVE",
"-18 0 OFFCURVE",
"-15 0 CURVE SMOOTH"
);
}
);
width = 488;
},
{
layerId = "7C569905-1C91-4856-B9FC-2D0B6400E3AF";
paths = (
{
closed = 1;
nodes = (
"58 0 LINE SMOOTH",
"63 0 OFFCURVE",
"66 3 OFFCURVE",
"70 7 CURVE SMOOTH",
"211 189 LINE SMOOTH",
"232 217 OFFCURVE",
"253 246 OFFCURVE",
"274 274 CURVE",
"275 274 LINE",
"287 245 OFFCURVE",
"299 216 OFFCURVE",
"311 187 CURVE SMOOTH",
"392 6 LINE SMOOTH",
"394 1 OFFCURVE",
"398 0 OFFCURVE",
"403 0 CURVE SMOOTH",
"471 0 LINE SMOOTH",
"478 0 OFFCURVE",
"481 4 OFFCURVE",
"478 11 CURVE SMOOTH",
"331 336 LINE",
"568 644 LINE SMOOTH",
"572 650 OFFCURVE",
"569 655 OFFCURVE",
"563 655 CURVE SMOOTH",
"492 655 LINE SMOOTH",
"487 655 OFFCURVE",
"483 653 OFFCURVE",
"480 649 CURVE SMOOTH",
"353 485 LINE SMOOTH",
"332 456 OFFCURVE",
"311 428 OFFCURVE",
"290 399 CURVE",
"289 399 LINE",
"277 428 OFFCURVE",
"265 456 OFFCURVE",
"253 485 CURVE SMOOTH",
"179 648 LINE SMOOTH",
"177 653 OFFCURVE",
"173 655 OFFCURVE",
"168 655 CURVE SMOOTH",
"99 655 LINE SMOOTH",
"92 655 OFFCURVE",
"89 650 OFFCURVE",
"91 644 CURVE SMOOTH",
"231 338 LINE",
"-21 11 LINE SMOOTH",
"-25 5 OFFCURVE",
"-24 0 OFFCURVE",
"-17 0 CURVE SMOOTH"
);
}
);
width = 513;
},
{
layerId = "68DFFD47-52F1-4BAD-AADC-5BAA93A7FBC7";
paths = (
{
closed = 1;
nodes = (
"159 0 LINE SMOOTH",
"168 0 OFFCURVE",
"174 7 OFFCURVE",
"180 15 CURVE SMOOTH",
"246 116 LINE SMOOTH",
"264 143 OFFCURVE",
"282 173 OFFCURVE",
"299 202 CURVE",
"302 202 LINE",
"311 172 OFFCURVE",
"319 142 OFFCURVE",
"329 113 CURVE SMOOTH",
"362 15 LINE SMOOTH",
"365 6 OFFCURVE",
"369 0 OFFCURVE",
"379 0 CURVE SMOOTH",
"545 0 LINE SMOOTH",
"554 0 OFFCURVE",
"562 6 OFFCURVE",
"558 15 CURVE SMOOTH",
"417 335 LINE",
"647 640 LINE SMOOTH",
"651 648 OFFCURVE",
"647 655 OFFCURVE",
"639 655 CURVE SMOOTH",
"464 655 LINE SMOOTH",
"456 655 OFFCURVE",
"451 648 OFFCURVE",
"445 640 CURVE SMOOTH",
"390 553 LINE SMOOTH",
"373 525 OFFCURVE",
"354 495 OFFCURVE",
"338 467 CURVE",
"336 467 LINE",
"328 494 OFFCURVE",
"320 523 OFFCURVE",
"310 551 CURVE SMOOTH",
"279 640 LINE SMOOTH",
"276 649 OFFCURVE",
"273 655 OFFCURVE",
"263 655 CURVE SMOOTH",
"97 655 LINE SMOOTH",
"88 655 OFFCURVE",
"81 649 OFFCURVE",
"85 640 CURVE SMOOTH",
"219 334 LINE",
"-26 15 LINE SMOOTH",
"-30 7 OFFCURVE",
"-27 0 OFFCURVE",
"-18 0 CURVE SMOOTH"
);
}
);
width = 586;
}
);
leftKerningGroup = X;
rightKerningGroup = X;
unicode = 0058;
},
{
glyphname = Y;
lastChange = "2022-11-08 21:16:02 +0000";
layers = (
{
anchors = (
{
name = bottom;
position = "{206, 0}";
},
{
name = top;
position = "{302, 655}";
},
{
name = topleft;
position = "{94, 655}";
}
);
layerId = "4C6D0269-BFF7-43F1-9175-E88494BCD883";
paths = (
{
closed = 1;
nodes = (
"209 0 LINE SMOOTH",
"212 0 OFFCURVE",
"213 0 OFFCURVE",
"214 5 CURVE SMOOTH",
"249 225 LINE",
"528 651 LINE SMOOTH",
"529 654 OFFCURVE",
"528 655 OFFCURVE",
"525 655 CURVE SMOOTH",
"516 655 LINE SMOOTH",
"514 655 OFFCURVE",
"513 655 OFFCURVE",
"511 652 CURVE SMOOTH",
"326 370 LINE SMOOTH",
"298 328 OFFCURVE",
"272 287 OFFCURVE",
"244 245 CURVE",
"243 245 LINE",
"230 287 OFFCURVE",
"215 328 OFFCURVE",
"202 370 CURVE SMOOTH",
"107 651 LINE SMOOTH",
"106 654 OFFCURVE",
"105 655 OFFCURVE",
"103 655 CURVE SMOOTH",
"94 655 LINE SMOOTH",
"92 655 OFFCURVE",
"90 654 OFFCURVE",
"91 651 CURVE SMOOTH",
"233 225 LINE",
"198 5 LINE SMOOTH",
"197 0 OFFCURVE",
"199 0 OFFCURVE",
"202 0 CURVE SMOOTH"
);
}
);
width = 471;
},
{
anchors = (
{
name = bottom;
position = "{214, 0}";
},
{
name = top;
position = "{316, 655}";
},
{
name = topleft;
position = "{86, 655}";
}
);
layerId = "7C569905-1C91-4856-B9FC-2D0B6400E3AF";
paths = (
{
closed = 1;
nodes = (
"250 0 LINE SMOOTH",
"255 0 OFFCURVE",
"259 4 OFFCURVE",
"260 10 CURVE SMOOTH",
"294 225 LINE",
"561 644 LINE SMOOTH",
"564 651 OFFCURVE",
"562 655 OFFCURVE",
"556 655 CURVE SMOOTH",
"486 655 LINE SMOOTH",
"480 655 OFFCURVE",
"477 652 OFFCURVE",
"474 647 CURVE SMOOTH",
"342 435 LINE SMOOTH",
"316 392 OFFCURVE",
"292 351 OFFCURVE",
"267 309 CURVE",
"266 309 LINE",
"255 351 OFFCURVE",
"242 393 OFFCURVE",
"230 435 CURVE SMOOTH",
"167 646 LINE SMOOTH",
"166 652 OFFCURVE",
"162 655 OFFCURVE",
"157 655 CURVE SMOOTH",
"91 655 LINE SMOOTH",
"85 655 OFFCURVE",
"82 651 OFFCURVE",
"83 644 CURVE SMOOTH",
"217 225 LINE",
"183 10 LINE SMOOTH",
"182 3 OFFCURVE",
"185 0 OFFCURVE",
"191 0 CURVE SMOOTH"
);
}
);
width = 500;
},
{
anchors = (
{
name = bottom;
position = "{259, 0}";
},
{
name = top;
position = "{354, 655}";
},
{
name = topleft;
position = "{84, 655}";
}
);
layerId = "68DFFD47-52F1-4BAD-AADC-5BAA93A7FBC7";
paths = (
{
closed = 1;
nodes = (
"334 0 LINE SMOOTH",
"343 0 OFFCURVE",
"348 6 OFFCURVE",
"349 15 CURVE SMOOTH",
"383 227 LINE",
"649 640 LINE SMOOTH",
"654 647 OFFCURVE",
"650 655 OFFCURVE",
"641 655 CURVE SMOOTH",
"469 655 LINE SMOOTH",
"460 655 OFFCURVE",
"454 649 OFFCURVE",
"450 640 CURVE SMOOTH",
"384 516 LINE SMOOTH",
"360 470 OFFCURVE",
"338 425 OFFCURVE",
"314 380 CURVE",
"312 380 LINE",
"304 425 OFFCURVE",
"295 472 OFFCURVE",
"285 517 CURVE SMOOTH",
"260 640 LINE SMOOTH",
"258 649 OFFCURVE",
"254 655 OFFCURVE",
"244 655 CURVE SMOOTH",
"86 655 LINE SMOOTH",
"77 655 OFFCURVE",
"71 649 OFFCURVE",
"74 640 CURVE SMOOTH",
"208 227 LINE",
"175 15 LINE SMOOTH",
"173 6 OFFCURVE",
"179 0 OFFCURVE",
"188 0 CURVE SMOOTH"
);
}
);
width = 579;
}
);
leftKerningGroup = Y;
rightKerningGroup = Y;
unicode = 0059;
},
{
glyphname = Z;
lastChange = "2022-11-08 21:16:02 +0000";
layers = (
{
anchors = (
{
name = bottom;
position = "{215, 0}";
},
{
name = top;
position = "{324, 655}";
}
);
layerId = "4C6D0269-BFF7-43F1-9175-E88494BCD883";
paths = (
{
closed = 1;
nodes = (
"403 0 LINE SMOOTH",
"406 0 OFFCURVE",
"407 0 OFFCURVE",
"408 3 CURVE SMOOTH",
"410 12 LINE SMOOTH",
"411 16 OFFCURVE",
"409 16 OFFCURVE",
"407 16 CURVE SMOOTH",
"138 16 LINE SMOOTH",
"102 16 OFFCURVE",
"65 16 OFFCURVE",
"29 16 CURVE",
"29 17 LINE",
"55 51 OFFCURVE",
"82 83 OFFCURVE",
"108 117 CURVE SMOOTH",
"523 642 LINE SMOOTH",
"525 644 OFFCURVE",
"526 645 OFFCURVE",
"527 648 CURVE SMOOTH",
"528 652 LINE SMOOTH",
"529 655 OFFCURVE",
"527 655 OFFCURVE",
"525 655 CURVE SMOOTH",
"141 655 LINE SMOOTH",
"138 655 OFFCURVE",
"137 655 OFFCURVE",
"136 652 CURVE SMOOTH",
"134 643 LINE SMOOTH",
"133 639 OFFCURVE",
"135 639 OFFCURVE",
"137 639 CURVE SMOOTH",
"380 639 LINE SMOOTH",
"421 639 OFFCURVE",
"460 639 OFFCURVE",
"500 639 CURVE",
"500 638 LINE",
"477 609 OFFCURVE",
"454 580 OFFCURVE",
"432 552 CURVE SMOOTH",
"8 15 LINE SMOOTH",
"5 12 OFFCURVE",
"4 11 OFFCURVE",
"3 7 CURVE SMOOTH",
"2 4 LINE SMOOTH",
"1 1 OFFCURVE",
"2 0 OFFCURVE",
"5 0 CURVE SMOOTH"
);
}
);
width = 489;
},
{
anchors = (
{
name = bottom;
position = "{216, 0}";
},
{
name = top;
position = "{328, 655}";
}
);
layerId = "7C569905-1C91-4856-B9FC-2D0B6400E3AF";
paths = (
{
closed = 1;
nodes = (
"423 0 LINE SMOOTH",
"429 0 OFFCURVE",
"433 4 OFFCURVE",
"434 9 CURVE SMOOTH",
"443 63 LINE SMOOTH",
"444 69 OFFCURVE",
"440 72 OFFCURVE",
"434 72 CURVE SMOOTH",
"233 72 LINE SMOOTH",
"196 72 OFFCURVE",
"159 72 OFFCURVE",
"121 72 CURVE",
"121 73 LINE",
"146 105 OFFCURVE",
"172 137 OFFCURVE",
"197 169 CURVE SMOOTH",
"550 632 LINE SMOOTH",
"553 636 OFFCURVE",
"555 640 OFFCURVE",
"555 644 CURVE SMOOTH",
"556 647 LINE SMOOTH",
"556 652 OFFCURVE",
"553 655 OFFCURVE",
"548 655 CURVE SMOOTH",
"133 655 LINE SMOOTH",
"128 655 OFFCURVE",
"124 652 OFFCURVE",
"122 646 CURVE SMOOTH",
"114 592 LINE SMOOTH",
"113 586 OFFCURVE",
"116 583 OFFCURVE",
"122 583 CURVE SMOOTH",
"316 583 LINE SMOOTH",
"352 583 OFFCURVE",
"387 583 OFFCURVE",
"423 583 CURVE",
"423 582 LINE",
"399 551 OFFCURVE",
"373 518 OFFCURVE",
"349 485 CURVE SMOOTH",
"-3 24 LINE SMOOTH",
"-6 19 OFFCURVE",
"-8 15 OFFCURVE",
"-8 10 CURVE SMOOTH",
"-9 8 LINE SMOOTH",
"-9 2 OFFCURVE",
"-6 0 OFFCURVE",
"-1 0 CURVE SMOOTH"
);
}
);
width = 506;
},
{
anchors = (
{
name = bottom;
position = "{239, 0}";
},
{
name = top;
position = "{356, 655}";
}
);
layerId = "68DFFD47-52F1-4BAD-AADC-5BAA93A7FBC7";
paths = (
{
closed = 1;
nodes = (
"463 0 LINE SMOOTH",
"472 0 OFFCURVE",
"478 7 OFFCURVE",
"479 15 CURVE SMOOTH",
"499 140 LINE SMOOTH",
"501 150 OFFCURVE",
"495 155 OFFCURVE",
"486 155 CURVE SMOOTH",
"361 155 LINE SMOOTH",
"325 155 OFFCURVE",
"292 155 OFFCURVE",
"259 153 CURVE",
"259 156 LINE",
"285 188 OFFCURVE",
"312 223 OFFCURVE",
"336 258 CURVE SMOOTH",
"591 613 LINE SMOOTH",
"595 619 OFFCURVE",
"598 624 OFFCURVE",
"599 631 CURVE SMOOTH",
"601 640 LINE SMOOTH",
"602 649 OFFCURVE",
"597 655 OFFCURVE",
"589 655 CURVE SMOOTH",
"122 655 LINE SMOOTH",
"114 655 OFFCURVE",
"108 648 OFFCURVE",
"106 640 CURVE SMOOTH",
"86 515 LINE SMOOTH",
"84 505 OFFCURVE",
"91 500 OFFCURVE",
"100 500 CURVE SMOOTH",
"216 500 LINE SMOOTH",
"251 500 OFFCURVE",
"284 500 OFFCURVE",
"317 501 CURVE",
"317 499 LINE",
"294 469 OFFCURVE",
"271 438 OFFCURVE",
"249 406 CURVE SMOOTH",
"-9 42 LINE SMOOTH",
"-14 36 OFFCURVE",
"-15 31 OFFCURVE",
"-16 24 CURVE SMOOTH",
"-17 15 LINE SMOOTH",
"-19 6 OFFCURVE",
"-15 0 OFFCURVE",
"-6 0 CURVE SMOOTH"
);
}
);
width = 541;
}
);
leftKerningGroup = Z;
rightKerningGroup = Z;
unicode = 005A;
},
{
glyphname = a;
lastChange = "2022-11-08 21:16:38 +0000";
layers = (
{
anchors = (
{
name = bottom;
position = "{205, 0}";
},
{
name = ogonek;
position = "{383, 10}";
},
{
name = top;
position = "{283, 478}";
}
);
layerId = "4C6D0269-BFF7-43F1-9175-E88494BCD883";
paths = (
{
closed = 1;
nodes = (
"233 -11 OFFCURVE",
"295 25 OFFCURVE",
"371 99 CURVE",
"365 67 OFFCURVE",
"362 33 OFFCURVE",
"360 3 CURVE SMOOTH",
"360 0 OFFCURVE",
"361 0 OFFCURVE",
"363 0 CURVE SMOOTH",
"373 0 LINE SMOOTH",
"375 0 OFFCURVE",
"376 1 OFFCURVE",
"376 3 CURVE SMOOTH",
"378 31 OFFCURVE",
"380 59 OFFCURVE",
"388 110 CURVE SMOOTH",
"444 462 LINE",
"385 474 OFFCURVE",
"337 489 OFFCURVE",
"283 489 CURVE SMOOTH",
"181 489 OFFCURVE",
"109 444 OFFCURVE",
"91 330 CURVE SMOOTH",
"63 151 LINE SMOOTH",
"46 41 OFFCURVE",
"82 -11 OFFCURVE",
"169 -11 CURVE SMOOTH"
);
},
{
closed = 1;
nodes = (
"91 5 OFFCURVE",
"64 52 OFFCURVE",
"79 152 CURVE SMOOTH",
"107 328 LINE SMOOTH",
"124 434 OFFCURVE",
"192 473 OFFCURVE",
"283 473 CURVE SMOOTH",
"325 473 OFFCURVE",
"376 462 OFFCURVE",
"426 449 CURVE",
"375 121 LINE",
"294 44 OFFCURVE",
"232 5 OFFCURVE",
"170 5 CURVE SMOOTH"
);
}
);
width = 488;
},
{
anchors = (
{
name = bottom;
position = "{212, 0}";
},
{
name = ogonek;
position = "{415, 10}";
},
{
name = top;
position = "{291, 487}";
}
);
layerId = "7C569905-1C91-4856-B9FC-2D0B6400E3AF";
paths = (
{
closed = 1;
nodes = (
"218 -11 OFFCURVE",
"280 19 OFFCURVE",
"340 77 CURVE",
"338 54 OFFCURVE",
"336 30 OFFCURVE",
"336 9 CURVE SMOOTH",
"336 3 OFFCURVE",
"339 0 OFFCURVE",
"345 0 CURVE SMOOTH",
"396 0 LINE SMOOTH",
"403 0 OFFCURVE",
"407 3 OFFCURVE",
"407 9 CURVE SMOOTH",
"408 43 OFFCURVE",
"412 80 OFFCURVE",
"419 121 CURVE SMOOTH",
"475 474 LINE",
"404 480 OFFCURVE",
"352 498 OFFCURVE",
"286 498 CURVE SMOOTH",
"163 498 OFFCURVE",
"99 447 OFFCURVE",
"78 317 CURVE SMOOTH",
"55 170 LINE SMOOTH",
"37 60 OFFCURVE",
"66 -11 OFFCURVE",
"160 -11 CURVE SMOOTH"
);
},
{
closed = 1;
nodes = (
"133 59 OFFCURVE",
"120 100 OFFCURVE",
"131 170 CURVE SMOOTH",
"154 311 LINE SMOOTH",
"168 394 OFFCURVE",
"206 429 OFFCURVE",
"286 429 CURVE SMOOTH",
"315 429 OFFCURVE",
"356 424 OFFCURVE",
"389 417 CURVE",
"345 141 LINE",
"280 83 OFFCURVE",
"236 59 OFFCURVE",
"192 59 CURVE SMOOTH"
);
}
);
width = 500;
},
{
anchors = (
{
name = bottom;
position = "{218, 0}";
},
{
name = ogonek;
position = "{455, 10}";
},
{
name = top;
position = "{308, 499}";
}
);
layerId = "68DFFD47-52F1-4BAD-AADC-5BAA93A7FBC7";
paths = (
{
closed = 1;
nodes = (
"187 -11 OFFCURVE",
"251 17 OFFCURVE",
"304 68 CURVE",
"303 49 OFFCURVE",
"302 30 OFFCURVE",
"303 15 CURVE SMOOTH",
"304 6 OFFCURVE",
"309 0 OFFCURVE",
"318 0 CURVE SMOOTH",
"438 0 LINE SMOOTH",
"446 0 OFFCURVE",
"451 5 OFFCURVE",
"452 15 CURVE SMOOTH",
"455 49 OFFCURVE",
"459 87 OFFCURVE",
"466 131 CURVE SMOOTH",
"523 489 LINE",
"448 494 OFFCURVE",
"378 511 OFFCURVE",
"285 511 CURVE SMOOTH",
"139 511 OFFCURVE",
"72 452 OFFCURVE",
"50 317 CURVE SMOOTH",
"24 157 LINE SMOOTH",
"6 48 OFFCURVE",
"39 -11 OFFCURVE",
"129 -11 CURVE SMOOTH"
);
},
{
closed = 1;
nodes = (
"205 137 OFFCURVE",
"194 155 OFFCURVE",
"200 191 CURVE SMOOTH",
"218 306 LINE SMOOTH",
"224 351 OFFCURVE",
"242 372 OFFCURVE",
"278 372 CURVE SMOOTH",
"302 372 OFFCURVE",
"319 369 OFFCURVE",
"334 366 CURVE",
"302 166 LINE",
"279 148 OFFCURVE",
"259 137 OFFCURVE",
"234 137 CURVE SMOOTH"
);
}
);
width = 514;
}
);
leftKerningGroup = o;
leftMetricsKey = o;
rightKerningGroup = u;
rightMetricsKey = u;
unicode = 0061;
},
{
glyphname = ae;
lastChange = "2022-11-08 21:16:38 +0000";
layers = (
{
layerId = "4C6D0269-BFF7-43F1-9175-E88494BCD883";
paths = (
{
closed = 1;
nodes = (
"202 -11 OFFCURVE",
"252 16 OFFCURVE",
"337 104 CURVE",
"346 29 OFFCURVE",
"397 -11 OFFCURVE",
"482 -11 CURVE SMOOTH",
"586 -11 OFFCURVE",
"641 30 OFFCURVE",
"652 118 CURVE SMOOTH",
"652 120 OFFCURVE",
"651 122 OFFCURVE",
"649 122 CURVE SMOOTH",
"640 122 LINE SMOOTH",
"637 122 OFFCURVE",
"636 121 OFFCURVE",
"636 118 CURVE SMOOTH",
"627 42 OFFCURVE",
"578 5 OFFCURVE",
"486 5 CURVE SMOOTH",
"384 5 OFFCURVE",
"338 61 OFFCURVE",
"355 168 CURVE SMOOTH",
"367 245 LINE",
"516 254 LINE SMOOTH",
"651 262 OFFCURVE",
"690 305 OFFCURVE",
"690 382 CURVE SMOOTH",
"690 450 OFFCURVE",
"638 489 OFFCURVE",
"548 489 CURVE SMOOTH",
"470 489 OFFCURVE",
"412 457 OFFCURVE",
"383 395 CURVE",
"379 456 OFFCURVE",
"337 489 OFFCURVE",
"264 489 CURVE SMOOTH",
"171 489 OFFCURVE",
"123 451 OFFCURVE",
"116 368 CURVE SMOOTH",
"116 364 OFFCURVE",
"116 363 OFFCURVE",
"119 363 CURVE SMOOTH",
"129 363 LINE SMOOTH",
"132 363 OFFCURVE",
"132 365 OFFCURVE",
"132 368 CURVE SMOOTH",
"139 440 OFFCURVE",
"180 473 OFFCURVE",
"262 473 CURVE SMOOTH",
"345 473 OFFCURVE",
"379 431 OFFCURVE",
"365 341 CURVE SMOOTH",
"353 260 LINE",
"207 249 LINE SMOOTH",
"101 241 OFFCURVE",
"46 188 OFFCURVE",
"46 88 CURVE SMOOTH",
"46 26 OFFCURVE",
"80 -11 OFFCURVE",
"136 -11 CURVE SMOOTH"
);
},
{
closed = 1;
nodes = (
"90 5 OFFCURVE",
"62 36 OFFCURVE",
"62 91 CURVE SMOOTH",
"62 176 OFFCURVE",
"111 226 OFFCURVE",
"205 233 CURVE SMOOTH",
"351 244 LINE",
"341 180 LINE SMOOTH",
"338 156 OFFCURVE",
"337 142 OFFCURVE",
"336 126 CURVE",
"255 39 OFFCURVE",
"200 5 OFFCURVE",
"138 5 CURVE SMOOTH"
);
},
{
closed = 1;
nodes = (
"379 327 LINE SMOOTH",
"395 423 OFFCURVE",
"452 473 OFFCURVE",
"547 473 CURVE SMOOTH",
"628 473 OFFCURVE",
"674 440 OFFCURVE",
"674 380 CURVE SMOOTH",
"674 305 OFFCURVE",
"630 277 OFFCURVE",
"514 270 CURVE SMOOTH",
"370 261 LINE"
);
}
);
width = 738;
},
{
layerId = "7C569905-1C91-4856-B9FC-2D0B6400E3AF";
paths = (
{
closed = 1;
nodes = (
"213 -11 OFFCURVE",
"266 15 OFFCURVE",
"332 83 CURVE",
"351 19 OFFCURVE",
"402 -11 OFFCURVE",
"484 -11 CURVE SMOOTH",
"596 -11 OFFCURVE",
"669 41 OFFCURVE",
"672 125 CURVE SMOOTH",
"672 131 OFFCURVE",
"670 135 OFFCURVE",
"663 135 CURVE SMOOTH",
"605 135 LINE SMOOTH",
"599 135 OFFCURVE",
"596 132 OFFCURVE",
"595 125 CURVE SMOOTH",
"588 80 OFFCURVE",
"550 58 OFFCURVE",
"494 58 CURVE SMOOTH",
"423 58 OFFCURVE",
"389 95 OFFCURVE",
"399 166 CURVE SMOOTH",
"408 224 LINE",
"541 227 LINE SMOOTH",
"655 230 OFFCURVE",
"713 282 OFFCURVE",
"713 371 CURVE SMOOTH",
"713 454 OFFCURVE",
"658 498 OFFCURVE",
"560 498 CURVE SMOOTH",
"496 498 OFFCURVE",
"447 476 OFFCURVE",
"407 429 CURVE",
"389 475 OFFCURVE",
"345 498 OFFCURVE",
"278 498 CURVE SMOOTH",
"176 498 OFFCURVE",
"109 449 OFFCURVE",
"108 363 CURVE SMOOTH",
"108 356 OFFCURVE",
"111 353 OFFCURVE",
"117 353 CURVE SMOOTH",
"172 353 LINE SMOOTH",
"179 353 OFFCURVE",
"182 356 OFFCURVE",
"183 364 CURVE SMOOTH",
"189 408 OFFCURVE",
"220 430 OFFCURVE",
"278 430 CURVE SMOOTH",
"341 430 OFFCURVE",
"361 400 OFFCURVE",
"348 327 CURVE SMOOTH",
"341 283 LINE",
"259 281 LINE SMOOTH",
"117 278 OFFCURVE",
"46 221 OFFCURVE",
"46 109 CURVE SMOOTH",
"46 32 OFFCURVE",
"84 -11 OFFCURVE",
"153 -11 CURVE SMOOTH"
);
},
{
closed = 1;
nodes = (
"141 58 OFFCURVE",
"124 76 OFFCURVE",
"124 116 CURVE SMOOTH",
"124 185 OFFCURVE",
"168 219 OFFCURVE",
"258 221 CURVE SMOOTH",
"331 223 LINE",
"327 198 LINE SMOOTH",
"324 178 OFFCURVE",
"323 160 OFFCURVE",
"323 143 CURVE",
"262 81 OFFCURVE",
"221 58 OFFCURVE",
"178 58 CURVE SMOOTH"
);
},
{
closed = 1;
nodes = (
"423 319 LINE SMOOTH",
"435 393 OFFCURVE",
"476 430 OFFCURVE",
"546 430 CURVE SMOOTH",
"603 430 OFFCURVE",
"633 406 OFFCURVE",
"633 364 CURVE SMOOTH",
"633 311 OFFCURVE",
"600 288 OFFCURVE",
"530 286 CURVE SMOOTH",
"418 284 LINE"
);
}
);
width = 744;
},
{
layerId = "68DFFD47-52F1-4BAD-AADC-5BAA93A7FBC7";
paths = (
{
closed = 1;
nodes = (
"187 -11 OFFCURVE",
"241 15 OFFCURVE",
"304 75 CURVE",
"335 17 OFFCURVE",
"394 -11 OFFCURVE",
"487 -11 CURVE SMOOTH",
"631 -11 OFFCURVE",
"706 42 OFFCURVE",
"717 150 CURVE SMOOTH",
"718 160 OFFCURVE",
"713 165 OFFCURVE",
"703 165 CURVE SMOOTH",
"569 165 LINE SMOOTH",
"561 165 OFFCURVE",
"555 159 OFFCURVE",
"554 150 CURVE SMOOTH",
"552 127 OFFCURVE",
"533 115 OFFCURVE",
"500 115 CURVE SMOOTH",
"459 115 OFFCURVE",
"443 137 OFFCURVE",
"450 183 CURVE SMOOTH",
"454 208 LINE",
"559 211 LINE SMOOTH",
"697 216 OFFCURVE",
"758 268 OFFCURVE",
"758 379 CURVE SMOOTH",
"758 462 OFFCURVE",
"693 511 OFFCURVE",
"586 511 CURVE SMOOTH",
"519 511 OFFCURVE",
"466 493 OFFCURVE",
"420 456 CURVE",
"386 495 OFFCURVE",
"343 511 OFFCURVE",
"271 511 CURVE SMOOTH",
"144 511 OFFCURVE",
"74 456 OFFCURVE",
"66 344 CURVE SMOOTH",
"65 335 OFFCURVE",
"70 329 OFFCURVE",
"80 329 CURVE SMOOTH",
"207 329 LINE SMOOTH",
"215 329 OFFCURVE",
"221 335 OFFCURVE",
"222 344 CURVE SMOOTH",
"223 374 OFFCURVE",
"238 388 OFFCURVE",
"270 388 CURVE SMOOTH",
"302 388 OFFCURVE",
"314 371 OFFCURVE",
"308 337 CURVE SMOOTH",
"301 294 LINE",
"218 291 LINE SMOOTH",
"74 283 OFFCURVE",
"8 225 OFFCURVE",
"8 107 CURVE SMOOTH",
"8 32 OFFCURVE",
"50 -11 OFFCURVE",
"121 -11 CURVE SMOOTH"
);
},
{
closed = 1;
nodes = (
"186 112 OFFCURVE",
"175 125 OFFCURVE",
"175 148 CURVE SMOOTH",
"175 185 OFFCURVE",
"195 204 OFFCURVE",
"242 207 CURVE SMOOTH",
"287 209 LINE",
"285 197 LINE SMOOTH",
"282 180 OFFCURVE",
"281 165 OFFCURVE",
"282 152 CURVE",
"255 125 OFFCURVE",
"229 112 OFFCURVE",
"207 112 CURVE SMOOTH"
);
},
{
closed = 1;
nodes = (
"472 318 LINE SMOOTH",
"478 362 OFFCURVE",
"502 384 OFFCURVE",
"542 384 CURVE SMOOTH",
"572 384 OFFCURVE",
"586 372 OFFCURVE",
"586 349 CURVE SMOOTH",
"586 317 OFFCURVE",
"568 301 OFFCURVE",
"521 299 CURVE SMOOTH",
"468 297 LINE"
);
}
);
width = 762;
}
);
leftKerningGroup = ae;
rightKerningGroup = e;
rightMetricsKey = e;
unicode = 00E6;
},
{
glyphname = b;
lastChange = "2022-11-08 21:16:38 +0000";
layers = (
{
layerId = "4C6D0269-BFF7-43F1-9175-E88494BCD883";
paths = (
{
closed = 1;
nodes = (
"325 -11 OFFCURVE",
"400 32 OFFCURVE",
"419 153 CURVE SMOOTH",
"446 329 LINE SMOOTH",
"463 439 OFFCURVE",
"426 489 OFFCURVE",
"342 489 CURVE SMOOTH",
"269 489 OFFCURVE",
"201 442 OFFCURVE",
"128 376 CURVE",
"125 354 LINE",
"204 425 OFFCURVE",
"272 473 OFFCURVE",
"342 473 CURVE SMOOTH",
"415 473 OFFCURVE",
"445 427 OFFCURVE",
"430 329 CURVE SMOOTH",
"403 151 LINE SMOOTH",
"386 45 OFFCURVE",
"316 5 OFFCURVE",
"226 5 CURVE SMOOTH",
"181 5 OFFCURVE",
"131 16 OFFCURVE",
"79 29 CURVE",
"182 679 LINE SMOOTH",
"183 683 OFFCURVE",
"181 683 OFFCURVE",
"178 683 CURVE SMOOTH",
"171 683 LINE SMOOTH",
"168 683 OFFCURVE",
"167 683 OFFCURVE",
"166 679 CURVE SMOOTH",
"61 16 LINE",
"120 4 OFFCURVE",
"171 -11 OFFCURVE",
"224 -11 CURVE SMOOTH"
);
}
);
width = 494;
},
{
layerId = "7C569905-1C91-4856-B9FC-2D0B6400E3AF";
paths = (
{
closed = 1;
nodes = (
"350 -11 OFFCURVE",
"417 51 OFFCURVE",
"438 180 CURVE SMOOTH",
"461 327 LINE SMOOTH",
"479 443 OFFCURVE",
"440 498 OFFCURVE",
"350 498 CURVE SMOOTH",
"290 498 OFFCURVE",
"233 469 OFFCURVE",
"170 413 CURVE",
"157 340 LINE",
"227 399 OFFCURVE",
"275 428 OFFCURVE",
"321 428 CURVE SMOOTH",
"372 428 OFFCURVE",
"395 394 OFFCURVE",
"383 318 CURVE SMOOTH",
"362 186 LINE SMOOTH",
"348 98 OFFCURVE",
"305 58 OFFCURVE",
"224 58 CURVE SMOOTH",
"195 58 OFFCURVE",
"158 63 OFFCURVE",
"128 70 CURVE",
"224 672 LINE SMOOTH",
"225 679 OFFCURVE",
"221.995 683 OFFCURVE",
"215 683 CURVE SMOOTH",
"158 683 LINE SMOOTH",
"152 683 OFFCURVE",
"148 680 OFFCURVE",
"147 674 CURVE SMOOTH",
"42 10 LINE",
"114 4 OFFCURVE",
"161 -11 OFFCURVE",
"223 -11 CURVE SMOOTH"
);
}
);
width = 498;
},
{
layerId = "68DFFD47-52F1-4BAD-AADC-5BAA93A7FBC7";
paths = (
{
closed = 1;
nodes = (
"392 -11 OFFCURVE",
"459 49 OFFCURVE",
"481 184 CURVE SMOOTH",
"508 351 LINE SMOOTH",
"525 460 OFFCURVE",
"485 511 OFFCURVE",
"400 511 CURVE SMOOTH",
"342 511 OFFCURVE",
"290 486 OFFCURVE",
"236 440 CURVE",
"216 326 LINE",
"245 350 OFFCURVE",
"272 362 OFFCURVE",
"297 362 CURVE SMOOTH",
"323 362 OFFCURVE",
"337 347 OFFCURVE",
"331 309 CURVE SMOOTH",
"313 195 LINE SMOOTH",
"306 147 OFFCURVE",
"285 128 OFFCURVE",
"251 128 CURVE SMOOTH",
"231 128 OFFCURVE",
"215 131 OFFCURVE",
"200 134 CURVE SMOOTH",
"285 668 LINE SMOOTH",
"286 677 OFFCURVE",
"281 683 OFFCURVE",
"273 683 CURVE SMOOTH",
"132 683 LINE SMOOTH",
"123 683 OFFCURVE",
"116 677 OFFCURVE",
"115 668 CURVE SMOOTH",
"11 13 LINE",
"86 6 OFFCURVE",
"152 -11 OFFCURVE",
"242 -11 CURVE SMOOTH"
);
}
);
width = 514;
}
);
leftKerningGroup = h;
leftMetricsKey = h;
rightKerningGroup = o;
rightMetricsKey = "=o+2";
unicode = 0062;
},
{
glyphname = c;
lastChange = "2022-11-08 21:16:38 +0000";
layers = (
{
anchors = (
{
name = bottom;
position = "{193, 0}";
},
{
name = top;
position = "{278, 478}";
}
);
layerId = "4C6D0269-BFF7-43F1-9175-E88494BCD883";
paths = (
{
closed = 1;
nodes = (
"316 -10 OFFCURVE",
"370 36 OFFCURVE",
"386 137 CURVE SMOOTH",
"387 142 OFFCURVE",
"385 142 OFFCURVE",
"383 142 CURVE SMOOTH",
"373 142 LINE SMOOTH",
"371 142 OFFCURVE",
"370 141 OFFCURVE",
"370 138 CURVE SMOOTH",
"356 46 OFFCURVE",
"307 5 OFFCURVE",
"213 5 CURVE SMOOTH",
"113 5 OFFCURVE",
"67 65 OFFCURVE",
"82 168 CURVE SMOOTH",
"107 327 LINE SMOOTH",
"121 422 OFFCURVE",
"180 473 OFFCURVE",
"274 473 CURVE SMOOTH",
"364 473 OFFCURVE",
"415 424 OFFCURVE",
"403 349 CURVE SMOOTH",
"403 346 OFFCURVE",
"403 345 OFFCURVE",
"406 345 CURVE SMOOTH",
"415 345 LINE SMOOTH",
"418 345 OFFCURVE",
"419 346 OFFCURVE",
"419 349 CURVE SMOOTH",
"433 434 OFFCURVE",
"375 489 OFFCURVE",
"275 489 CURVE SMOOTH",
"170 489 OFFCURVE",
"107 434 OFFCURVE",
"91 327 CURVE SMOOTH",
"66 168 LINE SMOOTH",
"49 55 OFFCURVE",
"104 -12 OFFCURVE",
"212 -11 CURVE SMOOTH"
);
}
);
width = 460;
},
{
anchors = (
{
name = bottom;
position = "{215, 0}";
},
{
name = top;
position = "{287, 487}";
}
);
layerId = "7C569905-1C91-4856-B9FC-2D0B6400E3AF";
paths = (
{
closed = 1;
nodes = (
"335 -11 OFFCURVE",
"404 44 OFFCURVE",
"414 144 CURVE SMOOTH",
"415 151 OFFCURVE",
"412 154 OFFCURVE",
"407 154 CURVE SMOOTH",
"350 154 LINE SMOOTH",
"344 154 OFFCURVE",
"340 151 OFFCURVE",
"340 144 CURVE SMOOTH",
"331 90 OFFCURVE",
"298 59 OFFCURVE",
"229 59 CURVE SMOOTH",
"153 59 OFFCURVE",
"120 99 OFFCURVE",
"134 184 CURVE SMOOTH",
"153 306 LINE SMOOTH",
"166 389 OFFCURVE",
"202 428 OFFCURVE",
"281 428 CURVE SMOOTH",
"343 428 OFFCURVE",
"381 399 OFFCURVE",
"372 344 CURVE SMOOTH",
"371 338 OFFCURVE",
"373 334 OFFCURVE",
"380 334 CURVE SMOOTH",
"436 334 LINE SMOOTH",
"443 334 OFFCURVE",
"445 337 OFFCURVE",
"447 344 CURVE SMOOTH",
"468 441 OFFCURVE",
"399 498 OFFCURVE",
"289 498 CURVE SMOOTH",
"162 498 OFFCURVE",
"97 437 OFFCURVE",
"77 314 CURVE SMOOTH",
"56 181 LINE SMOOTH",
"37 59 OFFCURVE",
"95 -11 OFFCURVE",
"221 -11 CURVE SMOOTH"
);
}
);
width = 479;
},
{
anchors = (
{
name = bottom;
position = "{242, 0}";
},
{
name = top;
position = "{297, 500}";
}
);
layerId = "68DFFD47-52F1-4BAD-AADC-5BAA93A7FBC7";
paths = (
{
closed = 1;
nodes = (
"379 -11 OFFCURVE",
"466 59 OFFCURVE",
"477 191 CURVE SMOOTH",
"478 200 OFFCURVE",
"472 206 OFFCURVE",
"463 206 CURVE SMOOTH",
"335 206 LINE SMOOTH",
"327 206 OFFCURVE",
"321 200 OFFCURVE",
"320 191 CURVE SMOOTH",
"315 155 OFFCURVE",
"297 135 OFFCURVE",
"257 135 CURVE SMOOTH",
"211 135 OFFCURVE",
"194 157 OFFCURVE",
"203 211 CURVE SMOOTH",
"215 290 LINE SMOOTH",
"225 345 OFFCURVE",
"242 365 OFFCURVE",
"284 365 CURVE SMOOTH",
"323 365 OFFCURVE",
"345 346 OFFCURVE",
"339 309 CURVE SMOOTH",
"338 300 OFFCURVE",
"343 294 OFFCURVE",
"353 294 CURVE SMOOTH",
"481 294 LINE SMOOTH",
"490 294 OFFCURVE",
"494 300 OFFCURVE",
"496 309 CURVE SMOOTH",
"519 423 OFFCURVE",
"448 511 OFFCURVE",
"295 511 CURVE SMOOTH",
"151 511 OFFCURVE",
"71 447 OFFCURVE",
"48 309 CURVE SMOOTH",
"32 208 LINE SMOOTH",
"10 72 OFFCURVE",
"85 -11 OFFCURVE",
"243 -11 CURVE SMOOTH"
);
}
);
width = 508;
}
);
leftKerningGroup = o;
leftMetricsKey = o;
rightKerningGroup = c;
unicode = 0063;
},
{
glyphname = d;
lastChange = "2022-11-08 21:16:38 +0000";
layers = (
{
layerId = "4C6D0269-BFF7-43F1-9175-E88494BCD883";
paths = (
{
closed = 1;
nodes = (
"235 -11 OFFCURVE",
"300 26 OFFCURVE",
"379 105 CURVE",
"382 126 LINE",
"299 44 OFFCURVE",
"233 5 OFFCURVE",
"172 5 CURVE SMOOTH",
"95 5 OFFCURVE",
"65 51 OFFCURVE",
"81 151 CURVE SMOOTH",
"109 326 LINE SMOOTH",
"124 425 OFFCURVE",
"181 473 OFFCURVE",
"269 473 CURVE SMOOTH",
"326 473 OFFCURVE",
"372 458 OFFCURVE",
"433 420 CURVE",
"436 436 LINE",
"379 472 OFFCURVE",
"328 489 OFFCURVE",
"270 489 CURVE SMOOTH",
"171 489 OFFCURVE",
"110 435 OFFCURVE",
"93 326 CURVE SMOOTH",
"65 151 LINE SMOOTH",
"49 41 OFFCURVE",
"84 -11 OFFCURVE",
"171 -11 CURVE SMOOTH"
);
},
{
closed = 1;
nodes = (
"376 0 LINE SMOOTH",
"378 0 OFFCURVE",
"379 1 OFFCURVE",
"379 3 CURVE SMOOTH",
"380 31 OFFCURVE",
"383 62 OFFCURVE",
"390 110 CURVE SMOOTH",
"481 679 LINE SMOOTH",
"482 683 OFFCURVE",
"480 683 OFFCURVE",
"477 683 CURVE SMOOTH",
"470 683 LINE SMOOTH",
"467 683 OFFCURVE",
"466 683 OFFCURVE",
"465 679 CURVE SMOOTH",
"376 115 LINE",
"375 107 LINE",
"369 73 OFFCURVE",
"364 36 OFFCURVE",
"363 3 CURVE SMOOTH",
"363 0 OFFCURVE",
"364 0 OFFCURVE",
"366 0 CURVE SMOOTH"
);
}
);
width = 490;
},
{
layerId = "7C569905-1C91-4856-B9FC-2D0B6400E3AF";
paths = (
{
closed = 1;
nodes = (
"228 -11 OFFCURVE",
"283 20 OFFCURVE",
"356 89 CURVE",
"365 156 LINE",
"287 85 OFFCURVE",
"245 59 OFFCURVE",
"196 59 CURVE SMOOTH",
"143 59 OFFCURVE",
"123 96 OFFCURVE",
"134 165 CURVE SMOOTH",
"159 316 LINE SMOOTH",
"170 390 OFFCURVE",
"207 429 OFFCURVE",
"276 429 CURVE SMOOTH",
"314 429 OFFCURVE",
"362 417 OFFCURVE",
"402 394 CURVE",
"409 461 LINE",
"377 481 OFFCURVE",
"321 498 OFFCURVE",
"269 498 CURVE SMOOTH",
"166 498 OFFCURVE",
"101 438 OFFCURVE",
"84 332 CURVE SMOOTH",
"56 165 LINE SMOOTH",
"37 51 OFFCURVE",
"75 -11 OFFCURVE",
"163 -11 CURVE SMOOTH"
);
},
{
closed = 1;
nodes = (
"402 0 LINE SMOOTH",
"409 0 OFFCURVE",
"411 3 OFFCURVE",
"411 11 CURVE SMOOTH",
"412 32 OFFCURVE",
"415 74 OFFCURVE",
"422 115 CURVE SMOOTH",
"510 674 LINE SMOOTH",
"511 679 OFFCURVE",
"507 683 OFFCURVE",
"501 683 CURVE SMOOTH",
"443 683 LINE SMOOTH",
"437 683 OFFCURVE",
"434 679 OFFCURVE",
"433 674 CURVE SMOOTH",
"346 128 LINE",
"344 92 LINE",
"340 69 OFFCURVE",
"337 32 OFFCURVE",
"337 10 CURVE SMOOTH",
"337 3 OFFCURVE",
"340 0 OFFCURVE",
"346 0 CURVE SMOOTH"
);
}
);
width = 504;
},
{
layerId = "68DFFD47-52F1-4BAD-AADC-5BAA93A7FBC7";
paths = (
{
closed = 1;
nodes = (
"221 -11 OFFCURVE",
"279 40 OFFCURVE",
"327 88 CURVE",
"326 183 LINE",
"297 155 OFFCURVE",
"263 137 OFFCURVE",
"236 137 CURVE SMOOTH",
"206 137 OFFCURVE",
"196 156 OFFCURVE",
"203 196 CURVE SMOOTH",
"222 309 LINE SMOOTH",
"229 353 OFFCURVE",
"246 372 OFFCURVE",
"279 372 CURVE SMOOTH",
"304 372 OFFCURVE",
"330 364 OFFCURVE",
"351 351 CURVE",
"371 479 LINE",
"336 498 OFFCURVE",
"285 511 OFFCURVE",
"240 511 CURVE SMOOTH",
"131 511 OFFCURVE",
"75 454 OFFCURVE",
"54 322 CURVE SMOOTH",
"27 160 LINE SMOOTH",
"8 46 OFFCURVE",
"45 -11 OFFCURVE",
"135 -11 CURVE SMOOTH"
);
},
{
closed = 1;
nodes = (
"442 0 LINE SMOOTH",
"450 0 OFFCURVE",
"455 5 OFFCURVE",
"456 15 CURVE SMOOTH",
"459 49 OFFCURVE",
"463 87 OFFCURVE",
"470 131 CURVE SMOOTH",
"555 668 LINE SMOOTH",
"556 677 OFFCURVE",
"551 683 OFFCURVE",
"542 683 CURVE SMOOTH",
"400 683 LINE SMOOTH",
"391 683 OFFCURVE",
"386 677 OFFCURVE",
"385 668 CURVE SMOOTH",
"303 151 LINE",
"310 89 LINE",
"307 62 OFFCURVE",
"305 36 OFFCURVE",
"307 15 CURVE SMOOTH",
"308 5 OFFCURVE",
"313 0 OFFCURVE",
"322 0 CURVE SMOOTH"
);
}
);
width = 518;
}
);
leftKerningGroup = o;
leftMetricsKey = "=o+2";
rightKerningGroup = d;
unicode = 0064;
},
{
glyphname = eth;
lastChange = "2022-11-08 21:16:38 +0000";
layers = (
{
layerId = "4C6D0269-BFF7-43F1-9175-E88494BCD883";
paths = (
{
closed = 1;
nodes = (
"323 -11 OFFCURVE",
"389 47 OFFCURVE",
"406 155 CURVE SMOOTH",
"439 363 LINE SMOOTH",
"464 526 OFFCURVE",
"410 640 OFFCURVE",
"275 693 CURVE SMOOTH",
"273 694 OFFCURVE",
"271 693 OFFCURVE",
"270 691 CURVE SMOOTH",
"265 684 LINE SMOOTH",
"263 681 OFFCURVE",
"264 679 OFFCURVE",
"266 678 CURVE SMOOTH",
"396 632 OFFCURVE",
"448 524 OFFCURVE",
"423 363 CURVE SMOOTH",
"390 155 LINE SMOOTH",
"375 58 OFFCURVE",
"314 5 OFFCURVE",
"218 5 CURVE SMOOTH",
"114 5 OFFCURVE",
"65 62 OFFCURVE",
"81 164 CURVE SMOOTH",
"100 282 LINE SMOOTH",
"114 373 OFFCURVE",
"162 419 OFFCURVE",
"239 419 CURVE SMOOTH",
"301 419 OFFCURVE",
"356 389 OFFCURVE",
"426 323 CURVE",
"428 343 LINE",
"358 405 OFFCURVE",
"302 435 OFFCURVE",
"240 435 CURVE SMOOTH",
"153 435 OFFCURVE",
"99 383 OFFCURVE",
"84 285 CURVE SMOOTH",
"65 164 LINE SMOOTH",
"49 54 OFFCURVE",
"104 -11 OFFCURVE",
"216 -11 CURVE SMOOTH"
);
},
{
closed = 1;
nodes = (
"481 652 LINE SMOOTH",
"484 653 OFFCURVE",
"484 654 OFFCURVE",
"483 657 CURVE SMOOTH",
"480 665 LINE SMOOTH",
"479 668 OFFCURVE",
"477 667 OFFCURVE",
"475 666 CURVE SMOOTH",
"223 552 LINE SMOOTH",
"220 551 OFFCURVE",
"220 549 OFFCURVE",
"221 547 CURVE SMOOTH",
"224 539 LINE SMOOTH",
"225 536 OFFCURVE",
"227 537 OFFCURVE",
"229 538 CURVE SMOOTH"
);
}
);
width = 478;
},
{
layerId = "7C569905-1C91-4856-B9FC-2D0B6400E3AF";
paths = (
{
closed = 1;
nodes = (
"346 -11 OFFCURVE",
"416 47 OFFCURVE",
"436 173 CURVE SMOOTH",
"463 349 LINE SMOOTH",
"488 514 OFFCURVE",
"424 656 OFFCURVE",
"275 692 CURVE SMOOTH",
"268 694 OFFCURVE",
"263 693 OFFCURVE",
"260 688 CURVE SMOOTH",
"229 650 LINE SMOOTH",
"224 643 OFFCURVE",
"225 638 OFFCURVE",
"232 636 CURVE SMOOTH",
"360 600 OFFCURVE",
"420 484 OFFCURVE",
"383 323 CURVE SMOOTH",
"360 180 LINE SMOOTH",
"347 101 OFFCURVE",
"311 59 OFFCURVE",
"232 59 CURVE SMOOTH",
"154 59 OFFCURVE",
"119 97 OFFCURVE",
"133 184 CURVE SMOOTH",
"151 291 LINE SMOOTH",
"161 359 OFFCURVE",
"192 391 OFFCURVE",
"251 391 CURVE SMOOTH",
"304 391 OFFCURVE",
"354 358 OFFCURVE",
"387 304 CURVE",
"399 381 LINE",
"361 433 OFFCURVE",
"305 461 OFFCURVE",
"242 461 CURVE SMOOTH",
"151 461 OFFCURVE",
"93 407 OFFCURVE",
"77 308 CURVE SMOOTH",
"56 180 LINE SMOOTH",
"36 57 OFFCURVE",
"99 -11 OFFCURVE",
"224 -11 CURVE SMOOTH"
);
},
{
closed = 1;
nodes = (
"496 637 LINE SMOOTH",
"502 640 OFFCURVE",
"503 642 OFFCURVE",
"502 647 CURVE SMOOTH",
"490 682 LINE SMOOTH",
"489 688 OFFCURVE",
"486 689 OFFCURVE",
"481 686 CURVE SMOOTH",
"216 566 LINE SMOOTH",
"211 564 OFFCURVE",
"209 561 OFFCURVE",
"211 556 CURVE SMOOTH",
"223 520 LINE SMOOTH",
"225 513 OFFCURVE",
"228 514 OFFCURVE",
"234 516 CURVE SMOOTH"
);
}
);
width = 495;
},
{
layerId = "68DFFD47-52F1-4BAD-AADC-5BAA93A7FBC7";
paths = (
{
closed = 1;
nodes = (
"371 -11 OFFCURVE",
"454 57 OFFCURVE",
"477 193 CURVE SMOOTH",
"505 372 LINE SMOOTH",
"530 530 OFFCURVE",
"475 642 OFFCURVE",
"282 692 CURVE SMOOTH",
"273 695 OFFCURVE",
"268 694 OFFCURVE",
"260 684 CURVE SMOOTH",
"199 600 LINE SMOOTH",
"192 591 OFFCURVE",
"194 582 OFFCURVE",
"204 579 CURVE SMOOTH",
"347 541 OFFCURVE",
"361 483 OFFCURVE",
"329 333 CURVE",
"310 209 LINE SMOOTH",
"301 154 OFFCURVE",
"283 135 OFFCURVE",
"249 135 CURVE SMOOTH",
"203 135 OFFCURVE",
"193 158 OFFCURVE",
"202 211 CURVE SMOOTH",
"209 259 LINE SMOOTH",
"215 297 OFFCURVE",
"230 319 OFFCURVE",
"266 319 CURVE SMOOTH",
"289 319 OFFCURVE",
"320 308 OFFCURVE",
"339 287 CURVE",
"356 415 LINE",
"324 441 OFFCURVE",
"274 458 OFFCURVE",
"222 458 CURVE SMOOTH",
"118 458 OFFCURVE",
"63 404 OFFCURVE",
"42 271 CURVE SMOOTH",
"31 200 LINE SMOOTH",
"10 67 OFFCURVE",
"87 -11 OFFCURVE",
"236 -11 CURVE SMOOTH"
);
},
{
closed = 1;
nodes = (
"499 635 LINE SMOOTH",
"504 638 OFFCURVE",
"509 642 OFFCURVE",
"507 647 CURVE SMOOTH",
"493 681 LINE SMOOTH",
"490 689 OFFCURVE",
"488 691 OFFCURVE",
"481 688 CURVE SMOOTH",
"211 536 LINE SMOOTH",
"206 533 OFFCURVE",
"202 529 OFFCURVE",
"204 524 CURVE SMOOTH",
"219 490 LINE SMOOTH",
"222 482 OFFCURVE",
"225 481 OFFCURVE",
"231 484 CURVE SMOOTH"
);
}
);
width = 506;
}
);
leftKerningGroup = o;
leftMetricsKey = o;
rightKerningGroup = o;
rightMetricsKey = o;
unicode = 00F0;
},
{
glyphname = dcroat;
lastChange = "2022-11-08 21:16:38 +0000";
layers = (
{
components = (
{
alignment = -1;
name = d;
}
);
layerId = "4C6D0269-BFF7-43F1-9175-E88494BCD883";
paths = (
{
closed = 1;
nodes = (
"464 584 LINE",
"558 584 LINE SMOOTH",
"561 584 OFFCURVE",
"562 584 OFFCURVE",
"563 587 CURVE SMOOTH",
"565 596 LINE SMOOTH",
"566 600 OFFCURVE",
"564 600 OFFCURVE",
"562 600 CURVE SMOOTH",
"318 600 LINE SMOOTH",
"315 600 OFFCURVE",
"314 600 OFFCURVE",
"313 597 CURVE SMOOTH",
"311 588 LINE SMOOTH",
"310 584 OFFCURVE",
"312 584 OFFCURVE",
"314 584 CURVE SMOOTH"
);
}
);
width = 490;
},
{
components = (
{
alignment = -1;
name = d;
}
);
layerId = "7C569905-1C91-4856-B9FC-2D0B6400E3AF";
paths = (
{
closed = 1;
nodes = (
"491 557 LINE",
"560 557 LINE SMOOTH",
"566 557 OFFCURVE",
"569 561 OFFCURVE",
"570 567 CURVE SMOOTH",
"577 611 LINE SMOOTH",
"578 618 OFFCURVE",
"576 621 OFFCURVE",
"570 621 CURVE SMOOTH",
"323 621 LINE SMOOTH",
"317 621 OFFCURVE",
"314 617 OFFCURVE",
"313 612 CURVE SMOOTH",
"306 567 LINE SMOOTH",
"305 561 OFFCURVE",
"307 557 OFFCURVE",
"313 557 CURVE SMOOTH"
);
}
);
width = 504;
},
{
components = (
{
alignment = -1;
name = d;
}
);
layerId = "68DFFD47-52F1-4BAD-AADC-5BAA93A7FBC7";
paths = (
{
closed = 1;
nodes = (
"536 548 LINE",
"575 548 LINE SMOOTH",
"584 548 OFFCURVE",
"589 554 OFFCURVE",
"590 562 CURVE SMOOTH",
"601 634 LINE SMOOTH",
"602 643 OFFCURVE",
"597 649 OFFCURVE",
"588 649 CURVE SMOOTH",
"318 649 LINE SMOOTH",
"309 649 OFFCURVE",
"304 644 OFFCURVE",
"303 634 CURVE SMOOTH",
"292 562 LINE SMOOTH",
"291 553 OFFCURVE",
"295 548 OFFCURVE",
"305 548 CURVE SMOOTH"
);
}
);
width = 528;
}
);
leftKerningGroup = o;
leftMetricsKey = "=o+2";
rightKerningGroup = dcroat;
unicode = 0111;
},
{
glyphname = e;
lastChange = "2022-11-08 21:16:38 +0000";
layers = (
{
anchors = (
{
name = bottom;
position = "{204, 0}";
},
{
name = ogonek;
position = "{291, 10}";
},
{
name = top;
position = "{279, 478}";
}
);
layerId = "4C6D0269-BFF7-43F1-9175-E88494BCD883";
paths = (
{
closed = 1;
nodes = (
"314 -11 OFFCURVE",
"368 30 OFFCURVE",
"379 118 CURVE",
"379 120 OFFCURVE",
"379 122 OFFCURVE",
"376 122 CURVE SMOOTH",
"367 122 LINE SMOOTH",
"364 122 OFFCURVE",
"363 121 OFFCURVE",
"363 118 CURVE",
"354 42 OFFCURVE",
"305 5 OFFCURVE",
"212 5 CURVE SMOOTH",
"112 5 OFFCURVE",
"67 63 OFFCURVE",
"82 168 CURVE SMOOTH",
"91 229 LINE",
"253 245 LINE SMOOTH",
"375 257 OFFCURVE",
"417 301 OFFCURVE",
"417 381 CURVE SMOOTH",
"417 450 OFFCURVE",
"365 489 OFFCURVE",
"275 489 CURVE SMOOTH",
"171 489 OFFCURVE",
"107 433 OFFCURVE",
"91 327 CURVE SMOOTH",
"66 168 LINE SMOOTH",
"50 54 OFFCURVE",
"103 -11 OFFCURVE",
"211 -11 CURVE SMOOTH"
);
},
{
closed = 1;
nodes = (
"107 327 LINE SMOOTH",
"122 423 OFFCURVE",
"180 473 OFFCURVE",
"274 473 CURVE SMOOTH",
"355 473 OFFCURVE",
"401 439 OFFCURVE",
"401 380 CURVE SMOOTH",
"401 305 OFFCURVE",
"359 271 OFFCURVE",
"251 260 CURVE SMOOTH",
"94 245 LINE"
);
}
);
width = 465;
},
{
anchors = (
{
name = bottom;
position = "{214, 0}";
},
{
name = ogonek;
position = "{318, 10}";
},
{
name = top;
position = "{288, 487}";
}
);
layerId = "7C569905-1C91-4856-B9FC-2D0B6400E3AF";
paths = (
{
closed = 1;
nodes = (
"330 -11 OFFCURVE",
"405 43 OFFCURVE",
"408 126 CURVE SMOOTH",
"408 131 OFFCURVE",
"406 135 OFFCURVE",
"399 135 CURVE SMOOTH",
"340 135 LINE SMOOTH",
"334 135 OFFCURVE",
"331 132 OFFCURVE",
"330 125 CURVE SMOOTH",
"325 82 OFFCURVE",
"285 58 OFFCURVE",
"227 58 CURVE SMOOTH",
"155 58 OFFCURVE",
"121 94 OFFCURVE",
"131 167 CURVE SMOOTH",
"136 198 LINE",
"278 215 LINE SMOOTH",
"386 228 OFFCURVE",
"448 278 OFFCURVE",
"448 373 CURVE SMOOTH",
"448 453 OFFCURVE",
"392 498 OFFCURVE",
"286 498 CURVE SMOOTH",
"165 498 OFFCURVE",
"99 440 OFFCURVE",
"78 314 CURVE SMOOTH",
"56 178 LINE SMOOTH",
"37 57 OFFCURVE",
"99 -11 OFFCURVE",
"221 -11 CURVE SMOOTH"
);
},
{
closed = 1;
nodes = (
"155 318 LINE SMOOTH",
"167 392 OFFCURVE",
"206 430 OFFCURVE",
"279 430 CURVE SMOOTH",
"336 430 OFFCURVE",
"369 407 OFFCURVE",
"369 367 CURVE SMOOTH",
"369 314 OFFCURVE",
"339 288 OFFCURVE",
"267 278 CURVE SMOOTH",
"147 263 LINE"
);
}
);
width = 479;
},
{
anchors = (
{
name = bottom;
position = "{230, 0}";
},
{
name = ogonek;
position = "{366, 10}";
},
{
name = top;
position = "{306, 500}";
}
);
layerId = "68DFFD47-52F1-4BAD-AADC-5BAA93A7FBC7";
paths = (
{
closed = 1;
nodes = (
"376 -11 OFFCURVE",
"453 41 OFFCURVE",
"467 150 CURVE SMOOTH",
"468 160 OFFCURVE",
"463 165 OFFCURVE",
"454 165 CURVE SMOOTH",
"320 165 LINE SMOOTH",
"312 165 OFFCURVE",
"306 159 OFFCURVE",
"305 150 CURVE SMOOTH",
"303 127 OFFCURVE",
"281 115 OFFCURVE",
"245 115 CURVE SMOOTH",
"205 115 OFFCURVE",
"188 137 OFFCURVE",
"196 183 CURVE SMOOTH",
"198 196 LINE",
"304 207 LINE SMOOTH",
"452 221 OFFCURVE",
"509 271 OFFCURVE",
"509 378 CURVE SMOOTH",
"509 462 OFFCURVE",
"432 511 OFFCURVE",
"298 511 CURVE SMOOTH",
"154 511 OFFCURVE",
"72 446 OFFCURVE",
"50 315 CURVE SMOOTH",
"33 214 LINE SMOOTH",
"8 70 OFFCURVE",
"82 -11 OFFCURVE",
"233 -11 CURVE SMOOTH"
);
},
{
closed = 1;
nodes = (
"217 319 LINE SMOOTH",
"224 363 OFFCURVE",
"247 384 OFFCURVE",
"289 384 CURVE SMOOTH",
"323 384 OFFCURVE",
"337 373 OFFCURVE",
"337 349 CURVE SMOOTH",
"337 321 OFFCURVE",
"318 304 OFFCURVE",
"275 299 CURVE SMOOTH",
"213 293 LINE"
);
}
);
width = 513;
}
);
leftKerningGroup = o;
leftMetricsKey = o;
rightKerningGroup = e;
unicode = 0065;
},
{
glyphname = f;
lastChange = "2022-11-08 21:16:02 +0000";
layers = (
{
layerId = "4C6D0269-BFF7-43F1-9175-E88494BCD883";
paths = (
{
closed = 1;
nodes = (
"185 542 LINE SMOOTH",
"201 638 OFFCURVE",
"230 678 OFFCURVE",
"316 678 CURVE SMOOTH",
"342 678 OFFCURVE",
"372 673 OFFCURVE",
"395 665 CURVE SMOOTH",
"398 664 OFFCURVE",
"399 665 OFFCURVE",
"399 668 CURVE SMOOTH",
"400 676 LINE SMOOTH",
"400 679 OFFCURVE",
"400 680 OFFCURVE",
"397 681 CURVE SMOOTH",
"379 688 OFFCURVE",
"344 694 OFFCURVE",
"316 694 CURVE SMOOTH",
"224 694 OFFCURVE",
"187 651 OFFCURVE",
"169 543 CURVE SMOOTH",
"159 478 LINE",
"81 478 LINE SMOOTH",
"78 478 OFFCURVE",
"77 478 OFFCURVE",
"76 475 CURVE SMOOTH",
"74 466 LINE SMOOTH",
"73 462 OFFCURVE",
"75 462 OFFCURVE",
"77 462 CURVE SMOOTH",
"156 462 LINE",
"87 22 LINE SMOOTH",
"72 -74 OFFCURVE",
"43 -122 OFFCURVE",
"-30 -175 CURVE",
"-32 -176 OFFCURVE",
"-32 -177 OFFCURVE",
"-31 -179 CURVE SMOOTH",
"-26 -188 LINE SMOOTH",
"-25 -190 OFFCURVE",
"-23 -190 OFFCURVE",
"-21 -188 CURVE",
"57 -132 OFFCURVE",
"87 -82 OFFCURVE",
"103 19 CURVE SMOOTH",
"172 462 LINE",
"340 462 LINE SMOOTH",
"343 462 OFFCURVE",
"344 462 OFFCURVE",
"345 465 CURVE SMOOTH",
"347 474 LINE SMOOTH",
"348 478 OFFCURVE",
"346 478 OFFCURVE",
"344 478 CURVE SMOOTH",
"175 478 LINE"
);
}
);
width = 323;
},
{
layerId = "7C569905-1C91-4856-B9FC-2D0B6400E3AF";
paths = (
{
closed = 1;
nodes = (
"233 540 LINE SMOOTH",
"242 600 OFFCURVE",
"270 626 OFFCURVE",
"325 626 CURVE SMOOTH",
"358 626 OFFCURVE",
"381 620 OFFCURVE",
"407 608 CURVE SMOOTH",
"412 605 OFFCURVE",
"417 607 OFFCURVE",
"418 613 CURVE SMOOTH",
"425 664 LINE SMOOTH",
"426 669 OFFCURVE",
"425 673 OFFCURVE",
"419 675 CURVE SMOOTH",
"393 688 OFFCURVE",
"356 694 OFFCURVE",
"323 694 CURVE SMOOTH",
"225 694 OFFCURVE",
"173 644 OFFCURVE",
"157 545 CURVE SMOOTH",
"148 487 LINE",
"76 487 LINE SMOOTH",
"71 487 OFFCURVE",
"67 484 OFFCURVE",
"66 478 CURVE SMOOTH",
"58 428 LINE SMOOTH",
"57 421 OFFCURVE",
"60 419 OFFCURVE",
"66 419 CURVE SMOOTH",
"137 419 LINE",
"80 59 LINE SMOOTH",
"65 -36 OFFCURVE",
"37 -98 OFFCURVE",
"-10 -140 CURVE",
"-16 -146 OFFCURVE",
"-16 -151 OFFCURVE",
"-12 -155 CURVE SMOOTH",
"26 -192 LINE SMOOTH",
"30 -196 OFFCURVE",
"34 -197 OFFCURVE",
"38 -194 CURVE",
"106 -146 OFFCURVE",
"138 -59 OFFCURVE",
"157 54 CURVE SMOOTH",
"215 419 LINE",
"350 419 LINE SMOOTH",
"356 419 OFFCURVE",
"359 422 OFFCURVE",
"360 428 CURVE SMOOTH",
"369 478 LINE SMOOTH",
"370 484 OFFCURVE",
"366 487 OFFCURVE",
"360 487 CURVE SMOOTH",
"225 487 LINE"
);
}
);
width = 342;
},
{
layerId = "68DFFD47-52F1-4BAD-AADC-5BAA93A7FBC7";
paths = (
{
closed = 1;
nodes = (
"312 519 LINE SMOOTH",
"317 549 OFFCURVE",
"333 561 OFFCURVE",
"369 561 CURVE SMOOTH",
"392 561 OFFCURVE",
"417 556 OFFCURVE",
"443 549 CURVE SMOOTH",
"452 547 OFFCURVE",
"456 551 OFFCURVE",
"458 562 CURVE SMOOTH",
"474 666 LINE SMOOTH",
"475 675 OFFCURVE",
"472 678 OFFCURVE",
"465 681 CURVE SMOOTH",
"439 688 OFFCURVE",
"390 694 OFFCURVE",
"339 694 CURVE SMOOTH",
"224 694 OFFCURVE",
"162 641 OFFCURVE",
"143 530 CURVE SMOOTH",
"137 500 LINE",
"72 500 LINE SMOOTH",
"64 500 OFFCURVE",
"59 494 OFFCURVE",
"57 485 CURVE SMOOTH",
"40 371 LINE SMOOTH",
"39 362 OFFCURVE",
"44 356 OFFCURVE",
"53 356 CURVE SMOOTH",
"114 356 LINE",
"72 90 LINE SMOOTH",
"61 16 OFFCURVE",
"33 -35 OFFCURVE",
"-13 -71 CURVE SMOOTH",
"-20 -76 OFFCURVE",
"-22 -85 OFFCURVE",
"-17 -92 CURVE SMOOTH",
"51 -189 LINE SMOOTH",
"55 -194 OFFCURVE",
"61 -195 OFFCURVE",
"67 -192 CURVE SMOOTH",
"175 -135 OFFCURVE",
"217 -64 OFFCURVE",
"243 92 CURVE SMOOTH",
"286 356 LINE",
"378 356 LINE SMOOTH",
"386 356 OFFCURVE",
"391 362 OFFCURVE",
"392 371 CURVE SMOOTH",
"411 485 LINE SMOOTH",
"412 494 OFFCURVE",
"407 500 OFFCURVE",
"397 500 CURVE SMOOTH",
"309 500 LINE"
);
}
);
width = 383;
}
);
leftKerningGroup = f;
rightKerningGroup = f;
unicode = 0066;
},
{
glyphname = g;
lastChange = "2022-11-08 21:16:38 +0000";
layers = (
{
anchors = (
{
name = bottom;
position = "{209, 0}";
},
{
name = top;
position = "{286, 478}";
}
);
layerId = "4C6D0269-BFF7-43F1-9175-E88494BCD883";
paths = (
{
closed = 1;
nodes = (
"185 489 OFFCURVE",
"111 446 OFFCURVE",
"92 331 CURVE SMOOTH",
"71 197 LINE SMOOTH",
"55 92 OFFCURVE",
"91 37 OFFCURVE",
"175 37 CURVE SMOOTH",
"247 37 OFFCURVE",
"313 82 OFFCURVE",
"384 146 CURVE",
"354 -42 LINE SMOOTH",
"337 -150 OFFCURVE",
"283 -180 OFFCURVE",
"185 -180 CURVE SMOOTH",
"89 -180 OFFCURVE",
"59 -144 OFFCURVE",
"69 -69 CURVE SMOOTH",
"70 -64 OFFCURVE",
"68 -64 OFFCURVE",
"66 -64 CURVE SMOOTH",
"57 -64 LINE SMOOTH",
"55 -64 OFFCURVE",
"54 -65 OFFCURVE",
"54 -68 CURVE SMOOTH",
"42 -154 OFFCURVE",
"80 -196 OFFCURVE",
"182 -196 CURVE SMOOTH",
"293 -196 OFFCURVE",
"351 -162 OFFCURVE",
"369 -43 CURVE SMOOTH",
"449 462 LINE",
"390 474 OFFCURVE",
"339 489 OFFCURVE",
"285 489 CURVE SMOOTH"
);
},
{
closed = 1;
nodes = (
"102 53 OFFCURVE",
"71 99 OFFCURVE",
"87 196 CURVE SMOOTH",
"108 329 LINE SMOOTH",
"126 435 OFFCURVE",
"194 473 OFFCURVE",
"284 473 CURVE SMOOTH",
"332 473 OFFCURVE",
"382 462 OFFCURVE",
"432 449 CURVE",
"388 169 LINE",
"311 100 OFFCURVE",
"244 53 OFFCURVE",
"175 53 CURVE SMOOTH"
);
}
);
width = 494;
},
{
anchors = (
{
name = bottom;
position = "{210, 0}";
},
{
name = top;
position = "{300, 487}";
}
);
layerId = "7C569905-1C91-4856-B9FC-2D0B6400E3AF";
paths = (
{
closed = 1;
nodes = (
"161 498 OFFCURVE",
"99 439 OFFCURVE",
"80 323 CURVE SMOOTH",
"59 194 LINE SMOOTH",
"41 77 OFFCURVE",
"78 19 OFFCURVE",
"169 19 CURVE SMOOTH",
"228 19 OFFCURVE",
"279 45 OFFCURVE",
"339 93 CURVE",
"321 -20 LINE SMOOTH",
"309 -97 OFFCURVE",
"271 -128 OFFCURVE",
"196 -128 CURVE SMOOTH",
"134 -128 OFFCURVE",
"108 -107 OFFCURVE",
"114 -63 CURVE SMOOTH",
"115 -56 OFFCURVE",
"112 -53 OFFCURVE",
"106 -53 CURVE SMOOTH",
"49 -53 LINE SMOOTH",
"43 -53 OFFCURVE",
"40 -55 OFFCURVE",
"38 -62 CURVE SMOOTH",
"18 -145 OFFCURVE",
"74 -197 OFFCURVE",
"187 -197 CURVE SMOOTH",
"323 -197 OFFCURVE",
"380 -138 OFFCURVE",
"399 -17 CURVE SMOOTH",
"477 474 LINE",
"406 480 OFFCURVE",
"352 498 OFFCURVE",
"283 498 CURVE SMOOTH"
);
},
{
closed = 1;
nodes = (
"145 89 OFFCURVE",
"125 123 OFFCURVE",
"138 199 CURVE SMOOTH",
"155 309 LINE SMOOTH",
"170 397 OFFCURVE",
"210 429 OFFCURVE",
"284 429 CURVE SMOOTH",
"313 429 OFFCURVE",
"358 424 OFFCURVE",
"391 417 CURVE",
"350 164 LINE",
"287 112 OFFCURVE",
"244 89 OFFCURVE",
"198 89 CURVE SMOOTH"
);
}
);
width = 501;
},
{
anchors = (
{
name = bottom;
position = "{219, 0}";
},
{
name = top;
position = "{309, 499}";
}
);
layerId = "68DFFD47-52F1-4BAD-AADC-5BAA93A7FBC7";
paths = (
{
closed = 1;
nodes = (
"142 511 OFFCURVE",
"74 454 OFFCURVE",
"53 319 CURVE SMOOTH",
"34 205 LINE SMOOTH",
"16 95 OFFCURVE",
"49 35 OFFCURVE",
"139 35 CURVE SMOOTH",
"193 35 OFFCURVE",
"244 53 OFFCURVE",
"294 93 CURVE",
"281 11 LINE SMOOTH",
"273 -36 OFFCURVE",
"256 -55 OFFCURVE",
"216 -55 CURVE SMOOTH",
"182 -55 OFFCURVE",
"171 -43 OFFCURVE",
"172 -22 CURVE SMOOTH",
"172 -13 OFFCURVE",
"168 -8 OFFCURVE",
"158 -8 CURVE SMOOTH",
"30 -8 LINE SMOOTH",
"22 -8 OFFCURVE",
"17 -13 OFFCURVE",
"16 -22 CURVE SMOOTH",
"2 -128 OFFCURVE",
"57 -197 OFFCURVE",
"206 -197 CURVE SMOOTH",
"348 -197 OFFCURVE",
"427 -140 OFFCURVE",
"450 6 CURVE SMOOTH",
"526 489 LINE",
"451 494 OFFCURVE",
"381 511 OFFCURVE",
"288 511 CURVE SMOOTH"
);
},
{
closed = 1;
nodes = (
"215 183 OFFCURVE",
"204 200 OFFCURVE",
"210 237 CURVE SMOOTH",
"220 306 LINE SMOOTH",
"228 352 OFFCURVE",
"245 372 OFFCURVE",
"282 372 CURVE SMOOTH",
"304 372 OFFCURVE",
"322 369 OFFCURVE",
"337 366 CURVE",
"312 209 LINE",
"288 193 OFFCURVE",
"265 183 OFFCURVE",
"244 183 CURVE SMOOTH"
);
}
);
width = 519;
}
);
leftKerningGroup = o;
rightKerningGroup = u;
rightMetricsKey = n;
unicode = 0067;
},
{
glyphname = h;
lastChange = "2022-11-08 21:16:02 +0000";
layers = (
{
anchors = (
{
name = bottom;
position = "{229, 0}";
},
{
name = center;
position = "{267, 239}";
},
{
name = top;
position = "{174, 683}";
}
);
layerId = "4C6D0269-BFF7-43F1-9175-E88494BCD883";
paths = (
{
closed = 1;
nodes = (
"70 0 LINE SMOOTH",
"73 0 OFFCURVE",
"74 0 OFFCURVE",
"75 5 CURVE SMOOTH",
"182 679 LINE SMOOTH",
"183 683 OFFCURVE",
"181 683 OFFCURVE",
"178 683 CURVE SMOOTH",
"171 683 LINE SMOOTH",
"168 683 OFFCURVE",
"167 683 OFFCURVE",
"166 679 CURVE SMOOTH",
"59 5 LINE SMOOTH",
"58 0 OFFCURVE",
"60 0 OFFCURVE",
"63 0 CURVE SMOOTH"
);
},
{
closed = 1;
nodes = (
"392 0 LINE SMOOTH",
"395 0 OFFCURVE",
"396 0 OFFCURVE",
"397 4 CURVE SMOOTH",
"449 331 LINE SMOOTH",
"467 442 OFFCURVE",
"426 489 OFFCURVE",
"346 489 CURVE SMOOTH",
"276 489 OFFCURVE",
"201 441 OFFCURVE",
"128 371 CURVE",
"125 349 LINE",
"201 421 OFFCURVE",
"277 473 OFFCURVE",
"344 473 CURVE SMOOTH",
"418 473 OFFCURVE",
"449 427 OFFCURVE",
"433 329 CURVE SMOOTH",
"381 4 LINE SMOOTH",
"380 0 OFFCURVE",
"382 0 OFFCURVE",
"385 0 CURVE SMOOTH"
);
}
);
width = 514;
},
{
anchors = (
{
name = bottom;
position = "{234, 0}";
},
{
name = center;
position = "{266, 244}";
},
{
name = top;
position = "{187, 683}";
}
);
layerId = "7C569905-1C91-4856-B9FC-2D0B6400E3AF";
paths = (
{
closed = 1;
nodes = (
"109 0 LINE SMOOTH",
"114 0 OFFCURVE",
"118 4 OFFCURVE",
"119 10 CURVE SMOOTH",
"224 674 LINE SMOOTH",
"225 680 OFFCURVE",
"222 683 OFFCURVE",
"216 683 CURVE SMOOTH",
"157 683 LINE SMOOTH",
"152 683 OFFCURVE",
"148 679 OFFCURVE",
"147 674 CURVE SMOOTH",
"42 10 LINE SMOOTH",
"41 4 OFFCURVE",
"44 0 OFFCURVE",
"49 0 CURVE SMOOTH"
);
},
{
closed = 1;
nodes = (
"408 0 LINE SMOOTH",
"413 0 OFFCURVE",
"417 4 OFFCURVE",
"418 9 CURVE SMOOTH",
"470 335 LINE SMOOTH",
"488 444 OFFCURVE",
"446 498 OFFCURVE",
"360 498 CURVE SMOOTH",
"291 498 OFFCURVE",
"228 462 OFFCURVE",
"165 398 CURVE",
"156 332 LINE",
"232 400 OFFCURVE",
"278 428 OFFCURVE",
"328 428 CURVE SMOOTH",
"380 428 OFFCURVE",
"403 397 OFFCURVE",
"392 331 CURVE SMOOTH",
"341 9 LINE SMOOTH",
"340 3 OFFCURVE",
"343 0 OFFCURVE",
"349 0 CURVE SMOOTH"
);
}
);
width = 517;
},
{
anchors = (
{
name = bottom;
position = "{235, 0}";
},
{
name = center;
position = "{275, 250}";
},
{
name = top;
position = "{203, 683}";
}
);
layerId = "68DFFD47-52F1-4BAD-AADC-5BAA93A7FBC7";
paths = (
{
closed = 1;
nodes = (
"168 0 LINE SMOOTH",
"177 0 OFFCURVE",
"182 6 OFFCURVE",
"183 15 CURVE SMOOTH",
"286 668 LINE SMOOTH",
"287 677 OFFCURVE",
"281 683 OFFCURVE",
"272 683 CURVE SMOOTH",
"131 683 LINE SMOOTH",
"123 683 OFFCURVE",
"117 677 OFFCURVE",
"116 668 CURVE SMOOTH",
"12 15 LINE SMOOTH",
"11 6 OFFCURVE",
"16 0 OFFCURVE",
"25 0 CURVE SMOOTH"
);
},
{
closed = 1;
nodes = (
"447 0 LINE SMOOTH",
"455 0 OFFCURVE",
"460 5 OFFCURVE",
"461 15 CURVE SMOOTH",
"513 343 LINE SMOOTH",
"531 456 OFFCURVE",
"496 511 OFFCURVE",
"406 511 CURVE SMOOTH",
"340 511 OFFCURVE",
"279 480 OFFCURVE",
"213 413 CURVE",
"214 316 LINE",
"243 345 OFFCURVE",
"276 362 OFFCURVE",
"304 362 CURVE SMOOTH",
"333 362 OFFCURVE",
"343 345 OFFCURVE",
"337 307 CURVE SMOOTH",
"291 15 LINE SMOOTH",
"290 6 OFFCURVE",
"296 0 OFFCURVE",
"305 0 CURVE SMOOTH"
);
}
);
width = 528;
}
);
leftKerningGroup = h;
rightKerningGroup = n;
rightMetricsKey = n;
unicode = 0068;
},
{
glyphname = hbar;
lastChange = "2022-11-08 21:16:02 +0000";
layers = (
{
components = (
{
alignment = -1;
name = h;
}
);
layerId = "4C6D0269-BFF7-43F1-9175-E88494BCD883";
paths = (
{
closed = 1;
nodes = (
"151 584 LINE",
"302 584 LINE SMOOTH",
"305 584 OFFCURVE",
"306 584 OFFCURVE",
"307 587 CURVE SMOOTH",
"309 596 LINE SMOOTH",
"310 600 OFFCURVE",
"308 600 OFFCURVE",
"306 600 CURVE SMOOTH",
"62 600 LINE SMOOTH",
"59 600 OFFCURVE",
"58 600 OFFCURVE",
"57 597 CURVE SMOOTH",
"55 588 LINE SMOOTH",
"54 584 OFFCURVE",
"56 584 OFFCURVE",
"58 584 CURVE SMOOTH"
);
}
);
width = 514;
},
{
components = (
{
alignment = -1;
name = h;
transform = "{1, 0, 0, 1, 1, 0}";
}
);
layerId = "7C569905-1C91-4856-B9FC-2D0B6400E3AF";
paths = (
{
closed = 1;
nodes = (
"129 557 LINE",
"308 557 LINE SMOOTH",
"314 557 OFFCURVE",
"317 561 OFFCURVE",
"318 567 CURVE SMOOTH",
"325 611 LINE SMOOTH",
"326 618 OFFCURVE",
"324 621 OFFCURVE",
"318 621 CURVE SMOOTH",
"71 621 LINE SMOOTH",
"65 621 OFFCURVE",
"62 617 OFFCURVE",
"61 612 CURVE SMOOTH",
"54 567 LINE SMOOTH",
"53 560 OFFCURVE",
"55 557 OFFCURVE",
"61 557 CURVE SMOOTH"
);
}
);
width = 518;
},
{
components = (
{
alignment = -1;
name = h;
transform = "{1, 0, 0, 1, 10, 0}";
}
);
layerId = "68DFFD47-52F1-4BAD-AADC-5BAA93A7FBC7";
paths = (
{
closed = 1;
nodes = (
"106 548 LINE",
"340 548 LINE SMOOTH",
"350 548 OFFCURVE",
"353 554 OFFCURVE",
"355 562 CURVE SMOOTH",
"366 634 LINE SMOOTH",
"368 643 OFFCURVE",
"363 649 OFFCURVE",
"353 649 CURVE SMOOTH",
"83 649 LINE SMOOTH",
"74 649 OFFCURVE",
"69 644 OFFCURVE",
"68 634 CURVE SMOOTH",
"57 562 LINE SMOOTH",
"55 553 OFFCURVE",
"61 548 OFFCURVE",
"70 548 CURVE SMOOTH"
);
}
);
width = 538;
}
);
leftKerningGroup = hbar;
rightKerningGroup = n;
rightMetricsKey = h;
unicode = 0127;
},
{
glyphname = idotless;
lastChange = "2022-11-08 21:16:38 +0000";
layers = (
{
anchors = (
{
name = bottom;
position = "{67, 0}";
},
{
name = ogonek;
position = "{81, 10}";
},
{
name = top;
position = "{142, 478}";
}
);
layerId = "4C6D0269-BFF7-43F1-9175-E88494BCD883";
paths = (
{
closed = 1;
nodes = (
"70 0 LINE SMOOTH",
"73 0 OFFCURVE",
"74 0 OFFCURVE",
"75 5 CURVE SMOOTH",
"150 474 LINE SMOOTH",
"151 478 OFFCURVE",
"149 478 OFFCURVE",
"146 478 CURVE SMOOTH",
"139 478 LINE SMOOTH",
"136 478 OFFCURVE",
"135 478 OFFCURVE",
"134 474 CURVE SMOOTH",
"59 5 LINE SMOOTH",
"58 0 OFFCURVE",
"60 0 OFFCURVE",
"63 0 CURVE SMOOTH"
);
}
);
width = 193;
},
{
anchors = (
{
name = bottom;
position = "{79, 0}";
},
{
name = ogonek;
position = "{126, 10}";
},
{
name = top;
position = "{156, 487}";
}
);
layerId = "7C569905-1C91-4856-B9FC-2D0B6400E3AF";
paths = (
{
closed = 1;
nodes = (
"108 0 LINE SMOOTH",
"114 0 OFFCURVE",
"117 4 OFFCURVE",
"118 10 CURVE SMOOTH",
"193 478 LINE SMOOTH",
"194 485 OFFCURVE",
"190 487 OFFCURVE",
"184 487 CURVE SMOOTH",
"126 487 LINE SMOOTH",
"120 487 OFFCURVE",
"116 484 OFFCURVE",
"115 478 CURVE SMOOTH",
"41 10 LINE SMOOTH",
"40 4 OFFCURVE",
"43 0 OFFCURVE",
"49 0 CURVE SMOOTH"
);
}
);
width = 217;
},
{
anchors = (
{
name = bottom;
position = "{96, 0}";
},
{
name = ogonek;
position = "{185, 10}";
},
{
name = top;
position = "{175, 500}";
}
);
layerId = "68DFFD47-52F1-4BAD-AADC-5BAA93A7FBC7";
paths = (
{
closed = 1;
nodes = (
"169 0 LINE SMOOTH",
"178 0 OFFCURVE",
"182 5 OFFCURVE",
"184 15 CURVE SMOOTH",
"258 485 LINE SMOOTH",
"260 495 OFFCURVE",
"254 500 OFFCURVE",
"245 500 CURVE SMOOTH",
"103 500 LINE SMOOTH",
"95 500 OFFCURVE",
"90 494 OFFCURVE",
"88 485 CURVE SMOOTH",
"13 15 LINE SMOOTH",
"12 6 OFFCURVE",
"17 0 OFFCURVE",
"27 0 CURVE SMOOTH"
);
}
);
width = 251;
}
);
leftKerningGroup = n;
leftMetricsKey = u;
rightKerningGroup = u;
rightMetricsKey = n;
unicode = 0131;
},
{
glyphname = jdotless;
lastChange = "2022-11-08 21:16:02 +0000";
layers = (
{
anchors = (
{
name = bottom;
position = "{66, 0}";
},
{
name = top;
position = "{141, 478}";
}
);
layerId = "4C6D0269-BFF7-43F1-9175-E88494BCD883";
paths = (
{
closed = 1;
nodes = (
"61 20 LINE SMOOTH",
"45 -77 OFFCURVE",
"18 -123 OFFCURVE",
"-51 -175 CURVE",
"-53 -176 OFFCURVE",
"-53 -177 OFFCURVE",
"-52 -179 CURVE SMOOTH",
"-46 -188 LINE SMOOTH",
"-45 -190 OFFCURVE",
"-44 -190 OFFCURVE",
"-42 -188 CURVE",
"32 -134 OFFCURVE",
"60 -85 OFFCURVE",
"77 18 CURVE SMOOTH",
"149 474 LINE SMOOTH",
"150 478 OFFCURVE",
"148 478 OFFCURVE",
"145 478 CURVE SMOOTH",
"138 478 LINE SMOOTH",
"135 478 OFFCURVE",
"134 478 OFFCURVE",
"133 474 CURVE SMOOTH"
);
}
);
width = 190;
},
{
anchors = (
{
name = bottom;
position = "{79, 0}";
},
{
name = top;
position = "{156, 487}";
}
);
layerId = "7C569905-1C91-4856-B9FC-2D0B6400E3AF";
paths = (
{
closed = 1;
nodes = (
"49 59 LINE SMOOTH",
"34 -37 OFFCURVE",
"6 -98 OFFCURVE",
"-41 -140 CURVE",
"-47 -146 OFFCURVE",
"-48 -151 OFFCURVE",
"-44 -154 CURVE SMOOTH",
"-4 -192 LINE SMOOTH",
"0 -196 OFFCURVE",
"4 -197 OFFCURVE",
"8 -194 CURVE",
"75 -146 OFFCURVE",
"107 -59 OFFCURVE",
"126 54 CURVE SMOOTH",
"193 478 LINE SMOOTH",
"194 484 OFFCURVE",
"190 487 OFFCURVE",
"185 487 CURVE SMOOTH",
"126 487 LINE SMOOTH",
"121 487 OFFCURVE",
"116 484 OFFCURVE",
"115 478 CURVE SMOOTH"
);
}
);
width = 217;
},
{
anchors = (
{
name = bottom;
position = "{98, 0}";
},
{
name = top;
position = "{177, 500}";
}
);
layerId = "68DFFD47-52F1-4BAD-AADC-5BAA93A7FBC7";
paths = (
{
closed = 1;
nodes = (
"24 90 LINE SMOOTH",
"12 11 OFFCURVE",
"-18 -38 OFFCURVE",
"-62 -71 CURVE SMOOTH",
"-69 -77 OFFCURVE",
"-69 -86 OFFCURVE",
"-65 -92 CURVE SMOOTH",
"3 -189 LINE SMOOTH",
"7 -194 OFFCURVE",
"13 -195 OFFCURVE",
"19 -192 CURVE SMOOTH",
"129 -131 OFFCURVE",
"171 -60 OFFCURVE",
"195 91 CURVE SMOOTH",
"257 485 LINE SMOOTH",
"258 494 OFFCURVE",
"253 500 OFFCURVE",
"245 500 CURVE SMOOTH",
"104 500 LINE SMOOTH",
"96 500 OFFCURVE",
"88 494 OFFCURVE",
"87 485 CURVE SMOOTH"
);
}
);
width = 249;
}
);
leftKerningGroup = j;
rightKerningGroup = j;
unicode = 0237;
},
{
glyphname = k;
lastChange = "2022-11-08 21:16:02 +0000";
layers = (
{
anchors = (
{
name = bottom;
position = "{198, 0}";
},
{
name = top;
position = "{268, 478}";
}
);
layerId = "4C6D0269-BFF7-43F1-9175-E88494BCD883";
paths = (
{
closed = 1;
nodes = (
"70 0 LINE SMOOTH",
"73 0 OFFCURVE",
"74 0 OFFCURVE",
"75 5 CURVE SMOOTH",
"100 165 LINE",
"222 279 LINE",
"366 2 LINE SMOOTH",
"367 0 OFFCURVE",
"367 0 OFFCURVE",
"370 0 CURVE SMOOTH",
"379 0 LINE SMOOTH",
"381 0 OFFCURVE",
"383 1 OFFCURVE",
"382 4 CURVE SMOOTH",
"234 291 LINE",
"430 474 LINE SMOOTH",
"432 476 OFFCURVE",
"431 478 OFFCURVE",
"429 478 CURVE SMOOTH",
"417 478 LINE SMOOTH",
"415 478 OFFCURVE",
"414 478 OFFCURVE",
"412 476 CURVE SMOOTH",
"204 283 LINE SMOOTH",
"171 252 OFFCURVE",
"138 221 OFFCURVE",
"105 189 CURVE",
"104 189 LINE",
"112 237 OFFCURVE",
"119 283 OFFCURVE",
"126 331 CURVE SMOOTH",
"182 679 LINE SMOOTH",
"183 683 OFFCURVE",
"181 683 OFFCURVE",
"178 683 CURVE SMOOTH",
"171 683 LINE SMOOTH",
"168 683 OFFCURVE",
"167 683 OFFCURVE",
"166 679 CURVE SMOOTH",
"59 5 LINE SMOOTH",
"58 0 OFFCURVE",
"60 0 OFFCURVE",
"63 0 CURVE SMOOTH"
);
}
);
width = 435;
},
{
anchors = (
{
name = bottom;
position = "{209, 0}";
},
{
name = top;
position = "{272, 487}";
}
);
layerId = "7C569905-1C91-4856-B9FC-2D0B6400E3AF";
paths = (
{
closed = 1;
nodes = (
"109 0 LINE SMOOTH",
"114 0 OFFCURVE",
"118 4 OFFCURVE",
"119 10 CURVE SMOOTH",
"143 166 LINE",
"226 244 LINE",
"329 7 LINE SMOOTH",
"331 2 OFFCURVE",
"334 0 OFFCURVE",
"340 0 CURVE SMOOTH",
"405 0 LINE SMOOTH",
"412 0 OFFCURVE",
"415 4 OFFCURVE",
"413 11 CURVE SMOOTH",
"288 300 LINE",
"471 476 LINE SMOOTH",
"476 482 OFFCURVE",
"475 487 OFFCURVE",
"468 487 CURVE SMOOTH",
"391 487 LINE SMOOTH",
"386 487 OFFCURVE",
"382 485 OFFCURVE",
"378 481 CURVE SMOOTH",
"239 347 LINE SMOOTH",
"212 320 OFFCURVE",
"185 292 OFFCURVE",
"159 265 CURVE",
"158 265 LINE",
"166 306 OFFCURVE",
"172 347 OFFCURVE",
"178 387 CURVE SMOOTH",
"224 674 LINE SMOOTH",
"225 680 OFFCURVE",
"222 683 OFFCURVE",
"216 683 CURVE SMOOTH",
"157 683 LINE SMOOTH",
"152 683 OFFCURVE",
"148 679 OFFCURVE",
"147 674 CURVE SMOOTH",
"42 10 LINE SMOOTH",
"41 3 OFFCURVE",
"44 0 OFFCURVE",
"50 0 CURVE SMOOTH"
);
}
);
width = 459;
},
{
anchors = (
{
name = bottom;
position = "{237, 0}";
},
{
name = top;
position = "{314, 500}";
}
);
layerId = "68DFFD47-52F1-4BAD-AADC-5BAA93A7FBC7";
paths = (
{
closed = 1;
nodes = (
"168 0 LINE SMOOTH",
"177 0 OFFCURVE",
"181 6 OFFCURVE",
"183 15 CURVE SMOOTH",
"199 118 LINE",
"242 163 LINE",
"306 15 LINE SMOOTH",
"311 4 OFFCURVE",
"315 0 OFFCURVE",
"324 0 CURVE SMOOTH",
"485 0 LINE SMOOTH",
"494 0 OFFCURVE",
"499 8 OFFCURVE",
"495 16 CURVE SMOOTH",
"373 271 LINE",
"557 481 LINE SMOOTH",
"565 489 OFFCURVE",
"560 500 OFFCURVE",
"551 500 CURVE SMOOTH",
"384 500 LINE SMOOTH",
"375 500 OFFCURVE",
"369 495 OFFCURVE",
"362 486 CURVE SMOOTH",
"301 411 LINE SMOOTH",
"278 381 OFFCURVE",
"251 345 OFFCURVE",
"228 310 CURVE",
"224 310 LINE",
"235 358 OFFCURVE",
"244 406 OFFCURVE",
"251 453 CURVE SMOOTH",
"286 668 LINE SMOOTH",
"287 677 OFFCURVE",
"281 683 OFFCURVE",
"272 683 CURVE SMOOTH",
"131 683 LINE SMOOTH",
"123 683 OFFCURVE",
"117 677 OFFCURVE",
"116 668 CURVE SMOOTH",
"12 15 LINE SMOOTH",
"11 6 OFFCURVE",
"16 0 OFFCURVE",
"26 0 CURVE SMOOTH"
);
}
);
width = 529;
}
);
leftKerningGroup = h;
leftMetricsKey = h;
rightKerningGroup = k;
unicode = 006B;
},
{
glyphname = kgreenlandic;
lastChange = "2022-11-08 21:16:38 +0000";
layers = (
{
anchors = (
{
name = bottom;
position = "{191, 0}";
},
{
name = top;
position = "{266, 478}";
}
);
layerId = "4C6D0269-BFF7-43F1-9175-E88494BCD883";
paths = (
{
closed = 1;
nodes = (
"71 0 LINE SMOOTH",
"74 0 OFFCURVE",
"75 0 OFFCURVE",
"76 5 CURVE SMOOTH",
"101 165 LINE",
"223 279 LINE",
"367 2 LINE SMOOTH",
"368 0 OFFCURVE",
"368 0 OFFCURVE",
"371 0 CURVE SMOOTH",
"380 0 LINE SMOOTH",
"382 0 OFFCURVE",
"384 1 OFFCURVE",
"383 4 CURVE SMOOTH",
"235 291 LINE",
"431 474 LINE SMOOTH",
"433 476 OFFCURVE",
"432 478 OFFCURVE",
"430 478 CURVE SMOOTH",
"418 478 LINE SMOOTH",
"416 478 OFFCURVE",
"415 478 OFFCURVE",
"413 476 CURVE SMOOTH",
"205 283 LINE SMOOTH",
"172 252 OFFCURVE",
"139 221 OFFCURVE",
"106 189 CURVE",
"105 189 LINE",
"112 237 OFFCURVE",
"119 283 OFFCURVE",
"126 331 CURVE SMOOTH",
"149 474 LINE SMOOTH",
"150 478 OFFCURVE",
"148 478 OFFCURVE",
"145 478 CURVE SMOOTH",
"138 478 LINE SMOOTH",
"135 478 OFFCURVE",
"134 478 OFFCURVE",
"133 474 CURVE SMOOTH",
"60 5 LINE SMOOTH",
"59 0 OFFCURVE",
"61 0 OFFCURVE",
"64 0 CURVE SMOOTH"
);
}
);
width = 436;
},
{
anchors = (
{
name = bottom;
position = "{193, 0}";
},
{
name = top;
position = "{275, 487}";
}
);
layerId = "7C569905-1C91-4856-B9FC-2D0B6400E3AF";
paths = (
{
closed = 1;
nodes = (
"108 0 LINE SMOOTH",
"113 0 OFFCURVE",
"117 4 OFFCURVE",
"118 10 CURVE SMOOTH",
"143 166 LINE",
"225 244 LINE",
"328 7 LINE SMOOTH",
"330 2 OFFCURVE",
"333 0 OFFCURVE",
"339 0 CURVE SMOOTH",
"404 0 LINE SMOOTH",
"411 0 OFFCURVE",
"415 4 OFFCURVE",
"412 11 CURVE SMOOTH",
"287 300 LINE",
"470 476 LINE SMOOTH",
"476 482 OFFCURVE",
"474 487 OFFCURVE",
"467 487 CURVE SMOOTH",
"390 487 LINE SMOOTH",
"385 487 OFFCURVE",
"381 485 OFFCURVE",
"377 481 CURVE SMOOTH",
"238 347 LINE SMOOTH",
"211 320 OFFCURVE",
"184 292 OFFCURVE",
"158 265 CURVE",
"157 265 LINE",
"165 306 OFFCURVE",
"171 345 OFFCURVE",
"177 386 CURVE SMOOTH",
"192 478 LINE SMOOTH",
"193 484 OFFCURVE",
"190 487 OFFCURVE",
"184 487 CURVE SMOOTH",
"125 487 LINE SMOOTH",
"120 487 OFFCURVE",
"116 484 OFFCURVE",
"115 478 CURVE SMOOTH",
"41 10 LINE SMOOTH",
"40 3 OFFCURVE",
"43 0 OFFCURVE",
"49 0 CURVE SMOOTH"
);
}
);
width = 459;
},
{
anchors = (
{
name = bottom;
position = "{236, 0}";
},
{
name = top;
position = "{315, 500}";
}
);
layerId = "68DFFD47-52F1-4BAD-AADC-5BAA93A7FBC7";
paths = (
{
closed = 1;
nodes = (
"169 0 LINE SMOOTH",
"178 0 OFFCURVE",
"182 6 OFFCURVE",
"184 15 CURVE SMOOTH",
"200 118 LINE",
"243 163 LINE",
"307 15 LINE SMOOTH",
"312 4 OFFCURVE",
"316 0 OFFCURVE",
"325 0 CURVE SMOOTH",
"486 0 LINE SMOOTH",
"495 0 OFFCURVE",
"500 8 OFFCURVE",
"496 16 CURVE SMOOTH",
"374 271 LINE",
"558 481 LINE SMOOTH",
"566 489 OFFCURVE",
"561 500 OFFCURVE",
"552 500 CURVE SMOOTH",
"385 500 LINE SMOOTH",
"376 500 OFFCURVE",
"370 495 OFFCURVE",
"363 486 CURVE SMOOTH",
"302 411 LINE SMOOTH",
"279 381 OFFCURVE",
"252 345 OFFCURVE",
"229 310 CURVE",
"225 310 LINE",
"236 358 OFFCURVE",
"245 404 OFFCURVE",
"252 451 CURVE SMOOTH",
"257 484 LINE SMOOTH",
"258 492 OFFCURVE",
"252 499 OFFCURVE",
"243 499 CURVE SMOOTH",
"102 499 LINE SMOOTH",
"94 499 OFFCURVE",
"88 493 OFFCURVE",
"87 484 CURVE SMOOTH",
"13 15 LINE SMOOTH",
"12 6 OFFCURVE",
"17 0 OFFCURVE",
"27 0 CURVE SMOOTH"
);
}
);
width = 530;
}
);
leftKerningGroup = u;
leftMetricsKey = u;
rightKerningGroup = k;
rightMetricsKey = k;
unicode = 0138;
},
{
glyphname = l;
lastChange = "2022-11-08 21:16:02 +0000";
layers = (
{
anchors = (
{
name = bottom;
position = "{67, 0}";
},
{
name = center;
position = "{104, 239}";
},
{
name = top;
position = "{175, 683}";
},
{
name = topright;
position = "{218, 478}";
}
);
layerId = "4C6D0269-BFF7-43F1-9175-E88494BCD883";
paths = (
{
closed = 1;
nodes = (
"70 0 LINE SMOOTH",
"73 0 OFFCURVE",
"74 0 OFFCURVE",
"75 5 CURVE SMOOTH",
"182 679 LINE SMOOTH",
"183 683 OFFCURVE",
"181 683 OFFCURVE",
"178 683 CURVE SMOOTH",
"171 683 LINE SMOOTH",
"168 683 OFFCURVE",
"167 683 OFFCURVE",
"166 679 CURVE SMOOTH",
"59 5 LINE SMOOTH",
"58 0 OFFCURVE",
"60 0 OFFCURVE",
"63 0 CURVE SMOOTH"
);
}
);
width = 191;
},
{
anchors = (
{
name = bottom;
position = "{73, 0}";
},
{
name = center;
position = "{111, 244}";
},
{
name = top;
position = "{186, 683}";
},
{
name = topright;
position = "{239, 487}";
}
);
layerId = "7C569905-1C91-4856-B9FC-2D0B6400E3AF";
paths = (
{
closed = 1;
nodes = (
"109 0 LINE SMOOTH",
"114 0 OFFCURVE",
"118 4 OFFCURVE",
"119 10 CURVE SMOOTH",
"224 674 LINE SMOOTH",
"225 680 OFFCURVE",
"222 683 OFFCURVE",
"216 683 CURVE SMOOTH",
"157 683 LINE SMOOTH",
"152 683 OFFCURVE",
"148 679 OFFCURVE",
"147 674 CURVE SMOOTH",
"42 10 LINE SMOOTH",
"41 4 OFFCURVE",
"44 0 OFFCURVE",
"49 0 CURVE SMOOTH"
);
}
);
width = 218;
},
{
anchors = (
{
name = bottom;
position = "{97, 0}";
},
{
name = center;
position = "{135, 250}";
},
{
name = top;
position = "{202, 683}";
},
{
name = topright;
position = "{279, 500}";
}
);
layerId = "68DFFD47-52F1-4BAD-AADC-5BAA93A7FBC7";
paths = (
{
closed = 1;
nodes = (
"168 0 LINE SMOOTH",
"177 0 OFFCURVE",
"181 6 OFFCURVE",
"183 15 CURVE SMOOTH",
"286 668 LINE SMOOTH",
"287 677 OFFCURVE",
"281 683 OFFCURVE",
"272 683 CURVE SMOOTH",
"131 683 LINE SMOOTH",
"123 683 OFFCURVE",
"117 677 OFFCURVE",
"116 668 CURVE SMOOTH",
"12 15 LINE SMOOTH",
"11 6 OFFCURVE",
"16 0 OFFCURVE",
"25 0 CURVE SMOOTH"
);
}
);
width = 249;
}
);
leftKerningGroup = h;
leftMetricsKey = h;
rightKerningGroup = l;
unicode = 006C;
},
{
glyphname = lslash;
lastChange = "2022-11-08 21:16:02 +0000";
layers = (
{
components = (
{
alignment = -1;
name = l;
transform = "{1, 0, 0, 1, 1, 0}";
}
);
layerId = "4C6D0269-BFF7-43F1-9175-E88494BCD883";
paths = (
{
closed = 1;
nodes = (
"124 412 LINE",
"227 458 LINE SMOOTH",
"230 459 OFFCURVE",
"230 459 OFFCURVE",
"231 463 CURVE SMOOTH",
"233 473 LINE SMOOTH",
"234 477 OFFCURVE",
"231 476 OFFCURVE",
"229 475 CURVE SMOOTH",
"42 390 LINE SMOOTH",
"39 389 OFFCURVE",
"38 388 OFFCURVE",
"37 383 CURVE SMOOTH",
"36 377 LINE SMOOTH",
"35 372 OFFCURVE",
"37 372 OFFCURVE",
"39 373 CURVE SMOOTH"
);
}
);
width = 193;
},
{
components = (
{
alignment = -1;
name = l;
}
);
layerId = "7C569905-1C91-4856-B9FC-2D0B6400E3AF";
paths = (
{
closed = 1;
nodes = (
"99 371 LINE",
"255 443 LINE SMOOTH",
"261 445 OFFCURVE",
"263 449 OFFCURVE",
"264 454 CURVE SMOOTH",
"272 505 LINE SMOOTH",
"273 511 OFFCURVE",
"269 514 OFFCURVE",
"264 512 CURVE SMOOTH",
"38 409 LINE SMOOTH",
"33 407 OFFCURVE",
"30 402 OFFCURVE",
"29 397 CURVE SMOOTH",
"20 347 LINE SMOOTH",
"19 340 OFFCURVE",
"24 337 OFFCURVE",
"30 340 CURVE SMOOTH"
);
}
);
width = 218;
},
{
components = (
{
alignment = -1;
name = l;
transform = "{1, 0, 0, 1, 5, 0}";
}
);
layerId = "68DFFD47-52F1-4BAD-AADC-5BAA93A7FBC7";
paths = (
{
closed = 1;
nodes = (
"66 321 LINE",
"284 389 LINE SMOOTH",
"293 392 OFFCURVE",
"298 395 OFFCURVE",
"299 404 CURVE SMOOTH",
"312 492 LINE SMOOTH",
"314 502 OFFCURVE",
"309 506 OFFCURVE",
"300 503 CURVE SMOOTH",
"44 424 LINE SMOOTH",
"36 422 OFFCURVE",
"30 416 OFFCURVE",
"29 408 CURVE SMOOTH",
"15 320 LINE SMOOTH",
"14 311 OFFCURVE",
"20 307 OFFCURVE",
"29 309 CURVE SMOOTH"
);
}
);
width = 257;
}
);
leftKerningGroup = lslash;
rightKerningGroup = lslash;
unicode = 0142;
},
{
glyphname = m;
lastChange = "2022-11-08 21:16:38 +0000";
layers = (
{
layerId = "4C6D0269-BFF7-43F1-9175-E88494BCD883";
paths = (
{
closed = 1;
nodes = (
"70 0 LINE SMOOTH",
"73 0 OFFCURVE",
"74 0 OFFCURVE",
"75 4 CURVE SMOOTH",
"130 353 LINE",
"209 428 OFFCURVE",
"274 473 OFFCURVE",
"330 473 CURVE SMOOTH",
"396 473 OFFCURVE",
"419 426 OFFCURVE",
"406 343 CURVE SMOOTH",
"352 4 LINE SMOOTH",
"351 0 OFFCURVE",
"353 0 OFFCURVE",
"356 0 CURVE SMOOTH",
"363 0 LINE SMOOTH",
"366 0 OFFCURVE",
"367 0 OFFCURVE",
"368 4 CURVE SMOOTH",
"423 353 LINE",
"503 428 OFFCURVE",
"567 473 OFFCURVE",
"623 473 CURVE SMOOTH",
"689 473 OFFCURVE",
"712 426 OFFCURVE",
"699 343 CURVE SMOOTH",
"644 4 LINE SMOOTH",
"643 0 OFFCURVE",
"645 0 OFFCURVE",
"648 0 CURVE SMOOTH",
"655 0 LINE SMOOTH",
"658 0 OFFCURVE",
"659 0 OFFCURVE",
"660 4 CURVE SMOOTH",
"715 345 LINE SMOOTH",
"729 437 OFFCURVE",
"699 489 OFFCURVE",
"626 489 CURVE SMOOTH",
"562 489 OFFCURVE",
"504 448 OFFCURVE",
"425 375 CURVE",
"429 448 OFFCURVE",
"397 489 OFFCURVE",
"333 489 CURVE SMOOTH",
"269 489 OFFCURVE",
"211 449 OFFCURVE",
"133 376 CURVE",
"139 410 OFFCURVE",
"145 443 OFFCURVE",
"145 475 CURVE",
"145 478 OFFCURVE",
"144 478 OFFCURVE",
"142 478 CURVE SMOOTH",
"132 478 LINE SMOOTH",
"130 478 OFFCURVE",
"129 477 OFFCURVE",
"129 475 CURVE",
"128 441 OFFCURVE",
"123 403 OFFCURVE",
"117 368 CURVE SMOOTH",
"59 4 LINE SMOOTH",
"58 0 OFFCURVE",
"60 0 OFFCURVE",
"63 0 CURVE SMOOTH"
);
}
);
width = 778;
},
{
layerId = "7C569905-1C91-4856-B9FC-2D0B6400E3AF";
paths = (
{
closed = 1;
nodes = (
"109 0 LINE SMOOTH",
"114 0 OFFCURVE",
"118 4 OFFCURVE",
"119 9 CURVE SMOOTH",
"172 345 LINE",
"236 403 OFFCURVE",
"279 428 OFFCURVE",
"322 428 CURVE SMOOTH",
"369 428 OFFCURVE",
"386 396 OFFCURVE",
"376 332 CURVE SMOOTH",
"325 9 LINE SMOOTH",
"324 4 OFFCURVE",
"327 0 OFFCURVE",
"332 0 CURVE SMOOTH",
"391 0 LINE SMOOTH",
"397 0 OFFCURVE",
"401 4 OFFCURVE",
"402 9 CURVE SMOOTH",
"455 345 LINE",
"518 401 OFFCURVE",
"563 428 OFFCURVE",
"605 428 CURVE SMOOTH",
"653 428 OFFCURVE",
"668 396 OFFCURVE",
"659 332 CURVE SMOOTH",
"607 10 LINE SMOOTH",
"606 4 OFFCURVE",
"609 0 OFFCURVE",
"615 0 CURVE SMOOTH",
"674 0 LINE SMOOTH",
"680 0 OFFCURVE",
"683 4 OFFCURVE",
"684 9 CURVE SMOOTH",
"737 339 LINE SMOOTH",
"754 445 OFFCURVE",
"720 498 OFFCURVE",
"638 498 CURVE SMOOTH",
"577 498 OFFCURVE",
"523 469 OFFCURVE",
"456 407 CURVE",
"451 467 OFFCURVE",
"416 498 OFFCURVE",
"354 498 CURVE SMOOTH",
"294 498 OFFCURVE",
"243 471 OFFCURVE",
"179 411 CURVE",
"182 436 OFFCURVE",
"183 458 OFFCURVE",
"183 479 CURVE SMOOTH",
"183 485 OFFCURVE",
"180 487 OFFCURVE",
"174 487 CURVE SMOOTH",
"119 487 LINE SMOOTH",
"113 487 OFFCURVE",
"110 485 OFFCURVE",
"110 478 CURVE SMOOTH",
"110 447 OFFCURVE",
"104 405 OFFCURVE",
"98 366 CURVE SMOOTH",
"42 9 LINE SMOOTH",
"41 4 OFFCURVE",
"44 0 OFFCURVE",
"50 0 CURVE SMOOTH"
);
}
);
width = 783;
},
{
layerId = "68DFFD47-52F1-4BAD-AADC-5BAA93A7FBC7";
paths = (
{
closed = 1;
nodes = (
"168 0 LINE SMOOTH",
"177 0 OFFCURVE",
"182 6 OFFCURVE",
"183 15 CURVE SMOOTH",
"234 337 LINE",
"252 350 OFFCURVE",
"272 362 OFFCURVE",
"292 362 CURVE SMOOTH",
"320 362 OFFCURVE",
"330 345 OFFCURVE",
"324 310 CURVE SMOOTH",
"277 15 LINE SMOOTH",
"276 6 OFFCURVE",
"281 0 OFFCURVE",
"291 0 CURVE SMOOTH",
"433 0 LINE SMOOTH",
"442 0 OFFCURVE",
"446 6 OFFCURVE",
"447 15 CURVE SMOOTH",
"498 335 LINE",
"515 349 OFFCURVE",
"535 362 OFFCURVE",
"557 362 CURVE SMOOTH",
"585 362 OFFCURVE",
"595 345 OFFCURVE",
"589 310 CURVE SMOOTH",
"542 15 LINE SMOOTH",
"541 6 OFFCURVE",
"546 0 OFFCURVE",
"556 0 CURVE SMOOTH",
"697.995 0 LINE SMOOTH",
"708 0 OFFCURVE",
"712 6 OFFCURVE",
"713 15 CURVE SMOOTH",
"764 345 LINE SMOOTH",
"783 463 OFFCURVE",
"747 511 OFFCURVE",
"660 511 CURVE SMOOTH",
"595 511 OFFCURVE",
"537 473 OFFCURVE",
"497 436 CURVE",
"487 485 OFFCURVE",
"456 511 OFFCURVE",
"392 511 CURVE SMOOTH",
"324 511 OFFCURVE",
"272 470 OFFCURVE",
"231 431 CURVE",
"232 451 OFFCURVE",
"233 469 OFFCURVE",
"232 485 CURVE SMOOTH",
"231 496 OFFCURVE",
"226 500 OFFCURVE",
"217 500 CURVE SMOOTH",
"97 500 LINE SMOOTH",
"88 500 OFFCURVE",
"83 495 OFFCURVE",
"82 485 CURVE SMOOTH",
"82 450 OFFCURVE",
"75 412 OFFCURVE",
"68 369 CURVE SMOOTH",
"12 15 LINE SMOOTH",
"11 6 OFFCURVE",
"16 0 OFFCURVE",
"26 0 CURVE SMOOTH"
);
}
);
width = 780;
}
);
leftKerningGroup = n;
leftMetricsKey = n;
rightKerningGroup = n;
rightMetricsKey = n;
unicode = 006D;
},
{
glyphname = n;
lastChange = "2022-11-08 21:16:02 +0000";
layers = (
{
anchors = (
{
name = apo;
position = "{58, 488}";
},
{
name = bottom;
position = "{228, 0}";
},
{
name = top;
position = "{304, 478}";
}
);
layerId = "4C6D0269-BFF7-43F1-9175-E88494BCD883";
paths = (
{
closed = 1;
nodes = (
"392 0 LINE SMOOTH",
"395 0 OFFCURVE",
"396 0 OFFCURVE",
"397 4 CURVE SMOOTH",
"449 331 LINE SMOOTH",
"467 442 OFFCURVE",
"426 489 OFFCURVE",
"346 489 CURVE SMOOTH",
"276 489 OFFCURVE",
"201 441 OFFCURVE",
"128 371 CURVE",
"125 349 LINE",
"201 421 OFFCURVE",
"277 473 OFFCURVE",
"344 473 CURVE SMOOTH",
"418 473 OFFCURVE",
"449 427 OFFCURVE",
"433 329 CURVE SMOOTH",
"381 4 LINE SMOOTH",
"380 0 OFFCURVE",
"382 0 OFFCURVE",
"385 0 CURVE SMOOTH"
);
},
{
closed = 1;
nodes = (
"70 0 LINE SMOOTH",
"73 0 OFFCURVE",
"74 0 OFFCURVE",
"75 4 CURVE SMOOTH",
"132 363 LINE",
"133 371 LINE",
"139 406 OFFCURVE",
"143 441 OFFCURVE",
"145 475 CURVE SMOOTH",
"145 478 OFFCURVE",
"144 478 OFFCURVE",
"142 478 CURVE SMOOTH",
"132 478 LINE SMOOTH",
"130 478 OFFCURVE",
"129 477 OFFCURVE",
"129 475 CURVE SMOOTH",
"127 441 OFFCURVE",
"123 404 OFFCURVE",
"117 368 CURVE SMOOTH",
"59 4 LINE SMOOTH",
"58 0 OFFCURVE",
"60 0 OFFCURVE",
"63 0 CURVE SMOOTH"
);
}
);
width = 514;
},
{
anchors = (
{
name = apo;
position = "{55, 489}";
},
{
name = bottom;
position = "{234, 0}";
},
{
name = top;
position = "{309, 487}";
}
);
layerId = "7C569905-1C91-4856-B9FC-2D0B6400E3AF";
paths = (
{
closed = 1;
nodes = (
"408 0 LINE SMOOTH",
"413 0 OFFCURVE",
"417 4 OFFCURVE",
"418 9 CURVE SMOOTH",
"470 335 LINE SMOOTH",
"488 444 OFFCURVE",
"446 498 OFFCURVE",
"360 498 CURVE SMOOTH",
"291 498 OFFCURVE",
"228 462 OFFCURVE",
"165 398 CURVE",
"156 332 LINE",
"232 400 OFFCURVE",
"278 428 OFFCURVE",
"328 428 CURVE SMOOTH",
"380 428 OFFCURVE",
"403 397 OFFCURVE",
"392 331 CURVE SMOOTH",
"341 9 LINE SMOOTH",
"340 3 OFFCURVE",
"343 0 OFFCURVE",
"349 0 CURVE SMOOTH"
);
},
{
closed = 1;
nodes = (
"109 0 LINE SMOOTH",
"114 0 OFFCURVE",
"118 4 OFFCURVE",
"119 9 CURVE SMOOTH",
"176 368 LINE",
"177 385 LINE",
"181 412 OFFCURVE",
"184 458 OFFCURVE",
"184 478 CURVE SMOOTH",
"183 485 OFFCURVE",
"180 487 OFFCURVE",
"174 487 CURVE SMOOTH",
"121 487 LINE SMOOTH",
"114 487 OFFCURVE",
"110 485 OFFCURVE",
"110 477 CURVE SMOOTH",
"109 452 OFFCURVE",
"104 403 OFFCURVE",
"98 366 CURVE SMOOTH",
"42 9 LINE SMOOTH",
"41 4 OFFCURVE",
"44 0 OFFCURVE",
"50 0 CURVE SMOOTH"
);
}
);
width = 517;
},
{
anchors = (
{
name = apo;
position = "{15, 499}";
},
{
name = bottom;
position = "{240, 0}";
},
{
name = top;
position = "{312, 499}";
}
);
layerId = "68DFFD47-52F1-4BAD-AADC-5BAA93A7FBC7";
paths = (
{
closed = 1;
nodes = (
"447 0 LINE SMOOTH",
"455 0 OFFCURVE",
"460 4 OFFCURVE",
"461 15 CURVE SMOOTH",
"513 343 LINE SMOOTH",
"531 456 OFFCURVE",
"496 511 OFFCURVE",
"406 511 CURVE SMOOTH",
"340 511 OFFCURVE",
"279 480 OFFCURVE",
"213 413 CURVE",
"214 316 LINE",
"243 345 OFFCURVE",
"276 362 OFFCURVE",
"304 362 CURVE SMOOTH",
"333 362 OFFCURVE",
"343 345 OFFCURVE",
"337 307 CURVE SMOOTH",
"291 15 LINE SMOOTH",
"290 6 OFFCURVE",
"296 0 OFFCURVE",
"305 0 CURVE SMOOTH"
);
},
{
closed = 1;
nodes = (
"168 0 LINE SMOOTH",
"177 0 OFFCURVE",
"181 6 OFFCURVE",
"183 15 CURVE SMOOTH",
"235 349 LINE",
"229 410 LINE",
"232 437 OFFCURVE",
"233 464 OFFCURVE",
"232 485 CURVE SMOOTH",
"231 496 OFFCURVE",
"226 500 OFFCURVE",
"217 500 CURVE SMOOTH",
"97 500 LINE SMOOTH",
"88 500 OFFCURVE",
"83 495 OFFCURVE",
"82 485 CURVE SMOOTH",
"80 450 OFFCURVE",
"75 412 OFFCURVE",
"68 369 CURVE SMOOTH",
"12 15 LINE SMOOTH",
"11 6 OFFCURVE",
"16 0 OFFCURVE",
"26 0 CURVE SMOOTH"
);
}
);
width = 528;
}
);
leftKerningGroup = n;
rightKerningGroup = n;
unicode = 006E;
},
{
glyphname = eng;
lastChange = "2022-11-08 21:16:02 +0000";
layers = (
{
layerId = "4C6D0269-BFF7-43F1-9175-E88494BCD883";
paths = (
{
closed = 1;
nodes = (
"355 -134 OFFCURVE",
"384 -85 OFFCURVE",
"400 18 CURVE SMOOTH",
"449 331 LINE SMOOTH",
"467 442 OFFCURVE",
"426 489 OFFCURVE",
"346 489 CURVE SMOOTH",
"278 489 OFFCURVE",
"205 443 OFFCURVE",
"133 376 CURVE",
"139 410 OFFCURVE",
"143 443 OFFCURVE",
"145 475 CURVE",
"145 478 OFFCURVE",
"144 478 OFFCURVE",
"142 478 CURVE SMOOTH",
"132 478 LINE SMOOTH",
"130 478 OFFCURVE",
"129 477 OFFCURVE",
"129 475 CURVE",
"127 441 OFFCURVE",
"123 404 OFFCURVE",
"117 368 CURVE SMOOTH",
"59 4 LINE SMOOTH",
"58 0 OFFCURVE",
"60 0 OFFCURVE",
"63 0 CURVE SMOOTH",
"70 0 LINE SMOOTH",
"73 0 OFFCURVE",
"74 0 OFFCURVE",
"75 4 CURVE SMOOTH",
"130 354 LINE",
"204 424 OFFCURVE",
"279 473 OFFCURVE",
"344 473 CURVE SMOOTH",
"418 473 OFFCURVE",
"449 427 OFFCURVE",
"433 329 CURVE SMOOTH",
"384 20 LINE SMOOTH",
"369 -77 OFFCURVE",
"342 -123 OFFCURVE",
"273 -175 CURVE SMOOTH",
"271 -176 OFFCURVE",
"271 -177 OFFCURVE",
"272 -179 CURVE",
"277 -188 LINE",
"278 -190 OFFCURVE",
"280 -190 OFFCURVE",
"282 -188 CURVE"
);
}
);
width = 515;
},
{
layerId = "7C569905-1C91-4856-B9FC-2D0B6400E3AF";
paths = (
{
closed = 1;
nodes = (
"375 -146 OFFCURVE",
"408 -59 OFFCURVE",
"426 54 CURVE SMOOTH",
"470 335 LINE",
"488 445 OFFCURVE",
"448 498 OFFCURVE",
"361 498 CURVE SMOOTH",
"296 498 OFFCURVE",
"239 467 OFFCURVE",
"180 412 CURVE",
"182 437 OFFCURVE",
"184 463 OFFCURVE",
"184 478 CURVE",
"183 485 OFFCURVE",
"180 487 OFFCURVE",
"174 487 CURVE SMOOTH",
"121 487 LINE SMOOTH",
"114 487 OFFCURVE",
"110 485 OFFCURVE",
"110 477 CURVE",
"109 452 OFFCURVE",
"104 403 OFFCURVE",
"98 366 CURVE SMOOTH",
"42 9 LINE",
"41 4 OFFCURVE",
"44 0 OFFCURVE",
"50 0 CURVE SMOOTH",
"109 0 LINE SMOOTH",
"114 0 OFFCURVE",
"118 4 OFFCURVE",
"119 9 CURVE",
"173 346 LINE",
"238 404 OFFCURVE",
"282 428 OFFCURVE",
"329 428 CURVE SMOOTH",
"381 428 OFFCURVE",
"403 397 OFFCURVE",
"392 331 CURVE",
"350 59 LINE SMOOTH",
"335 -36 OFFCURVE",
"306 -97 OFFCURVE",
"259 -140 CURVE",
"253 -146 OFFCURVE",
"253 -151 OFFCURVE",
"258 -155 CURVE",
"296 -192 LINE",
"299 -195 OFFCURVE",
"304 -197 OFFCURVE",
"308 -194 CURVE"
);
}
);
width = 517;
},
{
layerId = "68DFFD47-52F1-4BAD-AADC-5BAA93A7FBC7";
paths = (
{
closed = 1;
nodes = (
"409 -133 OFFCURVE",
"449 -60 OFFCURVE",
"473 91 CURVE SMOOTH",
"513 343 LINE SMOOTH",
"532 459 OFFCURVE",
"493 511 OFFCURVE",
"406 511 CURVE SMOOTH",
"330 511 OFFCURVE",
"274 472 OFFCURVE",
"231 431 CURVE",
"232 451 OFFCURVE",
"233 469 OFFCURVE",
"232 485 CURVE SMOOTH",
"231 496 OFFCURVE",
"226 500 OFFCURVE",
"217 500 CURVE SMOOTH",
"97 500 LINE SMOOTH",
"88 500 OFFCURVE",
"83 495 OFFCURVE",
"82 485 CURVE SMOOTH",
"80 450 OFFCURVE",
"75 412 OFFCURVE",
"68 369 CURVE SMOOTH",
"12 15 LINE SMOOTH",
"11 6 OFFCURVE",
"16 0 OFFCURVE",
"26 0 CURVE SMOOTH",
"168 0 LINE SMOOTH",
"177 0 OFFCURVE",
"181 6 OFFCURVE",
"183 15 CURVE SMOOTH",
"233 333 LINE",
"254 349 OFFCURVE",
"277 362 OFFCURVE",
"302 362 CURVE SMOOTH",
"333 362 OFFCURVE",
"343 344 OFFCURVE",
"337 307 CURVE SMOOTH",
"303 90 LINE SMOOTH",
"290 11 OFFCURVE",
"260 -38 OFFCURVE",
"217 -71 CURVE SMOOTH",
"209 -77 OFFCURVE",
"209 -86 OFFCURVE",
"213 -92 CURVE SMOOTH",
"282 -189 LINE SMOOTH",
"286 -194 OFFCURVE",
"292 -195 OFFCURVE",
"298 -192 CURVE SMOOTH"
);
}
);
width = 528;
}
);
leftKerningGroup = n;
leftMetricsKey = n;
rightKerningGroup = n;
rightMetricsKey = n;
unicode = 014B;
},
{
glyphname = o;
lastChange = "2022-11-08 21:16:02 +0000";
layers = (
{
anchors = (
{
name = bottom;
position = "{203, 0}";
},
{
name = center;
position = "{248, 239}";
},
{
name = ogonek;
position = "{395, 10}";
},
{
name = top;
position = "{279, 478}";
},
{
name = topright;
position = "{500, 478}";
}
);
layerId = "4C6D0269-BFF7-43F1-9175-E88494BCD883";
paths = (
{
closed = 1;
nodes = (
"324 -11 OFFCURVE",
"390 48 OFFCURVE",
"407 155 CURVE SMOOTH",
"431 315 LINE SMOOTH",
"448 424 OFFCURVE",
"391 489 OFFCURVE",
"279 489 CURVE SMOOTH",
"171 489 OFFCURVE",
"106 432 OFFCURVE",
"90 323 CURVE SMOOTH",
"65 163 LINE SMOOTH",
"49 53 OFFCURVE",
"105 -11 OFFCURVE",
"217 -11 CURVE SMOOTH"
);
},
{
closed = 1;
nodes = (
"115 5 OFFCURVE",
"66 61 OFFCURVE",
"81 163 CURVE SMOOTH",
"106 323 LINE SMOOTH",
"120 420 OFFCURVE",
"180 473 OFFCURVE",
"276 473 CURVE SMOOTH",
"380 473 OFFCURVE",
"431 416 OFFCURVE",
"415 315 CURVE SMOOTH",
"391 155 LINE SMOOTH",
"376 59 OFFCURVE",
"316 5 OFFCURVE",
"220 5 CURVE SMOOTH"
);
}
);
width = 479;
},
{
anchors = (
{
name = bottom;
position = "{210, 0}";
},
{
name = center;
position = "{251, 245}";
},
{
name = ogonek;
position = "{408, 10}";
},
{
name = top;
position = "{294, 487}";
},
{
name = topright;
position = "{517, 487}";
}
);
layerId = "7C569905-1C91-4856-B9FC-2D0B6400E3AF";
paths = (
{
closed = 1;
nodes = (
"348 -11 OFFCURVE",
"418 47 OFFCURVE",
"438 173 CURVE SMOOTH",
"458 304 LINE SMOOTH",
"477 433 OFFCURVE",
"412 498 OFFCURVE",
"291 498 CURVE SMOOTH",
"168 498 OFFCURVE",
"99 440 OFFCURVE",
"79 318 CURVE SMOOTH",
"57 185 LINE SMOOTH",
"37 58 OFFCURVE",
"98 -11 OFFCURVE",
"223 -11 CURVE SMOOTH"
);
},
{
closed = 1;
nodes = (
"151 59 OFFCURVE",
"121 104 OFFCURVE",
"135 189 CURVE SMOOTH",
"155 309 LINE SMOOTH",
"168 392 OFFCURVE",
"206 428 OFFCURVE",
"283 428 CURVE SMOOTH",
"360 428 OFFCURVE",
"394 387 OFFCURVE",
"380 297 CURVE SMOOTH",
"361 179 LINE SMOOTH",
"348 95 OFFCURVE",
"308 59 OFFCURVE",
"231 59 CURVE SMOOTH"
);
}
);
width = 497;
},
{
anchors = (
{
name = bottom;
position = "{230, 0}";
},
{
name = center;
position = "{270, 250}";
},
{
name = ogonek;
position = "{438, 10}";
},
{
name = top;
position = "{302, 500}";
},
{
name = topright;
position = "{548, 500}";
}
);
layerId = "68DFFD47-52F1-4BAD-AADC-5BAA93A7FBC7";
paths = (
{
closed = 1;
nodes = (
"388 -11 OFFCURVE",
"471 57 OFFCURVE",
"494 193 CURVE SMOOTH",
"510 293 LINE SMOOTH",
"534 429 OFFCURVE",
"453 511 OFFCURVE",
"297 511 CURVE SMOOTH",
"155 511 OFFCURVE",
"71 442 OFFCURVE",
"49 307 CURVE SMOOTH",
"32 204 LINE SMOOTH",
"9 69 OFFCURVE",
"89 -11 OFFCURVE",
"244 -11 CURVE SMOOTH"
);
},
{
closed = 1;
nodes = (
"212 135 OFFCURVE",
"196 158 OFFCURVE",
"204 211 CURVE SMOOTH",
"216 290 LINE SMOOTH",
"225 345 OFFCURVE",
"243 365 OFFCURVE",
"285 365 CURVE SMOOTH",
"331 365 OFFCURVE",
"348 341 OFFCURVE",
"339 288 CURVE SMOOTH",
"326 209 LINE SMOOTH",
"317 154 OFFCURVE",
"300 135 OFFCURVE",
"258 135 CURVE SMOOTH"
);
}
);
width = 523;
}
);
leftKerningGroup = o;
rightKerningGroup = o;
unicode = 006F;
},
{
glyphname = oslash;
lastChange = "2022-11-08 21:16:02 +0000";
layers = (
{
anchors = (
{
name = top;
position = "{277, 478}";
}
);
components = (
{
alignment = -1;
name = o;
}
);
layerId = "4C6D0269-BFF7-43F1-9175-E88494BCD883";
paths = (
{
closed = 1;
nodes = (
"2 -51 LINE SMOOTH",
"5 -51 OFFCURVE",
"5 -50 OFFCURVE",
"7 -48 CURVE SMOOTH",
"89 46 LINE",
"93 52 LINE",
"409 421 LINE",
"414 426 LINE",
"505 534 LINE SMOOTH",
"507 536 OFFCURVE",
"507 538 OFFCURVE",
"504 538 CURVE SMOOTH",
"494 538 LINE SMOOTH",
"492 538 OFFCURVE",
"491 538 OFFCURVE",
"489 536 CURVE SMOOTH",
"403 436 LINE",
"398 431 LINE",
"84 63 LINE",
"81 58 LINE",
"-9 -47 LINE SMOOTH",
"-11 -49 OFFCURVE",
"-10 -51 OFFCURVE",
"-8 -51 CURVE SMOOTH"
);
}
);
width = 479;
},
{
anchors = (
{
name = top;
position = "{290, 487}";
}
);
components = (
{
alignment = -1;
name = o;
}
);
layerId = "7C569905-1C91-4856-B9FC-2D0B6400E3AF";
paths = (
{
closed = 1;
nodes = (
"37 -51 LINE SMOOTH",
"42 -51 OFFCURVE",
"46 -49 OFFCURVE",
"50 -45 CURVE SMOOTH",
"118 35 LINE",
"143 66 LINE",
"405 373 LINE",
"429 399 LINE",
"540 528 LINE SMOOTH",
"545 533 OFFCURVE",
"543 539 OFFCURVE",
"536 539 CURVE SMOOTH",
"481 539 LINE SMOOTH",
"475 539 OFFCURVE",
"471 537 OFFCURVE",
"467 533 CURVE SMOOTH",
"393 447 LINE",
"372 419 LINE",
"110 113 LINE",
"88 89 LINE",
"-22 -40 LINE SMOOTH",
"-28 -46 OFFCURVE",
"-25 -51 OFFCURVE",
"-18 -51 CURVE SMOOTH"
);
}
);
width = 497;
},
{
anchors = (
{
name = top;
position = "{311, 500}";
}
);
components = (
{
alignment = -1;
name = o;
}
);
layerId = "68DFFD47-52F1-4BAD-AADC-5BAA93A7FBC7";
paths = (
{
closed = 1;
nodes = (
"112 -52 LINE SMOOTH",
"120 -52 OFFCURVE",
"126 -49 OFFCURVE",
"132 -41 CURVE SMOOTH",
"177 18 LINE",
"221 123 LINE",
"372 345 LINE",
"464 415 LINE",
"553 533 LINE SMOOTH",
"560 543 OFFCURVE",
"557 550 OFFCURVE",
"546 550 CURVE SMOOTH",
"428 550 LINE SMOOTH",
"420 550 OFFCURVE",
"416 546 OFFCURVE",
"410 539 CURVE SMOOTH",
"367 480 LINE",
"327 382 LINE",
"185 173 LINE",
"80 85 LINE",
"-10 -35 LINE SMOOTH",
"-17 -44 OFFCURVE",
"-13 -52 OFFCURVE",
"-3 -52 CURVE SMOOTH"
);
}
);
width = 523;
}
);
leftKerningGroup = o;
rightKerningGroup = o;
unicode = 00F8;
},
{
glyphname = oe;
lastChange = "2022-11-08 21:16:38 +0000";
layers = (
{
layerId = "4C6D0269-BFF7-43F1-9175-E88494BCD883";
paths = (
{
closed = 1;
nodes = (
"294 -11 OFFCURVE",
"352 27 OFFCURVE",
"380 98 CURVE",
"392 28 OFFCURVE",
"442 -11 OFFCURVE",
"526 -11 CURVE SMOOTH",
"629 -11 OFFCURVE",
"692 29 OFFCURVE",
"694 118 CURVE SMOOTH",
"694 120 OFFCURVE",
"694 122 OFFCURVE",
"691 122 CURVE SMOOTH",
"682 122 LINE SMOOTH",
"679 122 OFFCURVE",
"678 121 OFFCURVE",
"678 118 CURVE SMOOTH",
"676 41 OFFCURVE",
"620 5 OFFCURVE",
"527 5 CURVE SMOOTH",
"427 5 OFFCURVE",
"381 63 OFFCURVE",
"397 168 CURVE SMOOTH",
"406 229 LINE",
"568 245 LINE SMOOTH",
"689 257 OFFCURVE",
"732 301 OFFCURVE",
"732 381 CURVE SMOOTH",
"732 450 OFFCURVE",
"680 489 OFFCURVE",
"590 489 CURVE SMOOTH",
"506 489 OFFCURVE",
"447 452 OFFCURVE",
"420 381 CURVE",
"409 450 OFFCURVE",
"356 489 OFFCURVE",
"272 489 CURVE SMOOTH",
"171 489 OFFCURVE",
"106 432 OFFCURVE",
"90 323 CURVE SMOOTH",
"65 163 LINE SMOOTH",
"49 53 OFFCURVE",
"106 -11 OFFCURVE",
"211 -11 CURVE SMOOTH"
);
},
{
closed = 1;
nodes = (
"115 5 OFFCURVE",
"66 61 OFFCURVE",
"81 163 CURVE SMOOTH",
"106 323 LINE SMOOTH",
"120 420 OFFCURVE",
"180 473 OFFCURVE",
"270 473 CURVE SMOOTH",
"369 473 OFFCURVE",
"419 416 OFFCURVE",
"404 315 CURVE SMOOTH",
"379 155 LINE SMOOTH",
"364 59 OFFCURVE",
"305 5 OFFCURVE",
"213 5 CURVE SMOOTH"
);
},
{
closed = 1;
nodes = (
"422 327 LINE SMOOTH",
"436 423 OFFCURVE",
"495 473 OFFCURVE",
"589 473 CURVE SMOOTH",
"670 473 OFFCURVE",
"716 439 OFFCURVE",
"716 380 CURVE SMOOTH",
"716 305 OFFCURVE",
"674 271 OFFCURVE",
"566 260 CURVE SMOOTH",
"409 245 LINE"
);
}
);
width = 782;
},
{
layerId = "7C569905-1C91-4856-B9FC-2D0B6400E3AF";
paths = (
{
closed = 1;
nodes = (
"282 -11 OFFCURVE",
"330 12 OFFCURVE",
"371 67 CURVE",
"395 12 OFFCURVE",
"448 -11 OFFCURVE",
"514 -11 CURVE SMOOTH",
"616 -11 OFFCURVE",
"698 32 OFFCURVE",
"704 124 CURVE SMOOTH",
"705 131 OFFCURVE",
"702 135 OFFCURVE",
"695 135 CURVE SMOOTH",
"637 135 LINE SMOOTH",
"631 135 OFFCURVE",
"628 132 OFFCURVE",
"626 124 CURVE SMOOTH",
"619 80 OFFCURVE",
"584 58 OFFCURVE",
"522 58 CURVE SMOOTH",
"448 58 OFFCURVE",
"414 98 OFFCURVE",
"429 178 CURVE SMOOTH",
"432 198 LINE",
"573 215 LINE SMOOTH",
"696 231 OFFCURVE",
"744 289 OFFCURVE",
"744 375 CURVE SMOOTH",
"744 447 OFFCURVE",
"693 498 OFFCURVE",
"591 498 CURVE SMOOTH",
"523 498 OFFCURVE",
"465 472 OFFCURVE",
"428 419 CURVE",
"409 472 OFFCURVE",
"353 498 OFFCURVE",
"284 498 CURVE SMOOTH",
"164 498 OFFCURVE",
"97 436 OFFCURVE",
"79 321 CURVE SMOOTH",
"56 181 LINE SMOOTH",
"37 62 OFFCURVE",
"97 -11 OFFCURVE",
"213 -11 CURVE SMOOTH"
);
},
{
closed = 1;
nodes = (
"154 59 OFFCURVE",
"121 100 OFFCURVE",
"134 183 CURVE SMOOTH",
"153 306 LINE SMOOTH",
"166 388 OFFCURVE",
"202 428 OFFCURVE",
"280 428 CURVE SMOOTH",
"351 428 OFFCURVE",
"384 383 OFFCURVE",
"372 304 CURVE SMOOTH",
"353 182 LINE SMOOTH",
"339 94 OFFCURVE",
"297 59 OFFCURVE",
"225 59 CURVE SMOOTH"
);
},
{
closed = 1;
nodes = (
"452 318 LINE SMOOTH",
"463 392 OFFCURVE",
"502 430 OFFCURVE",
"575 430 CURVE SMOOTH",
"633 430 OFFCURVE",
"665 408 OFFCURVE",
"665 367 CURVE SMOOTH",
"664 314 OFFCURVE",
"635 288 OFFCURVE",
"563 278 CURVE SMOOTH",
"443 263 LINE"
);
}
);
width = 775;
},
{
layerId = "68DFFD47-52F1-4BAD-AADC-5BAA93A7FBC7";
paths = (
{
closed = 1;
nodes = (
"297 -11 OFFCURVE",
"348 10 OFFCURVE",
"381 40 CURVE",
"416 6 OFFCURVE",
"459 -11 OFFCURVE",
"529 -11 CURVE SMOOTH",
"673 -11 OFFCURVE",
"753 40 OFFCURVE",
"764 150 CURVE SMOOTH",
"765 160 OFFCURVE",
"760 165 OFFCURVE",
"750 165 CURVE SMOOTH",
"616 165 LINE SMOOTH",
"608 165 OFFCURVE",
"602 159 OFFCURVE",
"601 150 CURVE SMOOTH",
"599 127 OFFCURVE",
"577 115 OFFCURVE",
"542 115 CURVE SMOOTH",
"502 115 OFFCURVE",
"484 139 OFFCURVE",
"492 183 CURVE SMOOTH",
"495 199 LINE",
"601 210 LINE SMOOTH",
"749 225 OFFCURVE",
"805 272 OFFCURVE",
"805 379 CURVE SMOOTH",
"805 462 OFFCURVE",
"728 511 OFFCURVE",
"613 511 CURVE SMOOTH",
"544 511 OFFCURVE",
"483 491 OFFCURVE",
"444 457 CURVE",
"415 491 OFFCURVE",
"368 511 OFFCURVE",
"296 511 CURVE SMOOTH",
"155 511 OFFCURVE",
"71 442 OFFCURVE",
"49 307 CURVE SMOOTH",
"32 204 LINE SMOOTH",
"11 70 OFFCURVE",
"90 -11 OFFCURVE",
"229 -11 CURVE SMOOTH"
);
},
{
closed = 1;
nodes = (
"212 135 OFFCURVE",
"195 157 OFFCURVE",
"204 211 CURVE SMOOTH",
"216 290 LINE SMOOTH",
"226 345 OFFCURVE",
"243 365 OFFCURVE",
"285 365 CURVE SMOOTH",
"331 365 OFFCURVE",
"347 341 OFFCURVE",
"339 288 CURVE SMOOTH",
"326 209 LINE SMOOTH",
"318 154 OFFCURVE",
"299 135 OFFCURVE",
"257 135 CURVE SMOOTH"
);
},
{
closed = 1;
nodes = (
"514 319 LINE SMOOTH",
"520 363 OFFCURVE",
"542 384 OFFCURVE",
"585 384 CURVE SMOOTH",
"619 384 OFFCURVE",
"633 373 OFFCURVE",
"633 349 CURVE SMOOTH",
"633 321 OFFCURVE",
"615 304 OFFCURVE",
"572 299 CURVE SMOOTH",
"510 293 LINE"
);
}
);
width = 809;
}
);
leftKerningGroup = o;
leftMetricsKey = o;
rightKerningGroup = e;
rightMetricsKey = e;
unicode = 0153;
},
{
glyphname = p;
lastChange = "2022-11-08 21:16:38 +0000";
layers = (
{
anchors = (
{
name = bottom;
position = "{207, 0}";
},
{
name = top;
position = "{283, 478}";
}
);
layerId = "4C6D0269-BFF7-43F1-9175-E88494BCD883";
paths = (
{
closed = 1;
nodes = (
"334 -11 OFFCURVE",
"396 40 OFFCURVE",
"415 156 CURVE SMOOTH",
"445 334 LINE SMOOTH",
"462 437 OFFCURVE",
"425 489 OFFCURVE",
"345 489 CURVE SMOOTH",
"276 489 OFFCURVE",
"210 452 OFFCURVE",
"128 375 CURVE",
"125 353 LINE",
"215 435 OFFCURVE",
"279 473 OFFCURVE",
"343 473 CURVE SMOOTH",
"413 473 OFFCURVE",
"445 427 OFFCURVE",
"429 331 CURVE SMOOTH",
"399 156 LINE SMOOTH",
"382 53 OFFCURVE",
"324 5 OFFCURVE",
"233 5 CURVE SMOOTH",
"178 5 OFFCURVE",
"126 21 OFFCURVE",
"75 53 CURVE",
"72 35 LINE",
"124 6 OFFCURVE",
"181 -11 OFFCURVE",
"232 -11 CURVE SMOOTH"
);
},
{
closed = 1;
nodes = (
"41 -185 LINE SMOOTH",
"44 -185 OFFCURVE",
"45 -185 OFFCURVE",
"46 -181 CURVE SMOOTH",
"131 364 LINE",
"133 371 LINE",
"139 407 OFFCURVE",
"143 441 OFFCURVE",
"145 475 CURVE SMOOTH",
"145 478 OFFCURVE",
"144 478 OFFCURVE",
"142 478 CURVE SMOOTH",
"132 478 LINE SMOOTH",
"130 478 OFFCURVE",
"129 477 OFFCURVE",
"129 475 CURVE SMOOTH",
"127 441 OFFCURVE",
"123 404 OFFCURVE",
"117 368 CURVE SMOOTH",
"30 -181 LINE SMOOTH",
"29 -185 OFFCURVE",
"31 -185 OFFCURVE",
"34 -185 CURVE SMOOTH"
);
}
);
width = 491;
},
{
anchors = (
{
name = bottom;
position = "{211, 0}";
},
{
name = top;
position = "{288, 487}";
}
);
layerId = "7C569905-1C91-4856-B9FC-2D0B6400E3AF";
paths = (
{
closed = 1;
nodes = (
"353 -11 OFFCURVE",
"417 53 OFFCURVE",
"437 177 CURVE SMOOTH",
"460 322 LINE SMOOTH",
"479 440 OFFCURVE",
"442 498 OFFCURVE",
"353 498 CURVE SMOOTH",
"288 498 OFFCURVE",
"233 468 OFFCURVE",
"164 407 CURVE",
"156 338 LINE",
"226 400 OFFCURVE",
"276 428 OFFCURVE",
"322 428 CURVE SMOOTH",
"374 428 OFFCURVE",
"396 394 OFFCURVE",
"383 317 CURVE SMOOTH",
"362 184 LINE SMOOTH",
"347 98 OFFCURVE",
"309 58 OFFCURVE",
"241 58 CURVE SMOOTH",
"201 58 OFFCURVE",
"154 70 OFFCURVE",
"119 92 CURVE",
"111 26 LINE",
"143 3 OFFCURVE",
"201 -11 OFFCURVE",
"250 -11 CURVE SMOOTH"
);
},
{
closed = 1;
nodes = (
"80 -185 LINE SMOOTH",
"85 -185 OFFCURVE",
"89 -181 OFFCURVE",
"90 -176 CURVE SMOOTH",
"176 366 LINE",
"179 405 LINE",
"182 422 OFFCURVE",
"183 460 OFFCURVE",
"184 478 CURVE SMOOTH",
"184 485 OFFCURVE",
"180 487 OFFCURVE",
"174 487 CURVE SMOOTH",
"121 487 LINE SMOOTH",
"115 487 OFFCURVE",
"110 484 OFFCURVE",
"110 477 CURVE SMOOTH",
"109 448 OFFCURVE",
"105 410 OFFCURVE",
"100 373 CURVE SMOOTH",
"13 -176 LINE SMOOTH",
"12 -182 OFFCURVE",
"15 -185 OFFCURVE",
"21 -185 CURVE SMOOTH"
);
}
);
width = 498;
},
{
anchors = (
{
name = bottom;
position = "{217, 0}";
},
{
name = top;
position = "{297, 500}";
}
);
layerId = "68DFFD47-52F1-4BAD-AADC-5BAA93A7FBC7";
paths = (
{
closed = 1;
nodes = (
"401 -11 OFFCURVE",
"461 51 OFFCURVE",
"481 181 CURVE SMOOTH",
"508 347 LINE SMOOTH",
"525 457 OFFCURVE",
"489 511 OFFCURVE",
"397 511 CURVE SMOOTH",
"333 511 OFFCURVE",
"278 482 OFFCURVE",
"207 414 CURVE",
"208 316 LINE",
"241 347 OFFCURVE",
"271 362 OFFCURVE",
"296 362 CURVE SMOOTH",
"326 362 OFFCURVE",
"337 345 OFFCURVE",
"331 306 CURVE SMOOTH",
"313 193 LINE SMOOTH",
"307 149 OFFCURVE",
"288 128 OFFCURVE",
"255 128 CURVE SMOOTH",
"230 128 OFFCURVE",
"203 136 OFFCURVE",
"183 148 CURVE",
"165 20 LINE",
"195 2 OFFCURVE",
"250 -11 OFFCURVE",
"298 -11 CURVE SMOOTH"
);
},
{
closed = 1;
nodes = (
"138 -185 LINE SMOOTH",
"148 -185 OFFCURVE",
"152 -179 OFFCURVE",
"153 -170 CURVE SMOOTH",
"235 349 LINE",
"229 411 LINE",
"232 438 OFFCURVE",
"233 465 OFFCURVE",
"232 485 CURVE SMOOTH",
"231 496 OFFCURVE",
"226 500 OFFCURVE",
"217 500 CURVE SMOOTH",
"97 500 LINE SMOOTH",
"88 500 OFFCURVE",
"83 495 OFFCURVE",
"82 485 CURVE SMOOTH",
"80 451 OFFCURVE",
"76 416 OFFCURVE",
"68 369 CURVE SMOOTH",
"-18 -170 LINE SMOOTH",
"-19 -179 OFFCURVE",
"-14 -185 OFFCURVE",
"-4 -185 CURVE SMOOTH"
);
}
);
width = 515;
}
);
leftKerningGroup = n;
leftMetricsKey = n;
rightKerningGroup = o;
rightMetricsKey = "=o+2";
unicode = 0070;
},
